%TF.GenerationSoftware,KiCad,Pcbnew,9.0.1-rc1*%
%TF.CreationDate,2025-04-01T12:09:21-07:00*%
%TF.ProjectId,ECE_442_PCB,4543455f-3434-4325-9f50-43422e6b6963,rev?*%
%TF.SameCoordinates,Original*%
%TF.FileFunction,Paste,Top*%
%TF.FilePolarity,Positive*%
%FSLAX46Y46*%
G04 Gerber Fmt 4.6, Leading zero omitted, Abs format (unit mm)*
G04 Created by KiCad (PCBNEW 9.0.1-rc1) date 2025-04-01 12:09:21*
%MOMM*%
%LPD*%
G01*
G04 APERTURE LIST*
G04 Aperture macros list*
%AMRoundRect*
0 Rectangle with rounded corners*
0 $1 Rounding radius*
0 $2 $3 $4 $5 $6 $7 $8 $9 X,Y pos of 4 corners*
0 Add a 4 corners polygon primitive as box body*
4,1,4,$2,$3,$4,$5,$6,$7,$8,$9,$2,$3,0*
0 Add four circle primitives for the rounded corners*
1,1,$1+$1,$2,$3*
1,1,$1+$1,$4,$5*
1,1,$1+$1,$6,$7*
1,1,$1+$1,$8,$9*
0 Add four rect primitives between the rounded corners*
20,1,$1+$1,$2,$3,$4,$5,0*
20,1,$1+$1,$4,$5,$6,$7,0*
20,1,$1+$1,$6,$7,$8,$9,0*
20,1,$1+$1,$8,$9,$2,$3,0*%
G04 Aperture macros list end*
%ADD10RoundRect,0.250000X0.337500X0.475000X-0.337500X0.475000X-0.337500X-0.475000X0.337500X-0.475000X0*%
%ADD11RoundRect,0.250000X-0.337500X-0.475000X0.337500X-0.475000X0.337500X0.475000X-0.337500X0.475000X0*%
%ADD12RoundRect,0.250000X-0.250000X-0.475000X0.250000X-0.475000X0.250000X0.475000X-0.250000X0.475000X0*%
%ADD13RoundRect,0.250000X0.475000X-0.337500X0.475000X0.337500X-0.475000X0.337500X-0.475000X-0.337500X0*%
%ADD14R,2.400000X0.240000*%
%ADD15R,0.240000X2.400000*%
%ADD16R,1.680000X1.680000*%
%ADD17R,2.400000X0.250000*%
%ADD18R,1.240000X2.220000*%
%ADD19RoundRect,0.250000X0.350000X0.450000X-0.350000X0.450000X-0.350000X-0.450000X0.350000X-0.450000X0*%
%ADD20RoundRect,0.250000X-0.262500X-0.450000X0.262500X-0.450000X0.262500X0.450000X-0.262500X0.450000X0*%
%ADD21R,0.647700X0.254000*%
%ADD22RoundRect,0.250000X-0.350000X-0.450000X0.350000X-0.450000X0.350000X0.450000X-0.350000X0.450000X0*%
%ADD23RoundRect,0.237500X-0.237500X0.250000X-0.237500X-0.250000X0.237500X-0.250000X0.237500X0.250000X0*%
%ADD24R,1.200000X0.650001*%
%ADD25RoundRect,0.250000X0.250000X0.475000X-0.250000X0.475000X-0.250000X-0.475000X0.250000X-0.475000X0*%
%ADD26RoundRect,0.250000X0.262500X0.450000X-0.262500X0.450000X-0.262500X-0.450000X0.262500X-0.450000X0*%
%ADD27RoundRect,0.250000X1.100000X-0.325000X1.100000X0.325000X-1.100000X0.325000X-1.100000X-0.325000X0*%
%ADD28RoundRect,0.250000X-0.450000X0.262500X-0.450000X-0.262500X0.450000X-0.262500X0.450000X0.262500X0*%
%ADD29R,1.536700X0.431800*%
%ADD30R,2.150000X4.000000*%
%ADD31RoundRect,0.150000X-0.512500X-0.150000X0.512500X-0.150000X0.512500X0.150000X-0.512500X0.150000X0*%
%ADD32RoundRect,0.250000X0.325000X0.450000X-0.325000X0.450000X-0.325000X-0.450000X0.325000X-0.450000X0*%
G04 APERTURE END LIST*
D10*
%TO.C,C2*%
X110387500Y-79250000D03*
X108312500Y-79250000D03*
%TD*%
%TO.C,C18*%
X150237500Y-88000000D03*
X148162500Y-88000000D03*
%TD*%
D11*
%TO.C,C20*%
X110512500Y-100900000D03*
X112587500Y-100900000D03*
%TD*%
D10*
%TO.C,C15*%
X152887500Y-84000000D03*
X150812500Y-84000000D03*
%TD*%
D12*
%TO.C,C1*%
X111250000Y-90950000D03*
X113150000Y-90950000D03*
%TD*%
D11*
%TO.C,C17*%
X157412500Y-96550000D03*
X159487500Y-96550000D03*
%TD*%
D13*
%TO.C,C11*%
X136250000Y-113787500D03*
X136250000Y-111712500D03*
%TD*%
D14*
%TO.C,IC1*%
X104150000Y-85100000D03*
X104150000Y-85600000D03*
X104150000Y-86100000D03*
X104150000Y-86600000D03*
X104150000Y-87100000D03*
X104150000Y-87600000D03*
D15*
X105700000Y-89150000D03*
X106200000Y-89150000D03*
X106700000Y-89150000D03*
X107200000Y-89150000D03*
X107700000Y-89150000D03*
X108200000Y-89150000D03*
D14*
X109750000Y-87600000D03*
X109750000Y-87100000D03*
X109750000Y-86600000D03*
X109750000Y-86100000D03*
X109750000Y-85600000D03*
X109750000Y-85100000D03*
D15*
X108200000Y-83550000D03*
X107700000Y-83550000D03*
X107200000Y-83550000D03*
X106700000Y-83550000D03*
X106200000Y-83550000D03*
X105700000Y-83550000D03*
D16*
X106950000Y-86350000D03*
D17*
X104150000Y-84625000D03*
X104150000Y-88075000D03*
X109750000Y-88075000D03*
X109750000Y-84625000D03*
%TD*%
D18*
%TO.C,L1*%
X156660000Y-84000000D03*
X158840000Y-84000000D03*
%TD*%
D19*
%TO.C,R10*%
X159400000Y-92900000D03*
X157400000Y-92900000D03*
%TD*%
D20*
%TO.C,R8*%
X110887500Y-111700000D03*
X112712500Y-111700000D03*
%TD*%
D21*
%TO.C,U2*%
X139322350Y-108749999D03*
X139322350Y-108100000D03*
X139322350Y-107450001D03*
X137277650Y-107450001D03*
X137277650Y-108749999D03*
%TD*%
D22*
%TO.C,R6*%
X153100000Y-92900000D03*
X155100000Y-92900000D03*
%TD*%
D23*
%TO.C,R4*%
X135000000Y-105287500D03*
X135000000Y-107112500D03*
%TD*%
D11*
%TO.C,C10*%
X98525000Y-89200000D03*
X100600000Y-89200000D03*
%TD*%
D24*
%TO.C,U5*%
X104224999Y-100249999D03*
X104224999Y-101200000D03*
X104224999Y-102149998D03*
X107174998Y-102149998D03*
X107174998Y-100249999D03*
%TD*%
D10*
%TO.C,C5*%
X106137500Y-93100000D03*
X104062500Y-93100000D03*
%TD*%
%TO.C,C12*%
X144237500Y-107300000D03*
X142162500Y-107300000D03*
%TD*%
D19*
%TO.C,R11*%
X150200000Y-90400000D03*
X148200000Y-90400000D03*
%TD*%
D25*
%TO.C,C7*%
X105650000Y-80050000D03*
X103750000Y-80050000D03*
%TD*%
D26*
%TO.C,R1*%
X143212500Y-111750000D03*
X141387500Y-111750000D03*
%TD*%
%TO.C,R12*%
X125825000Y-100500000D03*
X124000000Y-100500000D03*
%TD*%
D27*
%TO.C,C13*%
X131550000Y-107675000D03*
X131550000Y-104725000D03*
%TD*%
D28*
%TO.C,R2*%
X138900000Y-111687500D03*
X138900000Y-113512500D03*
%TD*%
D29*
%TO.C,U4*%
X153032250Y-88025001D03*
X153032250Y-88674999D03*
X153032250Y-89325001D03*
X153032250Y-89974999D03*
X157667750Y-89974999D03*
X157667750Y-89325001D03*
X157667750Y-88674999D03*
X157667750Y-88025001D03*
%TD*%
D20*
%TO.C,R5*%
X106287500Y-107750000D03*
X108112500Y-107750000D03*
%TD*%
D25*
%TO.C,C9*%
X115850000Y-83950000D03*
X113950000Y-83950000D03*
%TD*%
D30*
%TO.C,C19*%
X166050000Y-90200000D03*
X166050000Y-96900000D03*
%TD*%
D10*
%TO.C,C16*%
X100837500Y-101000000D03*
X98762500Y-101000000D03*
%TD*%
D31*
%TO.C,U3*%
X110825000Y-107600000D03*
X110825000Y-108550000D03*
X110825000Y-109500000D03*
X113100000Y-109500000D03*
X113100000Y-107600000D03*
%TD*%
D25*
%TO.C,C8*%
X115850000Y-87400000D03*
X113950000Y-87400000D03*
%TD*%
%TO.C,C6*%
X101700000Y-80750000D03*
X99800000Y-80750000D03*
%TD*%
D26*
%TO.C,R3*%
X146912500Y-110150000D03*
X145087500Y-110150000D03*
%TD*%
D25*
%TO.C,C3*%
X100762500Y-84150000D03*
X98862500Y-84150000D03*
%TD*%
%TO.C,C4*%
X100662500Y-86750000D03*
X98762500Y-86750000D03*
%TD*%
D32*
%TO.C,D1*%
X163775000Y-84000000D03*
X161725000Y-84000000D03*
%TD*%
D26*
%TO.C,R7*%
X117775000Y-107950000D03*
X115950000Y-107950000D03*
%TD*%
D19*
%TO.C,R9*%
X150150000Y-92750000D03*
X148150000Y-92750000D03*
%TD*%
M02*
