M48
; DRILL file {KiCad 9.0.1-rc1} date 2025-04-01T12:09:20-0700
; FORMAT={-:-/ absolute / inch / decimal}
; #@! TF.CreationDate,2025-04-01T12:09:20-07:00
; #@! TF.GenerationSoftware,Kicad,Pcbnew,9.0.1-rc1
; #@! TF.FileFunction,Plated,1,2,PTH
FMAT,2
INCH
; #@! TA.AperFunction,Plated,PTH,ViaDrill
T1C0.0118
; #@! TA.AperFunction,Plated,PTH,ComponentDrill
T2C0.0260
; #@! TA.AperFunction,Plated,PTH,ComponentDrill
T3C0.0276
; #@! TA.AperFunction,Plated,PTH,ComponentDrill
T4C0.0295
; #@! TA.AperFunction,Plated,PTH,ComponentDrill
T5C0.0350
; #@! TA.AperFunction,Plated,PTH,ComponentDrill
T6C0.0394
%
G90
G05
T1
X3.7598Y-4.1063
X3.8484Y-3.4646
X3.878Y-4.0472
X3.8976Y-3.2461
X4.0374Y-3.4114
X4.0394Y-3.3307
X4.1161Y-3.5039
X4.1614Y-3.9921
X4.2087Y-3.1181
X4.2185Y-3.5925
X4.2545Y-3.4387
X4.2894Y-3.2266
X4.315Y-3.3091
X4.3287Y-3.5827
X4.3543Y-3.2618
X4.3888Y-3.4675
X4.3957Y-3.124
X4.3976Y-3.372
X4.3996Y-3.437
X4.4134Y-3.3209
X4.435Y-4.2736
X4.4921Y-3.9724
X4.6004Y-3.439
X4.6043Y-3.3051
X5.0039Y-3.9449
X5.4232Y-4.5197
X5.5224Y-4.2566
X5.8307Y-3.7087
X5.8937Y-3.3071
X6.0249Y-3.4304
X6.2362Y-3.5748
X6.3268Y-3.8031
X6.5315Y-3.9291
T2
X3.977Y-4.422
X4.077Y-4.522
X4.177Y-4.422
T3
X5.8307Y-4.0512
X5.8307Y-4.126
T4
X3.6752Y-3.9705
X3.6752Y-4.0492
X6.0492Y-3.0669
X6.128Y-3.0669
T5
X4.9756Y-3.1358
X4.9756Y-3.2358
X4.9756Y-3.3358
X4.9756Y-3.4358
X4.9756Y-3.5358
X4.9756Y-3.6358
X4.9756Y-3.7358
X5.5756Y-3.1358
X5.5756Y-3.2358
X5.5756Y-3.3358
X5.5756Y-3.4358
X5.5756Y-3.5358
X5.5756Y-3.6358
X5.5756Y-3.7358
T6
X4.3622Y-4.5295
X4.7441Y-3.2953
X4.7441Y-3.4449
X4.7441Y-3.5906
X4.7441Y-3.7441
X4.7894Y-4.2323
X4.7894Y-4.4213
X4.9921Y-4.2343
X4.9941Y-4.4232
X5.5787Y-4.0335
X6.2283Y-4.1811
X6.4154Y-4.185
M30
