%TF.GenerationSoftware,KiCad,Pcbnew,9.0.1-rc1*%
%TF.CreationDate,2025-04-01T12:09:21-07:00*%
%TF.ProjectId,ECE_442_PCB,4543455f-3434-4325-9f50-43422e6b6963,rev?*%
%TF.SameCoordinates,Original*%
%TF.FileFunction,Legend,Top*%
%TF.FilePolarity,Positive*%
%FSLAX46Y46*%
G04 Gerber Fmt 4.6, Leading zero omitted, Abs format (unit mm)*
G04 Created by KiCad (PCBNEW 9.0.1-rc1) date 2025-04-01 12:09:21*
%MOMM*%
%LPD*%
G01*
G04 APERTURE LIST*
%ADD10C,0.190500*%
%ADD11C,0.125000*%
%ADD12C,0.150000*%
%ADD13C,0.254000*%
%ADD14C,0.098425*%
%ADD15C,0.101600*%
%ADD16C,0.120000*%
%ADD17C,0.100000*%
%ADD18C,0.127000*%
%ADD19C,0.152400*%
%ADD20C,0.200000*%
%ADD21C,0.504000*%
G04 APERTURE END LIST*
D10*
X149805899Y-114571125D02*
X149733328Y-114534839D01*
X149733328Y-114534839D02*
X149624470Y-114534839D01*
X149624470Y-114534839D02*
X149515613Y-114571125D01*
X149515613Y-114571125D02*
X149443042Y-114643696D01*
X149443042Y-114643696D02*
X149406756Y-114716268D01*
X149406756Y-114716268D02*
X149370470Y-114861411D01*
X149370470Y-114861411D02*
X149370470Y-114970268D01*
X149370470Y-114970268D02*
X149406756Y-115115411D01*
X149406756Y-115115411D02*
X149443042Y-115187982D01*
X149443042Y-115187982D02*
X149515613Y-115260554D01*
X149515613Y-115260554D02*
X149624470Y-115296839D01*
X149624470Y-115296839D02*
X149697042Y-115296839D01*
X149697042Y-115296839D02*
X149805899Y-115260554D01*
X149805899Y-115260554D02*
X149842185Y-115224268D01*
X149842185Y-115224268D02*
X149842185Y-114970268D01*
X149842185Y-114970268D02*
X149697042Y-114970268D01*
X150168756Y-115296839D02*
X150168756Y-114788839D01*
X150168756Y-114933982D02*
X150205042Y-114861411D01*
X150205042Y-114861411D02*
X150241328Y-114825125D01*
X150241328Y-114825125D02*
X150313899Y-114788839D01*
X150313899Y-114788839D02*
X150386470Y-114788839D01*
X150749327Y-115296839D02*
X150676756Y-115260554D01*
X150676756Y-115260554D02*
X150640470Y-115224268D01*
X150640470Y-115224268D02*
X150604184Y-115151696D01*
X150604184Y-115151696D02*
X150604184Y-114933982D01*
X150604184Y-114933982D02*
X150640470Y-114861411D01*
X150640470Y-114861411D02*
X150676756Y-114825125D01*
X150676756Y-114825125D02*
X150749327Y-114788839D01*
X150749327Y-114788839D02*
X150858184Y-114788839D01*
X150858184Y-114788839D02*
X150930756Y-114825125D01*
X150930756Y-114825125D02*
X150967042Y-114861411D01*
X150967042Y-114861411D02*
X151003327Y-114933982D01*
X151003327Y-114933982D02*
X151003327Y-115151696D01*
X151003327Y-115151696D02*
X150967042Y-115224268D01*
X150967042Y-115224268D02*
X150930756Y-115260554D01*
X150930756Y-115260554D02*
X150858184Y-115296839D01*
X150858184Y-115296839D02*
X150749327Y-115296839D01*
X151656471Y-114788839D02*
X151656471Y-115296839D01*
X151329899Y-114788839D02*
X151329899Y-115187982D01*
X151329899Y-115187982D02*
X151366185Y-115260554D01*
X151366185Y-115260554D02*
X151438756Y-115296839D01*
X151438756Y-115296839D02*
X151547613Y-115296839D01*
X151547613Y-115296839D02*
X151620185Y-115260554D01*
X151620185Y-115260554D02*
X151656471Y-115224268D01*
X152019328Y-114788839D02*
X152019328Y-115550839D01*
X152019328Y-114825125D02*
X152091900Y-114788839D01*
X152091900Y-114788839D02*
X152237042Y-114788839D01*
X152237042Y-114788839D02*
X152309614Y-114825125D01*
X152309614Y-114825125D02*
X152345900Y-114861411D01*
X152345900Y-114861411D02*
X152382185Y-114933982D01*
X152382185Y-114933982D02*
X152382185Y-115151696D01*
X152382185Y-115151696D02*
X152345900Y-115224268D01*
X152345900Y-115224268D02*
X152309614Y-115260554D01*
X152309614Y-115260554D02*
X152237042Y-115296839D01*
X152237042Y-115296839D02*
X152091900Y-115296839D01*
X152091900Y-115296839D02*
X152019328Y-115260554D01*
X153253042Y-114607411D02*
X153289328Y-114571125D01*
X153289328Y-114571125D02*
X153361900Y-114534839D01*
X153361900Y-114534839D02*
X153543328Y-114534839D01*
X153543328Y-114534839D02*
X153615900Y-114571125D01*
X153615900Y-114571125D02*
X153652185Y-114607411D01*
X153652185Y-114607411D02*
X153688471Y-114679982D01*
X153688471Y-114679982D02*
X153688471Y-114752554D01*
X153688471Y-114752554D02*
X153652185Y-114861411D01*
X153652185Y-114861411D02*
X153216757Y-115296839D01*
X153216757Y-115296839D02*
X153688471Y-115296839D01*
X154341614Y-114788839D02*
X154341614Y-115296839D01*
X154160185Y-114498554D02*
X153978756Y-115042839D01*
X153978756Y-115042839D02*
X154450471Y-115042839D01*
X149370470Y-113760554D02*
X149479328Y-113796839D01*
X149479328Y-113796839D02*
X149660756Y-113796839D01*
X149660756Y-113796839D02*
X149733328Y-113760554D01*
X149733328Y-113760554D02*
X149769613Y-113724268D01*
X149769613Y-113724268D02*
X149805899Y-113651696D01*
X149805899Y-113651696D02*
X149805899Y-113579125D01*
X149805899Y-113579125D02*
X149769613Y-113506554D01*
X149769613Y-113506554D02*
X149733328Y-113470268D01*
X149733328Y-113470268D02*
X149660756Y-113433982D01*
X149660756Y-113433982D02*
X149515613Y-113397696D01*
X149515613Y-113397696D02*
X149443042Y-113361411D01*
X149443042Y-113361411D02*
X149406756Y-113325125D01*
X149406756Y-113325125D02*
X149370470Y-113252554D01*
X149370470Y-113252554D02*
X149370470Y-113179982D01*
X149370470Y-113179982D02*
X149406756Y-113107411D01*
X149406756Y-113107411D02*
X149443042Y-113071125D01*
X149443042Y-113071125D02*
X149515613Y-113034839D01*
X149515613Y-113034839D02*
X149697042Y-113034839D01*
X149697042Y-113034839D02*
X149805899Y-113071125D01*
X150132470Y-113796839D02*
X150132470Y-113034839D01*
X150459042Y-113796839D02*
X150459042Y-113397696D01*
X150459042Y-113397696D02*
X150422756Y-113325125D01*
X150422756Y-113325125D02*
X150350184Y-113288839D01*
X150350184Y-113288839D02*
X150241327Y-113288839D01*
X150241327Y-113288839D02*
X150168756Y-113325125D01*
X150168756Y-113325125D02*
X150132470Y-113361411D01*
X151148471Y-113796839D02*
X151148471Y-113397696D01*
X151148471Y-113397696D02*
X151112185Y-113325125D01*
X151112185Y-113325125D02*
X151039613Y-113288839D01*
X151039613Y-113288839D02*
X150894471Y-113288839D01*
X150894471Y-113288839D02*
X150821899Y-113325125D01*
X151148471Y-113760554D02*
X151075899Y-113796839D01*
X151075899Y-113796839D02*
X150894471Y-113796839D01*
X150894471Y-113796839D02*
X150821899Y-113760554D01*
X150821899Y-113760554D02*
X150785613Y-113687982D01*
X150785613Y-113687982D02*
X150785613Y-113615411D01*
X150785613Y-113615411D02*
X150821899Y-113542839D01*
X150821899Y-113542839D02*
X150894471Y-113506554D01*
X150894471Y-113506554D02*
X151075899Y-113506554D01*
X151075899Y-113506554D02*
X151148471Y-113470268D01*
X151402471Y-113288839D02*
X151692757Y-113288839D01*
X151511328Y-113034839D02*
X151511328Y-113687982D01*
X151511328Y-113687982D02*
X151547614Y-113760554D01*
X151547614Y-113760554D02*
X151620185Y-113796839D01*
X151620185Y-113796839D02*
X151692757Y-113796839D01*
X151837900Y-113288839D02*
X152128186Y-113288839D01*
X151946757Y-113034839D02*
X151946757Y-113687982D01*
X151946757Y-113687982D02*
X151983043Y-113760554D01*
X151983043Y-113760554D02*
X152055614Y-113796839D01*
X152055614Y-113796839D02*
X152128186Y-113796839D01*
X152672472Y-113760554D02*
X152599900Y-113796839D01*
X152599900Y-113796839D02*
X152454758Y-113796839D01*
X152454758Y-113796839D02*
X152382186Y-113760554D01*
X152382186Y-113760554D02*
X152345900Y-113687982D01*
X152345900Y-113687982D02*
X152345900Y-113397696D01*
X152345900Y-113397696D02*
X152382186Y-113325125D01*
X152382186Y-113325125D02*
X152454758Y-113288839D01*
X152454758Y-113288839D02*
X152599900Y-113288839D01*
X152599900Y-113288839D02*
X152672472Y-113325125D01*
X152672472Y-113325125D02*
X152708758Y-113397696D01*
X152708758Y-113397696D02*
X152708758Y-113470268D01*
X152708758Y-113470268D02*
X152345900Y-113542839D01*
X153035329Y-113796839D02*
X153035329Y-113288839D01*
X153035329Y-113433982D02*
X153071615Y-113361411D01*
X153071615Y-113361411D02*
X153107901Y-113325125D01*
X153107901Y-113325125D02*
X153180472Y-113288839D01*
X153180472Y-113288839D02*
X153253043Y-113288839D01*
X153398186Y-113034839D02*
X153833615Y-113034839D01*
X153615900Y-113796839D02*
X153615900Y-113034839D01*
X154414186Y-113796839D02*
X154414186Y-113397696D01*
X154414186Y-113397696D02*
X154377900Y-113325125D01*
X154377900Y-113325125D02*
X154305328Y-113288839D01*
X154305328Y-113288839D02*
X154160186Y-113288839D01*
X154160186Y-113288839D02*
X154087614Y-113325125D01*
X154414186Y-113760554D02*
X154341614Y-113796839D01*
X154341614Y-113796839D02*
X154160186Y-113796839D01*
X154160186Y-113796839D02*
X154087614Y-113760554D01*
X154087614Y-113760554D02*
X154051328Y-113687982D01*
X154051328Y-113687982D02*
X154051328Y-113615411D01*
X154051328Y-113615411D02*
X154087614Y-113542839D01*
X154087614Y-113542839D02*
X154160186Y-113506554D01*
X154160186Y-113506554D02*
X154341614Y-113506554D01*
X154341614Y-113506554D02*
X154414186Y-113470268D01*
X154668186Y-113288839D02*
X154958472Y-113288839D01*
X154777043Y-113034839D02*
X154777043Y-113687982D01*
X154777043Y-113687982D02*
X154813329Y-113760554D01*
X154813329Y-113760554D02*
X154885900Y-113796839D01*
X154885900Y-113796839D02*
X154958472Y-113796839D01*
X155103615Y-113288839D02*
X155393901Y-113288839D01*
X155212472Y-113034839D02*
X155212472Y-113687982D01*
X155212472Y-113687982D02*
X155248758Y-113760554D01*
X155248758Y-113760554D02*
X155321329Y-113796839D01*
X155321329Y-113796839D02*
X155393901Y-113796839D01*
X155756758Y-113796839D02*
X155684187Y-113760554D01*
X155684187Y-113760554D02*
X155647901Y-113687982D01*
X155647901Y-113687982D02*
X155647901Y-113034839D01*
X156337330Y-113760554D02*
X156264758Y-113796839D01*
X156264758Y-113796839D02*
X156119616Y-113796839D01*
X156119616Y-113796839D02*
X156047044Y-113760554D01*
X156047044Y-113760554D02*
X156010758Y-113687982D01*
X156010758Y-113687982D02*
X156010758Y-113397696D01*
X156010758Y-113397696D02*
X156047044Y-113325125D01*
X156047044Y-113325125D02*
X156119616Y-113288839D01*
X156119616Y-113288839D02*
X156264758Y-113288839D01*
X156264758Y-113288839D02*
X156337330Y-113325125D01*
X156337330Y-113325125D02*
X156373616Y-113397696D01*
X156373616Y-113397696D02*
X156373616Y-113470268D01*
X156373616Y-113470268D02*
X156010758Y-113542839D01*
X156700187Y-113796839D02*
X156700187Y-113288839D01*
X156700187Y-113433982D02*
X156736473Y-113361411D01*
X156736473Y-113361411D02*
X156772759Y-113325125D01*
X156772759Y-113325125D02*
X156845330Y-113288839D01*
X156845330Y-113288839D02*
X156917901Y-113288839D01*
X157752472Y-113397696D02*
X158006472Y-113397696D01*
X158115329Y-113796839D02*
X157752472Y-113796839D01*
X157752472Y-113796839D02*
X157752472Y-113034839D01*
X157752472Y-113034839D02*
X158115329Y-113034839D01*
X158768473Y-113796839D02*
X158768473Y-113034839D01*
X158768473Y-113760554D02*
X158695901Y-113796839D01*
X158695901Y-113796839D02*
X158550758Y-113796839D01*
X158550758Y-113796839D02*
X158478187Y-113760554D01*
X158478187Y-113760554D02*
X158441901Y-113724268D01*
X158441901Y-113724268D02*
X158405615Y-113651696D01*
X158405615Y-113651696D02*
X158405615Y-113433982D01*
X158405615Y-113433982D02*
X158441901Y-113361411D01*
X158441901Y-113361411D02*
X158478187Y-113325125D01*
X158478187Y-113325125D02*
X158550758Y-113288839D01*
X158550758Y-113288839D02*
X158695901Y-113288839D01*
X158695901Y-113288839D02*
X158768473Y-113325125D01*
X159457902Y-113288839D02*
X159457902Y-113905696D01*
X159457902Y-113905696D02*
X159421616Y-113978268D01*
X159421616Y-113978268D02*
X159385330Y-114014554D01*
X159385330Y-114014554D02*
X159312759Y-114050839D01*
X159312759Y-114050839D02*
X159203902Y-114050839D01*
X159203902Y-114050839D02*
X159131330Y-114014554D01*
X159457902Y-113760554D02*
X159385330Y-113796839D01*
X159385330Y-113796839D02*
X159240187Y-113796839D01*
X159240187Y-113796839D02*
X159167616Y-113760554D01*
X159167616Y-113760554D02*
X159131330Y-113724268D01*
X159131330Y-113724268D02*
X159095044Y-113651696D01*
X159095044Y-113651696D02*
X159095044Y-113433982D01*
X159095044Y-113433982D02*
X159131330Y-113361411D01*
X159131330Y-113361411D02*
X159167616Y-113325125D01*
X159167616Y-113325125D02*
X159240187Y-113288839D01*
X159240187Y-113288839D02*
X159385330Y-113288839D01*
X159385330Y-113288839D02*
X159457902Y-113325125D01*
X160111045Y-113760554D02*
X160038473Y-113796839D01*
X160038473Y-113796839D02*
X159893331Y-113796839D01*
X159893331Y-113796839D02*
X159820759Y-113760554D01*
X159820759Y-113760554D02*
X159784473Y-113687982D01*
X159784473Y-113687982D02*
X159784473Y-113397696D01*
X159784473Y-113397696D02*
X159820759Y-113325125D01*
X159820759Y-113325125D02*
X159893331Y-113288839D01*
X159893331Y-113288839D02*
X160038473Y-113288839D01*
X160038473Y-113288839D02*
X160111045Y-113325125D01*
X160111045Y-113325125D02*
X160147331Y-113397696D01*
X160147331Y-113397696D02*
X160147331Y-113470268D01*
X160147331Y-113470268D02*
X159784473Y-113542839D01*
X161054473Y-113796839D02*
X161054473Y-113034839D01*
X161054473Y-113034839D02*
X161235902Y-113034839D01*
X161235902Y-113034839D02*
X161344759Y-113071125D01*
X161344759Y-113071125D02*
X161417330Y-113143696D01*
X161417330Y-113143696D02*
X161453616Y-113216268D01*
X161453616Y-113216268D02*
X161489902Y-113361411D01*
X161489902Y-113361411D02*
X161489902Y-113470268D01*
X161489902Y-113470268D02*
X161453616Y-113615411D01*
X161453616Y-113615411D02*
X161417330Y-113687982D01*
X161417330Y-113687982D02*
X161344759Y-113760554D01*
X161344759Y-113760554D02*
X161235902Y-113796839D01*
X161235902Y-113796839D02*
X161054473Y-113796839D01*
X162106759Y-113760554D02*
X162034187Y-113796839D01*
X162034187Y-113796839D02*
X161889045Y-113796839D01*
X161889045Y-113796839D02*
X161816473Y-113760554D01*
X161816473Y-113760554D02*
X161780187Y-113687982D01*
X161780187Y-113687982D02*
X161780187Y-113397696D01*
X161780187Y-113397696D02*
X161816473Y-113325125D01*
X161816473Y-113325125D02*
X161889045Y-113288839D01*
X161889045Y-113288839D02*
X162034187Y-113288839D01*
X162034187Y-113288839D02*
X162106759Y-113325125D01*
X162106759Y-113325125D02*
X162143045Y-113397696D01*
X162143045Y-113397696D02*
X162143045Y-113470268D01*
X162143045Y-113470268D02*
X161780187Y-113542839D01*
X162397045Y-113288839D02*
X162578473Y-113796839D01*
X162578473Y-113796839D02*
X162759902Y-113288839D01*
X163050187Y-113796839D02*
X163050187Y-113288839D01*
X163050187Y-113034839D02*
X163013901Y-113071125D01*
X163013901Y-113071125D02*
X163050187Y-113107411D01*
X163050187Y-113107411D02*
X163086473Y-113071125D01*
X163086473Y-113071125D02*
X163050187Y-113034839D01*
X163050187Y-113034839D02*
X163050187Y-113107411D01*
X163739616Y-113760554D02*
X163667044Y-113796839D01*
X163667044Y-113796839D02*
X163521901Y-113796839D01*
X163521901Y-113796839D02*
X163449330Y-113760554D01*
X163449330Y-113760554D02*
X163413044Y-113724268D01*
X163413044Y-113724268D02*
X163376758Y-113651696D01*
X163376758Y-113651696D02*
X163376758Y-113433982D01*
X163376758Y-113433982D02*
X163413044Y-113361411D01*
X163413044Y-113361411D02*
X163449330Y-113325125D01*
X163449330Y-113325125D02*
X163521901Y-113288839D01*
X163521901Y-113288839D02*
X163667044Y-113288839D01*
X163667044Y-113288839D02*
X163739616Y-113325125D01*
X164356473Y-113760554D02*
X164283901Y-113796839D01*
X164283901Y-113796839D02*
X164138759Y-113796839D01*
X164138759Y-113796839D02*
X164066187Y-113760554D01*
X164066187Y-113760554D02*
X164029901Y-113687982D01*
X164029901Y-113687982D02*
X164029901Y-113397696D01*
X164029901Y-113397696D02*
X164066187Y-113325125D01*
X164066187Y-113325125D02*
X164138759Y-113288839D01*
X164138759Y-113288839D02*
X164283901Y-113288839D01*
X164283901Y-113288839D02*
X164356473Y-113325125D01*
X164356473Y-113325125D02*
X164392759Y-113397696D01*
X164392759Y-113397696D02*
X164392759Y-113470268D01*
X164392759Y-113470268D02*
X164029901Y-113542839D01*
D11*
X126519047Y-114348619D02*
X126471428Y-114324809D01*
X126471428Y-114324809D02*
X126399999Y-114324809D01*
X126399999Y-114324809D02*
X126328571Y-114348619D01*
X126328571Y-114348619D02*
X126280952Y-114396238D01*
X126280952Y-114396238D02*
X126257142Y-114443857D01*
X126257142Y-114443857D02*
X126233333Y-114539095D01*
X126233333Y-114539095D02*
X126233333Y-114610523D01*
X126233333Y-114610523D02*
X126257142Y-114705761D01*
X126257142Y-114705761D02*
X126280952Y-114753380D01*
X126280952Y-114753380D02*
X126328571Y-114801000D01*
X126328571Y-114801000D02*
X126399999Y-114824809D01*
X126399999Y-114824809D02*
X126447618Y-114824809D01*
X126447618Y-114824809D02*
X126519047Y-114801000D01*
X126519047Y-114801000D02*
X126542856Y-114777190D01*
X126542856Y-114777190D02*
X126542856Y-114610523D01*
X126542856Y-114610523D02*
X126447618Y-114610523D01*
X126757142Y-114824809D02*
X126757142Y-114324809D01*
X126757142Y-114324809D02*
X127042856Y-114824809D01*
X127042856Y-114824809D02*
X127042856Y-114324809D01*
X127280952Y-114824809D02*
X127280952Y-114324809D01*
X127280952Y-114324809D02*
X127400000Y-114324809D01*
X127400000Y-114324809D02*
X127471428Y-114348619D01*
X127471428Y-114348619D02*
X127519047Y-114396238D01*
X127519047Y-114396238D02*
X127542857Y-114443857D01*
X127542857Y-114443857D02*
X127566666Y-114539095D01*
X127566666Y-114539095D02*
X127566666Y-114610523D01*
X127566666Y-114610523D02*
X127542857Y-114705761D01*
X127542857Y-114705761D02*
X127519047Y-114753380D01*
X127519047Y-114753380D02*
X127471428Y-114801000D01*
X127471428Y-114801000D02*
X127400000Y-114824809D01*
X127400000Y-114824809D02*
X127280952Y-114824809D01*
X125121428Y-105374809D02*
X125121428Y-104874809D01*
X125121428Y-104874809D02*
X125288095Y-105231952D01*
X125288095Y-105231952D02*
X125454761Y-104874809D01*
X125454761Y-104874809D02*
X125454761Y-105374809D01*
X125692857Y-105374809D02*
X125692857Y-104874809D01*
X126216666Y-105327190D02*
X126192857Y-105351000D01*
X126192857Y-105351000D02*
X126121428Y-105374809D01*
X126121428Y-105374809D02*
X126073809Y-105374809D01*
X126073809Y-105374809D02*
X126002381Y-105351000D01*
X126002381Y-105351000D02*
X125954762Y-105303380D01*
X125954762Y-105303380D02*
X125930952Y-105255761D01*
X125930952Y-105255761D02*
X125907143Y-105160523D01*
X125907143Y-105160523D02*
X125907143Y-105089095D01*
X125907143Y-105089095D02*
X125930952Y-104993857D01*
X125930952Y-104993857D02*
X125954762Y-104946238D01*
X125954762Y-104946238D02*
X126002381Y-104898619D01*
X126002381Y-104898619D02*
X126073809Y-104874809D01*
X126073809Y-104874809D02*
X126121428Y-104874809D01*
X126121428Y-104874809D02*
X126192857Y-104898619D01*
X126192857Y-104898619D02*
X126216666Y-104922428D01*
X126692857Y-105374809D02*
X126407143Y-105374809D01*
X126550000Y-105374809D02*
X126550000Y-104874809D01*
X126550000Y-104874809D02*
X126502381Y-104946238D01*
X126502381Y-104946238D02*
X126454762Y-104993857D01*
X126454762Y-104993857D02*
X126407143Y-105017666D01*
X127383332Y-104874809D02*
X127478570Y-104874809D01*
X127478570Y-104874809D02*
X127526189Y-104898619D01*
X127526189Y-104898619D02*
X127573808Y-104946238D01*
X127573808Y-104946238D02*
X127597618Y-105041476D01*
X127597618Y-105041476D02*
X127597618Y-105208142D01*
X127597618Y-105208142D02*
X127573808Y-105303380D01*
X127573808Y-105303380D02*
X127526189Y-105351000D01*
X127526189Y-105351000D02*
X127478570Y-105374809D01*
X127478570Y-105374809D02*
X127383332Y-105374809D01*
X127383332Y-105374809D02*
X127335713Y-105351000D01*
X127335713Y-105351000D02*
X127288094Y-105303380D01*
X127288094Y-105303380D02*
X127264285Y-105208142D01*
X127264285Y-105208142D02*
X127264285Y-105041476D01*
X127264285Y-105041476D02*
X127288094Y-104946238D01*
X127288094Y-104946238D02*
X127335713Y-104898619D01*
X127335713Y-104898619D02*
X127383332Y-104874809D01*
X127811904Y-104874809D02*
X127811904Y-105279571D01*
X127811904Y-105279571D02*
X127835714Y-105327190D01*
X127835714Y-105327190D02*
X127859523Y-105351000D01*
X127859523Y-105351000D02*
X127907142Y-105374809D01*
X127907142Y-105374809D02*
X128002380Y-105374809D01*
X128002380Y-105374809D02*
X128049999Y-105351000D01*
X128049999Y-105351000D02*
X128073809Y-105327190D01*
X128073809Y-105327190D02*
X128097618Y-105279571D01*
X128097618Y-105279571D02*
X128097618Y-104874809D01*
X128264286Y-104874809D02*
X128550000Y-104874809D01*
X128407143Y-105374809D02*
X128407143Y-104874809D01*
X116807143Y-88862904D02*
X116640476Y-88862904D01*
X116640476Y-89124809D02*
X116640476Y-88624809D01*
X116640476Y-88624809D02*
X116878571Y-88624809D01*
X117045238Y-89101000D02*
X117116666Y-89124809D01*
X117116666Y-89124809D02*
X117235714Y-89124809D01*
X117235714Y-89124809D02*
X117283333Y-89101000D01*
X117283333Y-89101000D02*
X117307142Y-89077190D01*
X117307142Y-89077190D02*
X117330952Y-89029571D01*
X117330952Y-89029571D02*
X117330952Y-88981952D01*
X117330952Y-88981952D02*
X117307142Y-88934333D01*
X117307142Y-88934333D02*
X117283333Y-88910523D01*
X117283333Y-88910523D02*
X117235714Y-88886714D01*
X117235714Y-88886714D02*
X117140476Y-88862904D01*
X117140476Y-88862904D02*
X117092857Y-88839095D01*
X117092857Y-88839095D02*
X117069047Y-88815285D01*
X117069047Y-88815285D02*
X117045238Y-88767666D01*
X117045238Y-88767666D02*
X117045238Y-88720047D01*
X117045238Y-88720047D02*
X117069047Y-88672428D01*
X117069047Y-88672428D02*
X117092857Y-88648619D01*
X117092857Y-88648619D02*
X117140476Y-88624809D01*
X117140476Y-88624809D02*
X117259523Y-88624809D01*
X117259523Y-88624809D02*
X117330952Y-88648619D01*
X117640475Y-88886714D02*
X117640475Y-89124809D01*
X117473809Y-88624809D02*
X117640475Y-88886714D01*
X117640475Y-88886714D02*
X117807142Y-88624809D01*
X117973808Y-89124809D02*
X117973808Y-88624809D01*
X117973808Y-88624809D02*
X118259522Y-89124809D01*
X118259522Y-89124809D02*
X118259522Y-88624809D01*
X118783332Y-89077190D02*
X118759523Y-89101000D01*
X118759523Y-89101000D02*
X118688094Y-89124809D01*
X118688094Y-89124809D02*
X118640475Y-89124809D01*
X118640475Y-89124809D02*
X118569047Y-89101000D01*
X118569047Y-89101000D02*
X118521428Y-89053380D01*
X118521428Y-89053380D02*
X118497618Y-89005761D01*
X118497618Y-89005761D02*
X118473809Y-88910523D01*
X118473809Y-88910523D02*
X118473809Y-88839095D01*
X118473809Y-88839095D02*
X118497618Y-88743857D01*
X118497618Y-88743857D02*
X118521428Y-88696238D01*
X118521428Y-88696238D02*
X118569047Y-88648619D01*
X118569047Y-88648619D02*
X118640475Y-88624809D01*
X118640475Y-88624809D02*
X118688094Y-88624809D01*
X118688094Y-88624809D02*
X118759523Y-88648619D01*
X118759523Y-88648619D02*
X118783332Y-88672428D01*
X120961905Y-114324809D02*
X121271429Y-114324809D01*
X121271429Y-114324809D02*
X121104762Y-114515285D01*
X121104762Y-114515285D02*
X121176191Y-114515285D01*
X121176191Y-114515285D02*
X121223810Y-114539095D01*
X121223810Y-114539095D02*
X121247619Y-114562904D01*
X121247619Y-114562904D02*
X121271429Y-114610523D01*
X121271429Y-114610523D02*
X121271429Y-114729571D01*
X121271429Y-114729571D02*
X121247619Y-114777190D01*
X121247619Y-114777190D02*
X121223810Y-114801000D01*
X121223810Y-114801000D02*
X121176191Y-114824809D01*
X121176191Y-114824809D02*
X121033334Y-114824809D01*
X121033334Y-114824809D02*
X120985715Y-114801000D01*
X120985715Y-114801000D02*
X120961905Y-114777190D01*
X121485714Y-114777190D02*
X121509524Y-114801000D01*
X121509524Y-114801000D02*
X121485714Y-114824809D01*
X121485714Y-114824809D02*
X121461905Y-114801000D01*
X121461905Y-114801000D02*
X121485714Y-114777190D01*
X121485714Y-114777190D02*
X121485714Y-114824809D01*
X121676190Y-114324809D02*
X121985714Y-114324809D01*
X121985714Y-114324809D02*
X121819047Y-114515285D01*
X121819047Y-114515285D02*
X121890476Y-114515285D01*
X121890476Y-114515285D02*
X121938095Y-114539095D01*
X121938095Y-114539095D02*
X121961904Y-114562904D01*
X121961904Y-114562904D02*
X121985714Y-114610523D01*
X121985714Y-114610523D02*
X121985714Y-114729571D01*
X121985714Y-114729571D02*
X121961904Y-114777190D01*
X121961904Y-114777190D02*
X121938095Y-114801000D01*
X121938095Y-114801000D02*
X121890476Y-114824809D01*
X121890476Y-114824809D02*
X121747619Y-114824809D01*
X121747619Y-114824809D02*
X121700000Y-114801000D01*
X121700000Y-114801000D02*
X121676190Y-114777190D01*
X122128571Y-114324809D02*
X122295237Y-114824809D01*
X122295237Y-114824809D02*
X122461904Y-114324809D01*
X95809523Y-102734333D02*
X96190476Y-102734333D01*
X152019047Y-107048619D02*
X151971428Y-107024809D01*
X151971428Y-107024809D02*
X151899999Y-107024809D01*
X151899999Y-107024809D02*
X151828571Y-107048619D01*
X151828571Y-107048619D02*
X151780952Y-107096238D01*
X151780952Y-107096238D02*
X151757142Y-107143857D01*
X151757142Y-107143857D02*
X151733333Y-107239095D01*
X151733333Y-107239095D02*
X151733333Y-107310523D01*
X151733333Y-107310523D02*
X151757142Y-107405761D01*
X151757142Y-107405761D02*
X151780952Y-107453380D01*
X151780952Y-107453380D02*
X151828571Y-107501000D01*
X151828571Y-107501000D02*
X151899999Y-107524809D01*
X151899999Y-107524809D02*
X151947618Y-107524809D01*
X151947618Y-107524809D02*
X152019047Y-107501000D01*
X152019047Y-107501000D02*
X152042856Y-107477190D01*
X152042856Y-107477190D02*
X152042856Y-107310523D01*
X152042856Y-107310523D02*
X151947618Y-107310523D01*
X152257142Y-107524809D02*
X152257142Y-107024809D01*
X152257142Y-107024809D02*
X152542856Y-107524809D01*
X152542856Y-107524809D02*
X152542856Y-107024809D01*
X152780952Y-107524809D02*
X152780952Y-107024809D01*
X152780952Y-107024809D02*
X152900000Y-107024809D01*
X152900000Y-107024809D02*
X152971428Y-107048619D01*
X152971428Y-107048619D02*
X153019047Y-107096238D01*
X153019047Y-107096238D02*
X153042857Y-107143857D01*
X153042857Y-107143857D02*
X153066666Y-107239095D01*
X153066666Y-107239095D02*
X153066666Y-107310523D01*
X153066666Y-107310523D02*
X153042857Y-107405761D01*
X153042857Y-107405761D02*
X153019047Y-107453380D01*
X153019047Y-107453380D02*
X152971428Y-107501000D01*
X152971428Y-107501000D02*
X152900000Y-107524809D01*
X152900000Y-107524809D02*
X152780952Y-107524809D01*
X95809523Y-100834333D02*
X96190476Y-100834333D01*
X95999999Y-101024809D02*
X95999999Y-100643857D01*
X117033333Y-92262904D02*
X117104761Y-92286714D01*
X117104761Y-92286714D02*
X117128571Y-92310523D01*
X117128571Y-92310523D02*
X117152380Y-92358142D01*
X117152380Y-92358142D02*
X117152380Y-92429571D01*
X117152380Y-92429571D02*
X117128571Y-92477190D01*
X117128571Y-92477190D02*
X117104761Y-92501000D01*
X117104761Y-92501000D02*
X117057142Y-92524809D01*
X117057142Y-92524809D02*
X116866666Y-92524809D01*
X116866666Y-92524809D02*
X116866666Y-92024809D01*
X116866666Y-92024809D02*
X117033333Y-92024809D01*
X117033333Y-92024809D02*
X117080952Y-92048619D01*
X117080952Y-92048619D02*
X117104761Y-92072428D01*
X117104761Y-92072428D02*
X117128571Y-92120047D01*
X117128571Y-92120047D02*
X117128571Y-92167666D01*
X117128571Y-92167666D02*
X117104761Y-92215285D01*
X117104761Y-92215285D02*
X117080952Y-92239095D01*
X117080952Y-92239095D02*
X117033333Y-92262904D01*
X117033333Y-92262904D02*
X116866666Y-92262904D01*
X117652380Y-92477190D02*
X117628571Y-92501000D01*
X117628571Y-92501000D02*
X117557142Y-92524809D01*
X117557142Y-92524809D02*
X117509523Y-92524809D01*
X117509523Y-92524809D02*
X117438095Y-92501000D01*
X117438095Y-92501000D02*
X117390476Y-92453380D01*
X117390476Y-92453380D02*
X117366666Y-92405761D01*
X117366666Y-92405761D02*
X117342857Y-92310523D01*
X117342857Y-92310523D02*
X117342857Y-92239095D01*
X117342857Y-92239095D02*
X117366666Y-92143857D01*
X117366666Y-92143857D02*
X117390476Y-92096238D01*
X117390476Y-92096238D02*
X117438095Y-92048619D01*
X117438095Y-92048619D02*
X117509523Y-92024809D01*
X117509523Y-92024809D02*
X117557142Y-92024809D01*
X117557142Y-92024809D02*
X117628571Y-92048619D01*
X117628571Y-92048619D02*
X117652380Y-92072428D01*
X118104761Y-92524809D02*
X117866666Y-92524809D01*
X117866666Y-92524809D02*
X117866666Y-92024809D01*
X118271428Y-92524809D02*
X118271428Y-92024809D01*
X118557142Y-92524809D02*
X118342857Y-92239095D01*
X118557142Y-92024809D02*
X118271428Y-92310523D01*
X116292857Y-96701000D02*
X116364285Y-96724809D01*
X116364285Y-96724809D02*
X116483333Y-96724809D01*
X116483333Y-96724809D02*
X116530952Y-96701000D01*
X116530952Y-96701000D02*
X116554761Y-96677190D01*
X116554761Y-96677190D02*
X116578571Y-96629571D01*
X116578571Y-96629571D02*
X116578571Y-96581952D01*
X116578571Y-96581952D02*
X116554761Y-96534333D01*
X116554761Y-96534333D02*
X116530952Y-96510523D01*
X116530952Y-96510523D02*
X116483333Y-96486714D01*
X116483333Y-96486714D02*
X116388095Y-96462904D01*
X116388095Y-96462904D02*
X116340476Y-96439095D01*
X116340476Y-96439095D02*
X116316666Y-96415285D01*
X116316666Y-96415285D02*
X116292857Y-96367666D01*
X116292857Y-96367666D02*
X116292857Y-96320047D01*
X116292857Y-96320047D02*
X116316666Y-96272428D01*
X116316666Y-96272428D02*
X116340476Y-96248619D01*
X116340476Y-96248619D02*
X116388095Y-96224809D01*
X116388095Y-96224809D02*
X116507142Y-96224809D01*
X116507142Y-96224809D02*
X116578571Y-96248619D01*
X116792856Y-96724809D02*
X116792856Y-96224809D01*
X116792856Y-96224809D02*
X116911904Y-96224809D01*
X116911904Y-96224809D02*
X116983332Y-96248619D01*
X116983332Y-96248619D02*
X117030951Y-96296238D01*
X117030951Y-96296238D02*
X117054761Y-96343857D01*
X117054761Y-96343857D02*
X117078570Y-96439095D01*
X117078570Y-96439095D02*
X117078570Y-96510523D01*
X117078570Y-96510523D02*
X117054761Y-96605761D01*
X117054761Y-96605761D02*
X117030951Y-96653380D01*
X117030951Y-96653380D02*
X116983332Y-96701000D01*
X116983332Y-96701000D02*
X116911904Y-96724809D01*
X116911904Y-96724809D02*
X116792856Y-96724809D01*
X117388094Y-96224809D02*
X117483332Y-96224809D01*
X117483332Y-96224809D02*
X117530951Y-96248619D01*
X117530951Y-96248619D02*
X117578570Y-96296238D01*
X117578570Y-96296238D02*
X117602380Y-96391476D01*
X117602380Y-96391476D02*
X117602380Y-96558142D01*
X117602380Y-96558142D02*
X117578570Y-96653380D01*
X117578570Y-96653380D02*
X117530951Y-96701000D01*
X117530951Y-96701000D02*
X117483332Y-96724809D01*
X117483332Y-96724809D02*
X117388094Y-96724809D01*
X117388094Y-96724809D02*
X117340475Y-96701000D01*
X117340475Y-96701000D02*
X117292856Y-96653380D01*
X117292856Y-96653380D02*
X117269047Y-96558142D01*
X117269047Y-96558142D02*
X117269047Y-96391476D01*
X117269047Y-96391476D02*
X117292856Y-96296238D01*
X117292856Y-96296238D02*
X117340475Y-96248619D01*
X117340475Y-96248619D02*
X117388094Y-96224809D01*
X117816666Y-96224809D02*
X117816666Y-96629571D01*
X117816666Y-96629571D02*
X117840476Y-96677190D01*
X117840476Y-96677190D02*
X117864285Y-96701000D01*
X117864285Y-96701000D02*
X117911904Y-96724809D01*
X117911904Y-96724809D02*
X118007142Y-96724809D01*
X118007142Y-96724809D02*
X118054761Y-96701000D01*
X118054761Y-96701000D02*
X118078571Y-96677190D01*
X118078571Y-96677190D02*
X118102380Y-96629571D01*
X118102380Y-96629571D02*
X118102380Y-96224809D01*
X118269048Y-96224809D02*
X118554762Y-96224809D01*
X118411905Y-96724809D02*
X118411905Y-96224809D01*
X119345238Y-81501000D02*
X119416666Y-81524809D01*
X119416666Y-81524809D02*
X119535714Y-81524809D01*
X119535714Y-81524809D02*
X119583333Y-81501000D01*
X119583333Y-81501000D02*
X119607142Y-81477190D01*
X119607142Y-81477190D02*
X119630952Y-81429571D01*
X119630952Y-81429571D02*
X119630952Y-81381952D01*
X119630952Y-81381952D02*
X119607142Y-81334333D01*
X119607142Y-81334333D02*
X119583333Y-81310523D01*
X119583333Y-81310523D02*
X119535714Y-81286714D01*
X119535714Y-81286714D02*
X119440476Y-81262904D01*
X119440476Y-81262904D02*
X119392857Y-81239095D01*
X119392857Y-81239095D02*
X119369047Y-81215285D01*
X119369047Y-81215285D02*
X119345238Y-81167666D01*
X119345238Y-81167666D02*
X119345238Y-81120047D01*
X119345238Y-81120047D02*
X119369047Y-81072428D01*
X119369047Y-81072428D02*
X119392857Y-81048619D01*
X119392857Y-81048619D02*
X119440476Y-81024809D01*
X119440476Y-81024809D02*
X119559523Y-81024809D01*
X119559523Y-81024809D02*
X119630952Y-81048619D01*
X119845237Y-81524809D02*
X119845237Y-81024809D01*
X119845237Y-81262904D02*
X120130951Y-81262904D01*
X120130951Y-81524809D02*
X120130951Y-81024809D01*
X120369047Y-81524809D02*
X120369047Y-81024809D01*
X120369047Y-81024809D02*
X120488095Y-81024809D01*
X120488095Y-81024809D02*
X120559523Y-81048619D01*
X120559523Y-81048619D02*
X120607142Y-81096238D01*
X120607142Y-81096238D02*
X120630952Y-81143857D01*
X120630952Y-81143857D02*
X120654761Y-81239095D01*
X120654761Y-81239095D02*
X120654761Y-81310523D01*
X120654761Y-81310523D02*
X120630952Y-81405761D01*
X120630952Y-81405761D02*
X120607142Y-81453380D01*
X120607142Y-81453380D02*
X120559523Y-81501000D01*
X120559523Y-81501000D02*
X120488095Y-81524809D01*
X120488095Y-81524809D02*
X120369047Y-81524809D01*
X120869047Y-81524809D02*
X120869047Y-81024809D01*
X120869047Y-81024809D02*
X121154761Y-81524809D01*
X121154761Y-81524809D02*
X121154761Y-81024809D01*
X121345238Y-81024809D02*
X121678571Y-81024809D01*
X121678571Y-81024809D02*
X121345238Y-81524809D01*
X121345238Y-81524809D02*
X121678571Y-81524809D01*
X121347619Y-105274809D02*
X121347619Y-104774809D01*
X121585714Y-105274809D02*
X121585714Y-104774809D01*
X121585714Y-104774809D02*
X121871428Y-105274809D01*
X121871428Y-105274809D02*
X121871428Y-104774809D01*
X122038096Y-104774809D02*
X122323810Y-104774809D01*
X122180953Y-105274809D02*
X122180953Y-104774809D01*
X140254762Y-100624809D02*
X140254762Y-100124809D01*
X140254762Y-100124809D02*
X140421429Y-100481952D01*
X140421429Y-100481952D02*
X140588095Y-100124809D01*
X140588095Y-100124809D02*
X140588095Y-100624809D01*
X140826191Y-100624809D02*
X140826191Y-100124809D01*
X141350000Y-100577190D02*
X141326191Y-100601000D01*
X141326191Y-100601000D02*
X141254762Y-100624809D01*
X141254762Y-100624809D02*
X141207143Y-100624809D01*
X141207143Y-100624809D02*
X141135715Y-100601000D01*
X141135715Y-100601000D02*
X141088096Y-100553380D01*
X141088096Y-100553380D02*
X141064286Y-100505761D01*
X141064286Y-100505761D02*
X141040477Y-100410523D01*
X141040477Y-100410523D02*
X141040477Y-100339095D01*
X141040477Y-100339095D02*
X141064286Y-100243857D01*
X141064286Y-100243857D02*
X141088096Y-100196238D01*
X141088096Y-100196238D02*
X141135715Y-100148619D01*
X141135715Y-100148619D02*
X141207143Y-100124809D01*
X141207143Y-100124809D02*
X141254762Y-100124809D01*
X141254762Y-100124809D02*
X141326191Y-100148619D01*
X141326191Y-100148619D02*
X141350000Y-100172428D01*
X141826191Y-100624809D02*
X141540477Y-100624809D01*
X141683334Y-100624809D02*
X141683334Y-100124809D01*
X141683334Y-100124809D02*
X141635715Y-100196238D01*
X141635715Y-100196238D02*
X141588096Y-100243857D01*
X141588096Y-100243857D02*
X141540477Y-100267666D01*
X142421428Y-100624809D02*
X142421428Y-100124809D01*
X142659523Y-100624809D02*
X142659523Y-100124809D01*
X142659523Y-100124809D02*
X142945237Y-100624809D01*
X142945237Y-100624809D02*
X142945237Y-100124809D01*
X112969048Y-114774809D02*
X113135714Y-115274809D01*
X113135714Y-115274809D02*
X113302381Y-114774809D01*
X113445238Y-115131952D02*
X113683333Y-115131952D01*
X113397619Y-115274809D02*
X113564285Y-114774809D01*
X113564285Y-114774809D02*
X113730952Y-115274809D01*
X158154762Y-103624809D02*
X157916667Y-103624809D01*
X157916667Y-103624809D02*
X157892858Y-103862904D01*
X157892858Y-103862904D02*
X157916667Y-103839095D01*
X157916667Y-103839095D02*
X157964286Y-103815285D01*
X157964286Y-103815285D02*
X158083334Y-103815285D01*
X158083334Y-103815285D02*
X158130953Y-103839095D01*
X158130953Y-103839095D02*
X158154762Y-103862904D01*
X158154762Y-103862904D02*
X158178572Y-103910523D01*
X158178572Y-103910523D02*
X158178572Y-104029571D01*
X158178572Y-104029571D02*
X158154762Y-104077190D01*
X158154762Y-104077190D02*
X158130953Y-104101000D01*
X158130953Y-104101000D02*
X158083334Y-104124809D01*
X158083334Y-104124809D02*
X157964286Y-104124809D01*
X157964286Y-104124809D02*
X157916667Y-104101000D01*
X157916667Y-104101000D02*
X157892858Y-104077190D01*
X158321429Y-103624809D02*
X158488095Y-104124809D01*
X158488095Y-104124809D02*
X158654762Y-103624809D01*
X162569047Y-103648619D02*
X162521428Y-103624809D01*
X162521428Y-103624809D02*
X162449999Y-103624809D01*
X162449999Y-103624809D02*
X162378571Y-103648619D01*
X162378571Y-103648619D02*
X162330952Y-103696238D01*
X162330952Y-103696238D02*
X162307142Y-103743857D01*
X162307142Y-103743857D02*
X162283333Y-103839095D01*
X162283333Y-103839095D02*
X162283333Y-103910523D01*
X162283333Y-103910523D02*
X162307142Y-104005761D01*
X162307142Y-104005761D02*
X162330952Y-104053380D01*
X162330952Y-104053380D02*
X162378571Y-104101000D01*
X162378571Y-104101000D02*
X162449999Y-104124809D01*
X162449999Y-104124809D02*
X162497618Y-104124809D01*
X162497618Y-104124809D02*
X162569047Y-104101000D01*
X162569047Y-104101000D02*
X162592856Y-104077190D01*
X162592856Y-104077190D02*
X162592856Y-103910523D01*
X162592856Y-103910523D02*
X162497618Y-103910523D01*
X162807142Y-104124809D02*
X162807142Y-103624809D01*
X162807142Y-103624809D02*
X163092856Y-104124809D01*
X163092856Y-104124809D02*
X163092856Y-103624809D01*
X163330952Y-104124809D02*
X163330952Y-103624809D01*
X163330952Y-103624809D02*
X163450000Y-103624809D01*
X163450000Y-103624809D02*
X163521428Y-103648619D01*
X163521428Y-103648619D02*
X163569047Y-103696238D01*
X163569047Y-103696238D02*
X163592857Y-103743857D01*
X163592857Y-103743857D02*
X163616666Y-103839095D01*
X163616666Y-103839095D02*
X163616666Y-103910523D01*
X163616666Y-103910523D02*
X163592857Y-104005761D01*
X163592857Y-104005761D02*
X163569047Y-104053380D01*
X163569047Y-104053380D02*
X163521428Y-104101000D01*
X163521428Y-104101000D02*
X163450000Y-104124809D01*
X163450000Y-104124809D02*
X163330952Y-104124809D01*
X155459523Y-80384333D02*
X155840476Y-80384333D01*
X155649999Y-80574809D02*
X155649999Y-80193857D01*
X153359523Y-80234333D02*
X153740476Y-80234333D01*
X151242857Y-100724809D02*
X151242857Y-100224809D01*
X151242857Y-100224809D02*
X151409524Y-100581952D01*
X151409524Y-100581952D02*
X151576190Y-100224809D01*
X151576190Y-100224809D02*
X151576190Y-100724809D01*
X151814286Y-100724809D02*
X151814286Y-100224809D01*
X152338095Y-100677190D02*
X152314286Y-100701000D01*
X152314286Y-100701000D02*
X152242857Y-100724809D01*
X152242857Y-100724809D02*
X152195238Y-100724809D01*
X152195238Y-100724809D02*
X152123810Y-100701000D01*
X152123810Y-100701000D02*
X152076191Y-100653380D01*
X152076191Y-100653380D02*
X152052381Y-100605761D01*
X152052381Y-100605761D02*
X152028572Y-100510523D01*
X152028572Y-100510523D02*
X152028572Y-100439095D01*
X152028572Y-100439095D02*
X152052381Y-100343857D01*
X152052381Y-100343857D02*
X152076191Y-100296238D01*
X152076191Y-100296238D02*
X152123810Y-100248619D01*
X152123810Y-100248619D02*
X152195238Y-100224809D01*
X152195238Y-100224809D02*
X152242857Y-100224809D01*
X152242857Y-100224809D02*
X152314286Y-100248619D01*
X152314286Y-100248619D02*
X152338095Y-100272428D01*
X152933333Y-100724809D02*
X152933333Y-100224809D01*
X153171428Y-100724809D02*
X153171428Y-100224809D01*
X153171428Y-100224809D02*
X153457142Y-100724809D01*
X153457142Y-100724809D02*
X153457142Y-100224809D01*
X144347619Y-87524809D02*
X144347619Y-87024809D01*
X144585714Y-87524809D02*
X144585714Y-87024809D01*
X144585714Y-87024809D02*
X144871428Y-87524809D01*
X144871428Y-87524809D02*
X144871428Y-87024809D01*
X145038096Y-87024809D02*
X145323810Y-87024809D01*
X145180953Y-87524809D02*
X145180953Y-87024809D01*
D12*
X109133333Y-77909580D02*
X109085714Y-77957200D01*
X109085714Y-77957200D02*
X108942857Y-78004819D01*
X108942857Y-78004819D02*
X108847619Y-78004819D01*
X108847619Y-78004819D02*
X108704762Y-77957200D01*
X108704762Y-77957200D02*
X108609524Y-77861961D01*
X108609524Y-77861961D02*
X108561905Y-77766723D01*
X108561905Y-77766723D02*
X108514286Y-77576247D01*
X108514286Y-77576247D02*
X108514286Y-77433390D01*
X108514286Y-77433390D02*
X108561905Y-77242914D01*
X108561905Y-77242914D02*
X108609524Y-77147676D01*
X108609524Y-77147676D02*
X108704762Y-77052438D01*
X108704762Y-77052438D02*
X108847619Y-77004819D01*
X108847619Y-77004819D02*
X108942857Y-77004819D01*
X108942857Y-77004819D02*
X109085714Y-77052438D01*
X109085714Y-77052438D02*
X109133333Y-77100057D01*
X109514286Y-77100057D02*
X109561905Y-77052438D01*
X109561905Y-77052438D02*
X109657143Y-77004819D01*
X109657143Y-77004819D02*
X109895238Y-77004819D01*
X109895238Y-77004819D02*
X109990476Y-77052438D01*
X109990476Y-77052438D02*
X110038095Y-77100057D01*
X110038095Y-77100057D02*
X110085714Y-77195295D01*
X110085714Y-77195295D02*
X110085714Y-77290533D01*
X110085714Y-77290533D02*
X110038095Y-77433390D01*
X110038095Y-77433390D02*
X109466667Y-78004819D01*
X109466667Y-78004819D02*
X110085714Y-78004819D01*
X148507142Y-86709580D02*
X148459523Y-86757200D01*
X148459523Y-86757200D02*
X148316666Y-86804819D01*
X148316666Y-86804819D02*
X148221428Y-86804819D01*
X148221428Y-86804819D02*
X148078571Y-86757200D01*
X148078571Y-86757200D02*
X147983333Y-86661961D01*
X147983333Y-86661961D02*
X147935714Y-86566723D01*
X147935714Y-86566723D02*
X147888095Y-86376247D01*
X147888095Y-86376247D02*
X147888095Y-86233390D01*
X147888095Y-86233390D02*
X147935714Y-86042914D01*
X147935714Y-86042914D02*
X147983333Y-85947676D01*
X147983333Y-85947676D02*
X148078571Y-85852438D01*
X148078571Y-85852438D02*
X148221428Y-85804819D01*
X148221428Y-85804819D02*
X148316666Y-85804819D01*
X148316666Y-85804819D02*
X148459523Y-85852438D01*
X148459523Y-85852438D02*
X148507142Y-85900057D01*
X149459523Y-86804819D02*
X148888095Y-86804819D01*
X149173809Y-86804819D02*
X149173809Y-85804819D01*
X149173809Y-85804819D02*
X149078571Y-85947676D01*
X149078571Y-85947676D02*
X148983333Y-86042914D01*
X148983333Y-86042914D02*
X148888095Y-86090533D01*
X150030952Y-86233390D02*
X149935714Y-86185771D01*
X149935714Y-86185771D02*
X149888095Y-86138152D01*
X149888095Y-86138152D02*
X149840476Y-86042914D01*
X149840476Y-86042914D02*
X149840476Y-85995295D01*
X149840476Y-85995295D02*
X149888095Y-85900057D01*
X149888095Y-85900057D02*
X149935714Y-85852438D01*
X149935714Y-85852438D02*
X150030952Y-85804819D01*
X150030952Y-85804819D02*
X150221428Y-85804819D01*
X150221428Y-85804819D02*
X150316666Y-85852438D01*
X150316666Y-85852438D02*
X150364285Y-85900057D01*
X150364285Y-85900057D02*
X150411904Y-85995295D01*
X150411904Y-85995295D02*
X150411904Y-86042914D01*
X150411904Y-86042914D02*
X150364285Y-86138152D01*
X150364285Y-86138152D02*
X150316666Y-86185771D01*
X150316666Y-86185771D02*
X150221428Y-86233390D01*
X150221428Y-86233390D02*
X150030952Y-86233390D01*
X150030952Y-86233390D02*
X149935714Y-86281009D01*
X149935714Y-86281009D02*
X149888095Y-86328628D01*
X149888095Y-86328628D02*
X149840476Y-86423866D01*
X149840476Y-86423866D02*
X149840476Y-86614342D01*
X149840476Y-86614342D02*
X149888095Y-86709580D01*
X149888095Y-86709580D02*
X149935714Y-86757200D01*
X149935714Y-86757200D02*
X150030952Y-86804819D01*
X150030952Y-86804819D02*
X150221428Y-86804819D01*
X150221428Y-86804819D02*
X150316666Y-86757200D01*
X150316666Y-86757200D02*
X150364285Y-86709580D01*
X150364285Y-86709580D02*
X150411904Y-86614342D01*
X150411904Y-86614342D02*
X150411904Y-86423866D01*
X150411904Y-86423866D02*
X150364285Y-86328628D01*
X150364285Y-86328628D02*
X150316666Y-86281009D01*
X150316666Y-86281009D02*
X150221428Y-86233390D01*
X110907142Y-99579580D02*
X110859523Y-99627200D01*
X110859523Y-99627200D02*
X110716666Y-99674819D01*
X110716666Y-99674819D02*
X110621428Y-99674819D01*
X110621428Y-99674819D02*
X110478571Y-99627200D01*
X110478571Y-99627200D02*
X110383333Y-99531961D01*
X110383333Y-99531961D02*
X110335714Y-99436723D01*
X110335714Y-99436723D02*
X110288095Y-99246247D01*
X110288095Y-99246247D02*
X110288095Y-99103390D01*
X110288095Y-99103390D02*
X110335714Y-98912914D01*
X110335714Y-98912914D02*
X110383333Y-98817676D01*
X110383333Y-98817676D02*
X110478571Y-98722438D01*
X110478571Y-98722438D02*
X110621428Y-98674819D01*
X110621428Y-98674819D02*
X110716666Y-98674819D01*
X110716666Y-98674819D02*
X110859523Y-98722438D01*
X110859523Y-98722438D02*
X110907142Y-98770057D01*
X111288095Y-98770057D02*
X111335714Y-98722438D01*
X111335714Y-98722438D02*
X111430952Y-98674819D01*
X111430952Y-98674819D02*
X111669047Y-98674819D01*
X111669047Y-98674819D02*
X111764285Y-98722438D01*
X111764285Y-98722438D02*
X111811904Y-98770057D01*
X111811904Y-98770057D02*
X111859523Y-98865295D01*
X111859523Y-98865295D02*
X111859523Y-98960533D01*
X111859523Y-98960533D02*
X111811904Y-99103390D01*
X111811904Y-99103390D02*
X111240476Y-99674819D01*
X111240476Y-99674819D02*
X111859523Y-99674819D01*
X112478571Y-98674819D02*
X112573809Y-98674819D01*
X112573809Y-98674819D02*
X112669047Y-98722438D01*
X112669047Y-98722438D02*
X112716666Y-98770057D01*
X112716666Y-98770057D02*
X112764285Y-98865295D01*
X112764285Y-98865295D02*
X112811904Y-99055771D01*
X112811904Y-99055771D02*
X112811904Y-99293866D01*
X112811904Y-99293866D02*
X112764285Y-99484342D01*
X112764285Y-99484342D02*
X112716666Y-99579580D01*
X112716666Y-99579580D02*
X112669047Y-99627200D01*
X112669047Y-99627200D02*
X112573809Y-99674819D01*
X112573809Y-99674819D02*
X112478571Y-99674819D01*
X112478571Y-99674819D02*
X112383333Y-99627200D01*
X112383333Y-99627200D02*
X112335714Y-99579580D01*
X112335714Y-99579580D02*
X112288095Y-99484342D01*
X112288095Y-99484342D02*
X112240476Y-99293866D01*
X112240476Y-99293866D02*
X112240476Y-99055771D01*
X112240476Y-99055771D02*
X112288095Y-98865295D01*
X112288095Y-98865295D02*
X112335714Y-98770057D01*
X112335714Y-98770057D02*
X112383333Y-98722438D01*
X112383333Y-98722438D02*
X112478571Y-98674819D01*
X151207142Y-82609580D02*
X151159523Y-82657200D01*
X151159523Y-82657200D02*
X151016666Y-82704819D01*
X151016666Y-82704819D02*
X150921428Y-82704819D01*
X150921428Y-82704819D02*
X150778571Y-82657200D01*
X150778571Y-82657200D02*
X150683333Y-82561961D01*
X150683333Y-82561961D02*
X150635714Y-82466723D01*
X150635714Y-82466723D02*
X150588095Y-82276247D01*
X150588095Y-82276247D02*
X150588095Y-82133390D01*
X150588095Y-82133390D02*
X150635714Y-81942914D01*
X150635714Y-81942914D02*
X150683333Y-81847676D01*
X150683333Y-81847676D02*
X150778571Y-81752438D01*
X150778571Y-81752438D02*
X150921428Y-81704819D01*
X150921428Y-81704819D02*
X151016666Y-81704819D01*
X151016666Y-81704819D02*
X151159523Y-81752438D01*
X151159523Y-81752438D02*
X151207142Y-81800057D01*
X152159523Y-82704819D02*
X151588095Y-82704819D01*
X151873809Y-82704819D02*
X151873809Y-81704819D01*
X151873809Y-81704819D02*
X151778571Y-81847676D01*
X151778571Y-81847676D02*
X151683333Y-81942914D01*
X151683333Y-81942914D02*
X151588095Y-81990533D01*
X153064285Y-81704819D02*
X152588095Y-81704819D01*
X152588095Y-81704819D02*
X152540476Y-82181009D01*
X152540476Y-82181009D02*
X152588095Y-82133390D01*
X152588095Y-82133390D02*
X152683333Y-82085771D01*
X152683333Y-82085771D02*
X152921428Y-82085771D01*
X152921428Y-82085771D02*
X153016666Y-82133390D01*
X153016666Y-82133390D02*
X153064285Y-82181009D01*
X153064285Y-82181009D02*
X153111904Y-82276247D01*
X153111904Y-82276247D02*
X153111904Y-82514342D01*
X153111904Y-82514342D02*
X153064285Y-82609580D01*
X153064285Y-82609580D02*
X153016666Y-82657200D01*
X153016666Y-82657200D02*
X152921428Y-82704819D01*
X152921428Y-82704819D02*
X152683333Y-82704819D01*
X152683333Y-82704819D02*
X152588095Y-82657200D01*
X152588095Y-82657200D02*
X152540476Y-82609580D01*
X112033333Y-92959580D02*
X111985714Y-93007200D01*
X111985714Y-93007200D02*
X111842857Y-93054819D01*
X111842857Y-93054819D02*
X111747619Y-93054819D01*
X111747619Y-93054819D02*
X111604762Y-93007200D01*
X111604762Y-93007200D02*
X111509524Y-92911961D01*
X111509524Y-92911961D02*
X111461905Y-92816723D01*
X111461905Y-92816723D02*
X111414286Y-92626247D01*
X111414286Y-92626247D02*
X111414286Y-92483390D01*
X111414286Y-92483390D02*
X111461905Y-92292914D01*
X111461905Y-92292914D02*
X111509524Y-92197676D01*
X111509524Y-92197676D02*
X111604762Y-92102438D01*
X111604762Y-92102438D02*
X111747619Y-92054819D01*
X111747619Y-92054819D02*
X111842857Y-92054819D01*
X111842857Y-92054819D02*
X111985714Y-92102438D01*
X111985714Y-92102438D02*
X112033333Y-92150057D01*
X112985714Y-93054819D02*
X112414286Y-93054819D01*
X112700000Y-93054819D02*
X112700000Y-92054819D01*
X112700000Y-92054819D02*
X112604762Y-92197676D01*
X112604762Y-92197676D02*
X112509524Y-92292914D01*
X112509524Y-92292914D02*
X112414286Y-92340533D01*
X157757142Y-98959580D02*
X157709523Y-99007200D01*
X157709523Y-99007200D02*
X157566666Y-99054819D01*
X157566666Y-99054819D02*
X157471428Y-99054819D01*
X157471428Y-99054819D02*
X157328571Y-99007200D01*
X157328571Y-99007200D02*
X157233333Y-98911961D01*
X157233333Y-98911961D02*
X157185714Y-98816723D01*
X157185714Y-98816723D02*
X157138095Y-98626247D01*
X157138095Y-98626247D02*
X157138095Y-98483390D01*
X157138095Y-98483390D02*
X157185714Y-98292914D01*
X157185714Y-98292914D02*
X157233333Y-98197676D01*
X157233333Y-98197676D02*
X157328571Y-98102438D01*
X157328571Y-98102438D02*
X157471428Y-98054819D01*
X157471428Y-98054819D02*
X157566666Y-98054819D01*
X157566666Y-98054819D02*
X157709523Y-98102438D01*
X157709523Y-98102438D02*
X157757142Y-98150057D01*
X158709523Y-99054819D02*
X158138095Y-99054819D01*
X158423809Y-99054819D02*
X158423809Y-98054819D01*
X158423809Y-98054819D02*
X158328571Y-98197676D01*
X158328571Y-98197676D02*
X158233333Y-98292914D01*
X158233333Y-98292914D02*
X158138095Y-98340533D01*
X159042857Y-98054819D02*
X159709523Y-98054819D01*
X159709523Y-98054819D02*
X159280952Y-99054819D01*
X134507142Y-115859580D02*
X134459523Y-115907200D01*
X134459523Y-115907200D02*
X134316666Y-115954819D01*
X134316666Y-115954819D02*
X134221428Y-115954819D01*
X134221428Y-115954819D02*
X134078571Y-115907200D01*
X134078571Y-115907200D02*
X133983333Y-115811961D01*
X133983333Y-115811961D02*
X133935714Y-115716723D01*
X133935714Y-115716723D02*
X133888095Y-115526247D01*
X133888095Y-115526247D02*
X133888095Y-115383390D01*
X133888095Y-115383390D02*
X133935714Y-115192914D01*
X133935714Y-115192914D02*
X133983333Y-115097676D01*
X133983333Y-115097676D02*
X134078571Y-115002438D01*
X134078571Y-115002438D02*
X134221428Y-114954819D01*
X134221428Y-114954819D02*
X134316666Y-114954819D01*
X134316666Y-114954819D02*
X134459523Y-115002438D01*
X134459523Y-115002438D02*
X134507142Y-115050057D01*
X135459523Y-115954819D02*
X134888095Y-115954819D01*
X135173809Y-115954819D02*
X135173809Y-114954819D01*
X135173809Y-114954819D02*
X135078571Y-115097676D01*
X135078571Y-115097676D02*
X134983333Y-115192914D01*
X134983333Y-115192914D02*
X134888095Y-115240533D01*
X136411904Y-115954819D02*
X135840476Y-115954819D01*
X136126190Y-115954819D02*
X136126190Y-114954819D01*
X136126190Y-114954819D02*
X136030952Y-115097676D01*
X136030952Y-115097676D02*
X135935714Y-115192914D01*
X135935714Y-115192914D02*
X135840476Y-115240533D01*
D13*
X102010237Y-91374318D02*
X102010237Y-90104318D01*
X103340714Y-91253365D02*
X103280238Y-91313842D01*
X103280238Y-91313842D02*
X103098809Y-91374318D01*
X103098809Y-91374318D02*
X102977857Y-91374318D01*
X102977857Y-91374318D02*
X102796428Y-91313842D01*
X102796428Y-91313842D02*
X102675476Y-91192889D01*
X102675476Y-91192889D02*
X102614999Y-91071937D01*
X102614999Y-91071937D02*
X102554523Y-90830032D01*
X102554523Y-90830032D02*
X102554523Y-90648603D01*
X102554523Y-90648603D02*
X102614999Y-90406699D01*
X102614999Y-90406699D02*
X102675476Y-90285746D01*
X102675476Y-90285746D02*
X102796428Y-90164794D01*
X102796428Y-90164794D02*
X102977857Y-90104318D01*
X102977857Y-90104318D02*
X103098809Y-90104318D01*
X103098809Y-90104318D02*
X103280238Y-90164794D01*
X103280238Y-90164794D02*
X103340714Y-90225270D01*
X104550238Y-91374318D02*
X103824523Y-91374318D01*
X104187380Y-91374318D02*
X104187380Y-90104318D01*
X104187380Y-90104318D02*
X104066428Y-90285746D01*
X104066428Y-90285746D02*
X103945476Y-90406699D01*
X103945476Y-90406699D02*
X103824523Y-90467175D01*
D14*
X156974384Y-82477014D02*
X156786907Y-82477014D01*
X156786907Y-82477014D02*
X156786907Y-82083313D01*
X157311841Y-82477014D02*
X157086869Y-82477014D01*
X157199355Y-82477014D02*
X157199355Y-82083313D01*
X157199355Y-82083313D02*
X157161860Y-82139556D01*
X157161860Y-82139556D02*
X157124365Y-82177052D01*
X157124365Y-82177052D02*
X157086869Y-82195799D01*
D12*
X148424999Y-108753210D02*
X148424999Y-107752517D01*
X148424999Y-107752517D02*
X148758563Y-108467297D01*
X148758563Y-108467297D02*
X149092127Y-107752517D01*
X149092127Y-107752517D02*
X149092127Y-108753210D01*
X149568648Y-108753210D02*
X149568648Y-107752517D01*
X150140472Y-108753210D02*
X149711604Y-108181385D01*
X150140472Y-107752517D02*
X149568648Y-108324341D01*
X151093513Y-108753210D02*
X150521689Y-108753210D01*
X150807601Y-108753210D02*
X150807601Y-107752517D01*
X150807601Y-107752517D02*
X150712297Y-107895473D01*
X150712297Y-107895473D02*
X150616993Y-107990777D01*
X150616993Y-107990777D02*
X150521689Y-108038429D01*
X157757142Y-95154819D02*
X157423809Y-94678628D01*
X157185714Y-95154819D02*
X157185714Y-94154819D01*
X157185714Y-94154819D02*
X157566666Y-94154819D01*
X157566666Y-94154819D02*
X157661904Y-94202438D01*
X157661904Y-94202438D02*
X157709523Y-94250057D01*
X157709523Y-94250057D02*
X157757142Y-94345295D01*
X157757142Y-94345295D02*
X157757142Y-94488152D01*
X157757142Y-94488152D02*
X157709523Y-94583390D01*
X157709523Y-94583390D02*
X157661904Y-94631009D01*
X157661904Y-94631009D02*
X157566666Y-94678628D01*
X157566666Y-94678628D02*
X157185714Y-94678628D01*
X158709523Y-95154819D02*
X158138095Y-95154819D01*
X158423809Y-95154819D02*
X158423809Y-94154819D01*
X158423809Y-94154819D02*
X158328571Y-94297676D01*
X158328571Y-94297676D02*
X158233333Y-94392914D01*
X158233333Y-94392914D02*
X158138095Y-94440533D01*
X159328571Y-94154819D02*
X159423809Y-94154819D01*
X159423809Y-94154819D02*
X159519047Y-94202438D01*
X159519047Y-94202438D02*
X159566666Y-94250057D01*
X159566666Y-94250057D02*
X159614285Y-94345295D01*
X159614285Y-94345295D02*
X159661904Y-94535771D01*
X159661904Y-94535771D02*
X159661904Y-94773866D01*
X159661904Y-94773866D02*
X159614285Y-94964342D01*
X159614285Y-94964342D02*
X159566666Y-95059580D01*
X159566666Y-95059580D02*
X159519047Y-95107200D01*
X159519047Y-95107200D02*
X159423809Y-95154819D01*
X159423809Y-95154819D02*
X159328571Y-95154819D01*
X159328571Y-95154819D02*
X159233333Y-95107200D01*
X159233333Y-95107200D02*
X159185714Y-95059580D01*
X159185714Y-95059580D02*
X159138095Y-94964342D01*
X159138095Y-94964342D02*
X159090476Y-94773866D01*
X159090476Y-94773866D02*
X159090476Y-94535771D01*
X159090476Y-94535771D02*
X159138095Y-94345295D01*
X159138095Y-94345295D02*
X159185714Y-94250057D01*
X159185714Y-94250057D02*
X159233333Y-94202438D01*
X159233333Y-94202438D02*
X159328571Y-94154819D01*
X114433333Y-112154819D02*
X114100000Y-111678628D01*
X113861905Y-112154819D02*
X113861905Y-111154819D01*
X113861905Y-111154819D02*
X114242857Y-111154819D01*
X114242857Y-111154819D02*
X114338095Y-111202438D01*
X114338095Y-111202438D02*
X114385714Y-111250057D01*
X114385714Y-111250057D02*
X114433333Y-111345295D01*
X114433333Y-111345295D02*
X114433333Y-111488152D01*
X114433333Y-111488152D02*
X114385714Y-111583390D01*
X114385714Y-111583390D02*
X114338095Y-111631009D01*
X114338095Y-111631009D02*
X114242857Y-111678628D01*
X114242857Y-111678628D02*
X113861905Y-111678628D01*
X115004762Y-111583390D02*
X114909524Y-111535771D01*
X114909524Y-111535771D02*
X114861905Y-111488152D01*
X114861905Y-111488152D02*
X114814286Y-111392914D01*
X114814286Y-111392914D02*
X114814286Y-111345295D01*
X114814286Y-111345295D02*
X114861905Y-111250057D01*
X114861905Y-111250057D02*
X114909524Y-111202438D01*
X114909524Y-111202438D02*
X115004762Y-111154819D01*
X115004762Y-111154819D02*
X115195238Y-111154819D01*
X115195238Y-111154819D02*
X115290476Y-111202438D01*
X115290476Y-111202438D02*
X115338095Y-111250057D01*
X115338095Y-111250057D02*
X115385714Y-111345295D01*
X115385714Y-111345295D02*
X115385714Y-111392914D01*
X115385714Y-111392914D02*
X115338095Y-111488152D01*
X115338095Y-111488152D02*
X115290476Y-111535771D01*
X115290476Y-111535771D02*
X115195238Y-111583390D01*
X115195238Y-111583390D02*
X115004762Y-111583390D01*
X115004762Y-111583390D02*
X114909524Y-111631009D01*
X114909524Y-111631009D02*
X114861905Y-111678628D01*
X114861905Y-111678628D02*
X114814286Y-111773866D01*
X114814286Y-111773866D02*
X114814286Y-111964342D01*
X114814286Y-111964342D02*
X114861905Y-112059580D01*
X114861905Y-112059580D02*
X114909524Y-112107200D01*
X114909524Y-112107200D02*
X115004762Y-112154819D01*
X115004762Y-112154819D02*
X115195238Y-112154819D01*
X115195238Y-112154819D02*
X115290476Y-112107200D01*
X115290476Y-112107200D02*
X115338095Y-112059580D01*
X115338095Y-112059580D02*
X115385714Y-111964342D01*
X115385714Y-111964342D02*
X115385714Y-111773866D01*
X115385714Y-111773866D02*
X115338095Y-111678628D01*
X115338095Y-111678628D02*
X115290476Y-111631009D01*
X115290476Y-111631009D02*
X115195238Y-111583390D01*
X137488095Y-105504819D02*
X137488095Y-106314342D01*
X137488095Y-106314342D02*
X137535714Y-106409580D01*
X137535714Y-106409580D02*
X137583333Y-106457200D01*
X137583333Y-106457200D02*
X137678571Y-106504819D01*
X137678571Y-106504819D02*
X137869047Y-106504819D01*
X137869047Y-106504819D02*
X137964285Y-106457200D01*
X137964285Y-106457200D02*
X138011904Y-106409580D01*
X138011904Y-106409580D02*
X138059523Y-106314342D01*
X138059523Y-106314342D02*
X138059523Y-105504819D01*
X138488095Y-105600057D02*
X138535714Y-105552438D01*
X138535714Y-105552438D02*
X138630952Y-105504819D01*
X138630952Y-105504819D02*
X138869047Y-105504819D01*
X138869047Y-105504819D02*
X138964285Y-105552438D01*
X138964285Y-105552438D02*
X139011904Y-105600057D01*
X139011904Y-105600057D02*
X139059523Y-105695295D01*
X139059523Y-105695295D02*
X139059523Y-105790533D01*
X139059523Y-105790533D02*
X139011904Y-105933390D01*
X139011904Y-105933390D02*
X138440476Y-106504819D01*
X138440476Y-106504819D02*
X139059523Y-106504819D01*
X139576350Y-109601819D02*
X139576350Y-109839914D01*
X139338255Y-109744676D02*
X139576350Y-109839914D01*
X139576350Y-109839914D02*
X139814445Y-109744676D01*
X139433493Y-110030390D02*
X139576350Y-109839914D01*
X139576350Y-109839914D02*
X139719207Y-110030390D01*
X153933333Y-95204819D02*
X153600000Y-94728628D01*
X153361905Y-95204819D02*
X153361905Y-94204819D01*
X153361905Y-94204819D02*
X153742857Y-94204819D01*
X153742857Y-94204819D02*
X153838095Y-94252438D01*
X153838095Y-94252438D02*
X153885714Y-94300057D01*
X153885714Y-94300057D02*
X153933333Y-94395295D01*
X153933333Y-94395295D02*
X153933333Y-94538152D01*
X153933333Y-94538152D02*
X153885714Y-94633390D01*
X153885714Y-94633390D02*
X153838095Y-94681009D01*
X153838095Y-94681009D02*
X153742857Y-94728628D01*
X153742857Y-94728628D02*
X153361905Y-94728628D01*
X154790476Y-94204819D02*
X154600000Y-94204819D01*
X154600000Y-94204819D02*
X154504762Y-94252438D01*
X154504762Y-94252438D02*
X154457143Y-94300057D01*
X154457143Y-94300057D02*
X154361905Y-94442914D01*
X154361905Y-94442914D02*
X154314286Y-94633390D01*
X154314286Y-94633390D02*
X154314286Y-95014342D01*
X154314286Y-95014342D02*
X154361905Y-95109580D01*
X154361905Y-95109580D02*
X154409524Y-95157200D01*
X154409524Y-95157200D02*
X154504762Y-95204819D01*
X154504762Y-95204819D02*
X154695238Y-95204819D01*
X154695238Y-95204819D02*
X154790476Y-95157200D01*
X154790476Y-95157200D02*
X154838095Y-95109580D01*
X154838095Y-95109580D02*
X154885714Y-95014342D01*
X154885714Y-95014342D02*
X154885714Y-94776247D01*
X154885714Y-94776247D02*
X154838095Y-94681009D01*
X154838095Y-94681009D02*
X154790476Y-94633390D01*
X154790476Y-94633390D02*
X154695238Y-94585771D01*
X154695238Y-94585771D02*
X154504762Y-94585771D01*
X154504762Y-94585771D02*
X154409524Y-94633390D01*
X154409524Y-94633390D02*
X154361905Y-94681009D01*
X154361905Y-94681009D02*
X154314286Y-94776247D01*
X134833333Y-103804819D02*
X134500000Y-103328628D01*
X134261905Y-103804819D02*
X134261905Y-102804819D01*
X134261905Y-102804819D02*
X134642857Y-102804819D01*
X134642857Y-102804819D02*
X134738095Y-102852438D01*
X134738095Y-102852438D02*
X134785714Y-102900057D01*
X134785714Y-102900057D02*
X134833333Y-102995295D01*
X134833333Y-102995295D02*
X134833333Y-103138152D01*
X134833333Y-103138152D02*
X134785714Y-103233390D01*
X134785714Y-103233390D02*
X134738095Y-103281009D01*
X134738095Y-103281009D02*
X134642857Y-103328628D01*
X134642857Y-103328628D02*
X134261905Y-103328628D01*
X135690476Y-103138152D02*
X135690476Y-103804819D01*
X135452381Y-102757200D02*
X135214286Y-103471485D01*
X135214286Y-103471485D02*
X135833333Y-103471485D01*
X95419642Y-89609580D02*
X95372023Y-89657200D01*
X95372023Y-89657200D02*
X95229166Y-89704819D01*
X95229166Y-89704819D02*
X95133928Y-89704819D01*
X95133928Y-89704819D02*
X94991071Y-89657200D01*
X94991071Y-89657200D02*
X94895833Y-89561961D01*
X94895833Y-89561961D02*
X94848214Y-89466723D01*
X94848214Y-89466723D02*
X94800595Y-89276247D01*
X94800595Y-89276247D02*
X94800595Y-89133390D01*
X94800595Y-89133390D02*
X94848214Y-88942914D01*
X94848214Y-88942914D02*
X94895833Y-88847676D01*
X94895833Y-88847676D02*
X94991071Y-88752438D01*
X94991071Y-88752438D02*
X95133928Y-88704819D01*
X95133928Y-88704819D02*
X95229166Y-88704819D01*
X95229166Y-88704819D02*
X95372023Y-88752438D01*
X95372023Y-88752438D02*
X95419642Y-88800057D01*
X96372023Y-89704819D02*
X95800595Y-89704819D01*
X96086309Y-89704819D02*
X96086309Y-88704819D01*
X96086309Y-88704819D02*
X95991071Y-88847676D01*
X95991071Y-88847676D02*
X95895833Y-88942914D01*
X95895833Y-88942914D02*
X95800595Y-88990533D01*
X96991071Y-88704819D02*
X97086309Y-88704819D01*
X97086309Y-88704819D02*
X97181547Y-88752438D01*
X97181547Y-88752438D02*
X97229166Y-88800057D01*
X97229166Y-88800057D02*
X97276785Y-88895295D01*
X97276785Y-88895295D02*
X97324404Y-89085771D01*
X97324404Y-89085771D02*
X97324404Y-89323866D01*
X97324404Y-89323866D02*
X97276785Y-89514342D01*
X97276785Y-89514342D02*
X97229166Y-89609580D01*
X97229166Y-89609580D02*
X97181547Y-89657200D01*
X97181547Y-89657200D02*
X97086309Y-89704819D01*
X97086309Y-89704819D02*
X96991071Y-89704819D01*
X96991071Y-89704819D02*
X96895833Y-89657200D01*
X96895833Y-89657200D02*
X96848214Y-89609580D01*
X96848214Y-89609580D02*
X96800595Y-89514342D01*
X96800595Y-89514342D02*
X96752976Y-89323866D01*
X96752976Y-89323866D02*
X96752976Y-89085771D01*
X96752976Y-89085771D02*
X96800595Y-88895295D01*
X96800595Y-88895295D02*
X96848214Y-88800057D01*
X96848214Y-88800057D02*
X96895833Y-88752438D01*
X96895833Y-88752438D02*
X96991071Y-88704819D01*
X104938095Y-97704817D02*
X104938095Y-98514340D01*
X104938095Y-98514340D02*
X104985714Y-98609578D01*
X104985714Y-98609578D02*
X105033333Y-98657198D01*
X105033333Y-98657198D02*
X105128571Y-98704817D01*
X105128571Y-98704817D02*
X105319047Y-98704817D01*
X105319047Y-98704817D02*
X105414285Y-98657198D01*
X105414285Y-98657198D02*
X105461904Y-98609578D01*
X105461904Y-98609578D02*
X105509523Y-98514340D01*
X105509523Y-98514340D02*
X105509523Y-97704817D01*
X106461904Y-97704817D02*
X105985714Y-97704817D01*
X105985714Y-97704817D02*
X105938095Y-98181007D01*
X105938095Y-98181007D02*
X105985714Y-98133388D01*
X105985714Y-98133388D02*
X106080952Y-98085769D01*
X106080952Y-98085769D02*
X106319047Y-98085769D01*
X106319047Y-98085769D02*
X106414285Y-98133388D01*
X106414285Y-98133388D02*
X106461904Y-98181007D01*
X106461904Y-98181007D02*
X106509523Y-98276245D01*
X106509523Y-98276245D02*
X106509523Y-98514340D01*
X106509523Y-98514340D02*
X106461904Y-98609578D01*
X106461904Y-98609578D02*
X106414285Y-98657198D01*
X106414285Y-98657198D02*
X106319047Y-98704817D01*
X106319047Y-98704817D02*
X106080952Y-98704817D01*
X106080952Y-98704817D02*
X105985714Y-98657198D01*
X105985714Y-98657198D02*
X105938095Y-98609578D01*
X104933333Y-95139580D02*
X104885714Y-95187200D01*
X104885714Y-95187200D02*
X104742857Y-95234819D01*
X104742857Y-95234819D02*
X104647619Y-95234819D01*
X104647619Y-95234819D02*
X104504762Y-95187200D01*
X104504762Y-95187200D02*
X104409524Y-95091961D01*
X104409524Y-95091961D02*
X104361905Y-94996723D01*
X104361905Y-94996723D02*
X104314286Y-94806247D01*
X104314286Y-94806247D02*
X104314286Y-94663390D01*
X104314286Y-94663390D02*
X104361905Y-94472914D01*
X104361905Y-94472914D02*
X104409524Y-94377676D01*
X104409524Y-94377676D02*
X104504762Y-94282438D01*
X104504762Y-94282438D02*
X104647619Y-94234819D01*
X104647619Y-94234819D02*
X104742857Y-94234819D01*
X104742857Y-94234819D02*
X104885714Y-94282438D01*
X104885714Y-94282438D02*
X104933333Y-94330057D01*
X105838095Y-94234819D02*
X105361905Y-94234819D01*
X105361905Y-94234819D02*
X105314286Y-94711009D01*
X105314286Y-94711009D02*
X105361905Y-94663390D01*
X105361905Y-94663390D02*
X105457143Y-94615771D01*
X105457143Y-94615771D02*
X105695238Y-94615771D01*
X105695238Y-94615771D02*
X105790476Y-94663390D01*
X105790476Y-94663390D02*
X105838095Y-94711009D01*
X105838095Y-94711009D02*
X105885714Y-94806247D01*
X105885714Y-94806247D02*
X105885714Y-95044342D01*
X105885714Y-95044342D02*
X105838095Y-95139580D01*
X105838095Y-95139580D02*
X105790476Y-95187200D01*
X105790476Y-95187200D02*
X105695238Y-95234819D01*
X105695238Y-95234819D02*
X105457143Y-95234819D01*
X105457143Y-95234819D02*
X105361905Y-95187200D01*
X105361905Y-95187200D02*
X105314286Y-95139580D01*
X142557142Y-109339580D02*
X142509523Y-109387200D01*
X142509523Y-109387200D02*
X142366666Y-109434819D01*
X142366666Y-109434819D02*
X142271428Y-109434819D01*
X142271428Y-109434819D02*
X142128571Y-109387200D01*
X142128571Y-109387200D02*
X142033333Y-109291961D01*
X142033333Y-109291961D02*
X141985714Y-109196723D01*
X141985714Y-109196723D02*
X141938095Y-109006247D01*
X141938095Y-109006247D02*
X141938095Y-108863390D01*
X141938095Y-108863390D02*
X141985714Y-108672914D01*
X141985714Y-108672914D02*
X142033333Y-108577676D01*
X142033333Y-108577676D02*
X142128571Y-108482438D01*
X142128571Y-108482438D02*
X142271428Y-108434819D01*
X142271428Y-108434819D02*
X142366666Y-108434819D01*
X142366666Y-108434819D02*
X142509523Y-108482438D01*
X142509523Y-108482438D02*
X142557142Y-108530057D01*
X143509523Y-109434819D02*
X142938095Y-109434819D01*
X143223809Y-109434819D02*
X143223809Y-108434819D01*
X143223809Y-108434819D02*
X143128571Y-108577676D01*
X143128571Y-108577676D02*
X143033333Y-108672914D01*
X143033333Y-108672914D02*
X142938095Y-108720533D01*
X143890476Y-108530057D02*
X143938095Y-108482438D01*
X143938095Y-108482438D02*
X144033333Y-108434819D01*
X144033333Y-108434819D02*
X144271428Y-108434819D01*
X144271428Y-108434819D02*
X144366666Y-108482438D01*
X144366666Y-108482438D02*
X144414285Y-108530057D01*
X144414285Y-108530057D02*
X144461904Y-108625295D01*
X144461904Y-108625295D02*
X144461904Y-108720533D01*
X144461904Y-108720533D02*
X144414285Y-108863390D01*
X144414285Y-108863390D02*
X143842857Y-109434819D01*
X143842857Y-109434819D02*
X144461904Y-109434819D01*
X118266666Y-101754819D02*
X118266666Y-102469104D01*
X118266666Y-102469104D02*
X118219047Y-102611961D01*
X118219047Y-102611961D02*
X118123809Y-102707200D01*
X118123809Y-102707200D02*
X117980952Y-102754819D01*
X117980952Y-102754819D02*
X117885714Y-102754819D01*
X118742857Y-102754819D02*
X118742857Y-101754819D01*
X118742857Y-101754819D02*
X119123809Y-101754819D01*
X119123809Y-101754819D02*
X119219047Y-101802438D01*
X119219047Y-101802438D02*
X119266666Y-101850057D01*
X119266666Y-101850057D02*
X119314285Y-101945295D01*
X119314285Y-101945295D02*
X119314285Y-102088152D01*
X119314285Y-102088152D02*
X119266666Y-102183390D01*
X119266666Y-102183390D02*
X119219047Y-102231009D01*
X119219047Y-102231009D02*
X119123809Y-102278628D01*
X119123809Y-102278628D02*
X118742857Y-102278628D01*
X119695238Y-101850057D02*
X119742857Y-101802438D01*
X119742857Y-101802438D02*
X119838095Y-101754819D01*
X119838095Y-101754819D02*
X120076190Y-101754819D01*
X120076190Y-101754819D02*
X120171428Y-101802438D01*
X120171428Y-101802438D02*
X120219047Y-101850057D01*
X120219047Y-101850057D02*
X120266666Y-101945295D01*
X120266666Y-101945295D02*
X120266666Y-102040533D01*
X120266666Y-102040533D02*
X120219047Y-102183390D01*
X120219047Y-102183390D02*
X119647619Y-102754819D01*
X119647619Y-102754819D02*
X120266666Y-102754819D01*
X116166667Y-99954819D02*
X116785714Y-99954819D01*
X116785714Y-99954819D02*
X116452381Y-100335771D01*
X116452381Y-100335771D02*
X116595238Y-100335771D01*
X116595238Y-100335771D02*
X116690476Y-100383390D01*
X116690476Y-100383390D02*
X116738095Y-100431009D01*
X116738095Y-100431009D02*
X116785714Y-100526247D01*
X116785714Y-100526247D02*
X116785714Y-100764342D01*
X116785714Y-100764342D02*
X116738095Y-100859580D01*
X116738095Y-100859580D02*
X116690476Y-100907200D01*
X116690476Y-100907200D02*
X116595238Y-100954819D01*
X116595238Y-100954819D02*
X116309524Y-100954819D01*
X116309524Y-100954819D02*
X116214286Y-100907200D01*
X116214286Y-100907200D02*
X116166667Y-100859580D01*
X121985714Y-100954819D02*
X121414286Y-100954819D01*
X121700000Y-100954819D02*
X121700000Y-99954819D01*
X121700000Y-99954819D02*
X121604762Y-100097676D01*
X121604762Y-100097676D02*
X121509524Y-100192914D01*
X121509524Y-100192914D02*
X121414286Y-100240533D01*
X144957142Y-90954819D02*
X144623809Y-90478628D01*
X144385714Y-90954819D02*
X144385714Y-89954819D01*
X144385714Y-89954819D02*
X144766666Y-89954819D01*
X144766666Y-89954819D02*
X144861904Y-90002438D01*
X144861904Y-90002438D02*
X144909523Y-90050057D01*
X144909523Y-90050057D02*
X144957142Y-90145295D01*
X144957142Y-90145295D02*
X144957142Y-90288152D01*
X144957142Y-90288152D02*
X144909523Y-90383390D01*
X144909523Y-90383390D02*
X144861904Y-90431009D01*
X144861904Y-90431009D02*
X144766666Y-90478628D01*
X144766666Y-90478628D02*
X144385714Y-90478628D01*
X145909523Y-90954819D02*
X145338095Y-90954819D01*
X145623809Y-90954819D02*
X145623809Y-89954819D01*
X145623809Y-89954819D02*
X145528571Y-90097676D01*
X145528571Y-90097676D02*
X145433333Y-90192914D01*
X145433333Y-90192914D02*
X145338095Y-90240533D01*
X146861904Y-90954819D02*
X146290476Y-90954819D01*
X146576190Y-90954819D02*
X146576190Y-89954819D01*
X146576190Y-89954819D02*
X146480952Y-90097676D01*
X146480952Y-90097676D02*
X146385714Y-90192914D01*
X146385714Y-90192914D02*
X146290476Y-90240533D01*
X104533333Y-78709580D02*
X104485714Y-78757200D01*
X104485714Y-78757200D02*
X104342857Y-78804819D01*
X104342857Y-78804819D02*
X104247619Y-78804819D01*
X104247619Y-78804819D02*
X104104762Y-78757200D01*
X104104762Y-78757200D02*
X104009524Y-78661961D01*
X104009524Y-78661961D02*
X103961905Y-78566723D01*
X103961905Y-78566723D02*
X103914286Y-78376247D01*
X103914286Y-78376247D02*
X103914286Y-78233390D01*
X103914286Y-78233390D02*
X103961905Y-78042914D01*
X103961905Y-78042914D02*
X104009524Y-77947676D01*
X104009524Y-77947676D02*
X104104762Y-77852438D01*
X104104762Y-77852438D02*
X104247619Y-77804819D01*
X104247619Y-77804819D02*
X104342857Y-77804819D01*
X104342857Y-77804819D02*
X104485714Y-77852438D01*
X104485714Y-77852438D02*
X104533333Y-77900057D01*
X104866667Y-77804819D02*
X105533333Y-77804819D01*
X105533333Y-77804819D02*
X105104762Y-78804819D01*
D13*
X95631905Y-108174318D02*
X96055238Y-109444318D01*
X96055238Y-109444318D02*
X96478572Y-108174318D01*
X97627619Y-109444318D02*
X97204285Y-108839556D01*
X96901904Y-109444318D02*
X96901904Y-108174318D01*
X96901904Y-108174318D02*
X97385714Y-108174318D01*
X97385714Y-108174318D02*
X97506666Y-108234794D01*
X97506666Y-108234794D02*
X97567143Y-108295270D01*
X97567143Y-108295270D02*
X97627619Y-108416222D01*
X97627619Y-108416222D02*
X97627619Y-108597651D01*
X97627619Y-108597651D02*
X97567143Y-108718603D01*
X97567143Y-108718603D02*
X97506666Y-108779080D01*
X97506666Y-108779080D02*
X97385714Y-108839556D01*
X97385714Y-108839556D02*
X96901904Y-108839556D01*
X98837143Y-109444318D02*
X98111428Y-109444318D01*
X98474285Y-109444318D02*
X98474285Y-108174318D01*
X98474285Y-108174318D02*
X98353333Y-108355746D01*
X98353333Y-108355746D02*
X98232381Y-108476699D01*
X98232381Y-108476699D02*
X98111428Y-108537175D01*
D12*
X142133333Y-113854819D02*
X141800000Y-113378628D01*
X141561905Y-113854819D02*
X141561905Y-112854819D01*
X141561905Y-112854819D02*
X141942857Y-112854819D01*
X141942857Y-112854819D02*
X142038095Y-112902438D01*
X142038095Y-112902438D02*
X142085714Y-112950057D01*
X142085714Y-112950057D02*
X142133333Y-113045295D01*
X142133333Y-113045295D02*
X142133333Y-113188152D01*
X142133333Y-113188152D02*
X142085714Y-113283390D01*
X142085714Y-113283390D02*
X142038095Y-113331009D01*
X142038095Y-113331009D02*
X141942857Y-113378628D01*
X141942857Y-113378628D02*
X141561905Y-113378628D01*
X143085714Y-113854819D02*
X142514286Y-113854819D01*
X142800000Y-113854819D02*
X142800000Y-112854819D01*
X142800000Y-112854819D02*
X142704762Y-112997676D01*
X142704762Y-112997676D02*
X142609524Y-113092914D01*
X142609524Y-113092914D02*
X142514286Y-113140533D01*
X124269642Y-102604819D02*
X123936309Y-102128628D01*
X123698214Y-102604819D02*
X123698214Y-101604819D01*
X123698214Y-101604819D02*
X124079166Y-101604819D01*
X124079166Y-101604819D02*
X124174404Y-101652438D01*
X124174404Y-101652438D02*
X124222023Y-101700057D01*
X124222023Y-101700057D02*
X124269642Y-101795295D01*
X124269642Y-101795295D02*
X124269642Y-101938152D01*
X124269642Y-101938152D02*
X124222023Y-102033390D01*
X124222023Y-102033390D02*
X124174404Y-102081009D01*
X124174404Y-102081009D02*
X124079166Y-102128628D01*
X124079166Y-102128628D02*
X123698214Y-102128628D01*
X125222023Y-102604819D02*
X124650595Y-102604819D01*
X124936309Y-102604819D02*
X124936309Y-101604819D01*
X124936309Y-101604819D02*
X124841071Y-101747676D01*
X124841071Y-101747676D02*
X124745833Y-101842914D01*
X124745833Y-101842914D02*
X124650595Y-101890533D01*
X125602976Y-101700057D02*
X125650595Y-101652438D01*
X125650595Y-101652438D02*
X125745833Y-101604819D01*
X125745833Y-101604819D02*
X125983928Y-101604819D01*
X125983928Y-101604819D02*
X126079166Y-101652438D01*
X126079166Y-101652438D02*
X126126785Y-101700057D01*
X126126785Y-101700057D02*
X126174404Y-101795295D01*
X126174404Y-101795295D02*
X126174404Y-101890533D01*
X126174404Y-101890533D02*
X126126785Y-102033390D01*
X126126785Y-102033390D02*
X125555357Y-102604819D01*
X125555357Y-102604819D02*
X126174404Y-102604819D01*
X130957142Y-103509580D02*
X130909523Y-103557200D01*
X130909523Y-103557200D02*
X130766666Y-103604819D01*
X130766666Y-103604819D02*
X130671428Y-103604819D01*
X130671428Y-103604819D02*
X130528571Y-103557200D01*
X130528571Y-103557200D02*
X130433333Y-103461961D01*
X130433333Y-103461961D02*
X130385714Y-103366723D01*
X130385714Y-103366723D02*
X130338095Y-103176247D01*
X130338095Y-103176247D02*
X130338095Y-103033390D01*
X130338095Y-103033390D02*
X130385714Y-102842914D01*
X130385714Y-102842914D02*
X130433333Y-102747676D01*
X130433333Y-102747676D02*
X130528571Y-102652438D01*
X130528571Y-102652438D02*
X130671428Y-102604819D01*
X130671428Y-102604819D02*
X130766666Y-102604819D01*
X130766666Y-102604819D02*
X130909523Y-102652438D01*
X130909523Y-102652438D02*
X130957142Y-102700057D01*
X131909523Y-103604819D02*
X131338095Y-103604819D01*
X131623809Y-103604819D02*
X131623809Y-102604819D01*
X131623809Y-102604819D02*
X131528571Y-102747676D01*
X131528571Y-102747676D02*
X131433333Y-102842914D01*
X131433333Y-102842914D02*
X131338095Y-102890533D01*
X132242857Y-102604819D02*
X132861904Y-102604819D01*
X132861904Y-102604819D02*
X132528571Y-102985771D01*
X132528571Y-102985771D02*
X132671428Y-102985771D01*
X132671428Y-102985771D02*
X132766666Y-103033390D01*
X132766666Y-103033390D02*
X132814285Y-103081009D01*
X132814285Y-103081009D02*
X132861904Y-103176247D01*
X132861904Y-103176247D02*
X132861904Y-103414342D01*
X132861904Y-103414342D02*
X132814285Y-103509580D01*
X132814285Y-103509580D02*
X132766666Y-103557200D01*
X132766666Y-103557200D02*
X132671428Y-103604819D01*
X132671428Y-103604819D02*
X132385714Y-103604819D01*
X132385714Y-103604819D02*
X132290476Y-103557200D01*
X132290476Y-103557200D02*
X132242857Y-103509580D01*
X139683333Y-115654819D02*
X139350000Y-115178628D01*
X139111905Y-115654819D02*
X139111905Y-114654819D01*
X139111905Y-114654819D02*
X139492857Y-114654819D01*
X139492857Y-114654819D02*
X139588095Y-114702438D01*
X139588095Y-114702438D02*
X139635714Y-114750057D01*
X139635714Y-114750057D02*
X139683333Y-114845295D01*
X139683333Y-114845295D02*
X139683333Y-114988152D01*
X139683333Y-114988152D02*
X139635714Y-115083390D01*
X139635714Y-115083390D02*
X139588095Y-115131009D01*
X139588095Y-115131009D02*
X139492857Y-115178628D01*
X139492857Y-115178628D02*
X139111905Y-115178628D01*
X140064286Y-114750057D02*
X140111905Y-114702438D01*
X140111905Y-114702438D02*
X140207143Y-114654819D01*
X140207143Y-114654819D02*
X140445238Y-114654819D01*
X140445238Y-114654819D02*
X140540476Y-114702438D01*
X140540476Y-114702438D02*
X140588095Y-114750057D01*
X140588095Y-114750057D02*
X140635714Y-114845295D01*
X140635714Y-114845295D02*
X140635714Y-114940533D01*
X140635714Y-114940533D02*
X140588095Y-115083390D01*
X140588095Y-115083390D02*
X140016667Y-115654819D01*
X140016667Y-115654819D02*
X140635714Y-115654819D01*
X154588095Y-85804819D02*
X154588095Y-86614342D01*
X154588095Y-86614342D02*
X154635714Y-86709580D01*
X154635714Y-86709580D02*
X154683333Y-86757200D01*
X154683333Y-86757200D02*
X154778571Y-86804819D01*
X154778571Y-86804819D02*
X154969047Y-86804819D01*
X154969047Y-86804819D02*
X155064285Y-86757200D01*
X155064285Y-86757200D02*
X155111904Y-86709580D01*
X155111904Y-86709580D02*
X155159523Y-86614342D01*
X155159523Y-86614342D02*
X155159523Y-85804819D01*
X156064285Y-86138152D02*
X156064285Y-86804819D01*
X155826190Y-85757200D02*
X155588095Y-86471485D01*
X155588095Y-86471485D02*
X156207142Y-86471485D01*
X152778250Y-85905019D02*
X152778250Y-86143114D01*
X152540155Y-86047876D02*
X152778250Y-86143114D01*
X152778250Y-86143114D02*
X153016345Y-86047876D01*
X152635393Y-86333590D02*
X152778250Y-86143114D01*
X152778250Y-86143114D02*
X152921107Y-86333590D01*
X152778250Y-85905019D02*
X152778250Y-86143114D01*
X152540155Y-86047876D02*
X152778250Y-86143114D01*
X152778250Y-86143114D02*
X153016345Y-86047876D01*
X152635393Y-86333590D02*
X152778250Y-86143114D01*
X152778250Y-86143114D02*
X152921107Y-86333590D01*
X107033333Y-106554819D02*
X106700000Y-106078628D01*
X106461905Y-106554819D02*
X106461905Y-105554819D01*
X106461905Y-105554819D02*
X106842857Y-105554819D01*
X106842857Y-105554819D02*
X106938095Y-105602438D01*
X106938095Y-105602438D02*
X106985714Y-105650057D01*
X106985714Y-105650057D02*
X107033333Y-105745295D01*
X107033333Y-105745295D02*
X107033333Y-105888152D01*
X107033333Y-105888152D02*
X106985714Y-105983390D01*
X106985714Y-105983390D02*
X106938095Y-106031009D01*
X106938095Y-106031009D02*
X106842857Y-106078628D01*
X106842857Y-106078628D02*
X106461905Y-106078628D01*
X107938095Y-105554819D02*
X107461905Y-105554819D01*
X107461905Y-105554819D02*
X107414286Y-106031009D01*
X107414286Y-106031009D02*
X107461905Y-105983390D01*
X107461905Y-105983390D02*
X107557143Y-105935771D01*
X107557143Y-105935771D02*
X107795238Y-105935771D01*
X107795238Y-105935771D02*
X107890476Y-105983390D01*
X107890476Y-105983390D02*
X107938095Y-106031009D01*
X107938095Y-106031009D02*
X107985714Y-106126247D01*
X107985714Y-106126247D02*
X107985714Y-106364342D01*
X107985714Y-106364342D02*
X107938095Y-106459580D01*
X107938095Y-106459580D02*
X107890476Y-106507200D01*
X107890476Y-106507200D02*
X107795238Y-106554819D01*
X107795238Y-106554819D02*
X107557143Y-106554819D01*
X107557143Y-106554819D02*
X107461905Y-106507200D01*
X107461905Y-106507200D02*
X107414286Y-106459580D01*
X114733333Y-82759580D02*
X114685714Y-82807200D01*
X114685714Y-82807200D02*
X114542857Y-82854819D01*
X114542857Y-82854819D02*
X114447619Y-82854819D01*
X114447619Y-82854819D02*
X114304762Y-82807200D01*
X114304762Y-82807200D02*
X114209524Y-82711961D01*
X114209524Y-82711961D02*
X114161905Y-82616723D01*
X114161905Y-82616723D02*
X114114286Y-82426247D01*
X114114286Y-82426247D02*
X114114286Y-82283390D01*
X114114286Y-82283390D02*
X114161905Y-82092914D01*
X114161905Y-82092914D02*
X114209524Y-81997676D01*
X114209524Y-81997676D02*
X114304762Y-81902438D01*
X114304762Y-81902438D02*
X114447619Y-81854819D01*
X114447619Y-81854819D02*
X114542857Y-81854819D01*
X114542857Y-81854819D02*
X114685714Y-81902438D01*
X114685714Y-81902438D02*
X114733333Y-81950057D01*
X115209524Y-82854819D02*
X115400000Y-82854819D01*
X115400000Y-82854819D02*
X115495238Y-82807200D01*
X115495238Y-82807200D02*
X115542857Y-82759580D01*
X115542857Y-82759580D02*
X115638095Y-82616723D01*
X115638095Y-82616723D02*
X115685714Y-82426247D01*
X115685714Y-82426247D02*
X115685714Y-82045295D01*
X115685714Y-82045295D02*
X115638095Y-81950057D01*
X115638095Y-81950057D02*
X115590476Y-81902438D01*
X115590476Y-81902438D02*
X115495238Y-81854819D01*
X115495238Y-81854819D02*
X115304762Y-81854819D01*
X115304762Y-81854819D02*
X115209524Y-81902438D01*
X115209524Y-81902438D02*
X115161905Y-81950057D01*
X115161905Y-81950057D02*
X115114286Y-82045295D01*
X115114286Y-82045295D02*
X115114286Y-82283390D01*
X115114286Y-82283390D02*
X115161905Y-82378628D01*
X115161905Y-82378628D02*
X115209524Y-82426247D01*
X115209524Y-82426247D02*
X115304762Y-82473866D01*
X115304762Y-82473866D02*
X115495238Y-82473866D01*
X115495238Y-82473866D02*
X115590476Y-82426247D01*
X115590476Y-82426247D02*
X115638095Y-82378628D01*
X115638095Y-82378628D02*
X115685714Y-82283390D01*
D13*
X167783571Y-87103365D02*
X167723095Y-87163842D01*
X167723095Y-87163842D02*
X167541666Y-87224318D01*
X167541666Y-87224318D02*
X167420714Y-87224318D01*
X167420714Y-87224318D02*
X167239285Y-87163842D01*
X167239285Y-87163842D02*
X167118333Y-87042889D01*
X167118333Y-87042889D02*
X167057856Y-86921937D01*
X167057856Y-86921937D02*
X166997380Y-86680032D01*
X166997380Y-86680032D02*
X166997380Y-86498603D01*
X166997380Y-86498603D02*
X167057856Y-86256699D01*
X167057856Y-86256699D02*
X167118333Y-86135746D01*
X167118333Y-86135746D02*
X167239285Y-86014794D01*
X167239285Y-86014794D02*
X167420714Y-85954318D01*
X167420714Y-85954318D02*
X167541666Y-85954318D01*
X167541666Y-85954318D02*
X167723095Y-86014794D01*
X167723095Y-86014794D02*
X167783571Y-86075270D01*
X168993095Y-87224318D02*
X168267380Y-87224318D01*
X168630237Y-87224318D02*
X168630237Y-85954318D01*
X168630237Y-85954318D02*
X168509285Y-86135746D01*
X168509285Y-86135746D02*
X168388333Y-86256699D01*
X168388333Y-86256699D02*
X168267380Y-86317175D01*
X169597857Y-87224318D02*
X169839761Y-87224318D01*
X169839761Y-87224318D02*
X169960714Y-87163842D01*
X169960714Y-87163842D02*
X170021190Y-87103365D01*
X170021190Y-87103365D02*
X170142142Y-86921937D01*
X170142142Y-86921937D02*
X170202619Y-86680032D01*
X170202619Y-86680032D02*
X170202619Y-86196222D01*
X170202619Y-86196222D02*
X170142142Y-86075270D01*
X170142142Y-86075270D02*
X170081666Y-86014794D01*
X170081666Y-86014794D02*
X169960714Y-85954318D01*
X169960714Y-85954318D02*
X169718809Y-85954318D01*
X169718809Y-85954318D02*
X169597857Y-86014794D01*
X169597857Y-86014794D02*
X169537380Y-86075270D01*
X169537380Y-86075270D02*
X169476904Y-86196222D01*
X169476904Y-86196222D02*
X169476904Y-86498603D01*
X169476904Y-86498603D02*
X169537380Y-86619556D01*
X169537380Y-86619556D02*
X169597857Y-86680032D01*
X169597857Y-86680032D02*
X169718809Y-86740508D01*
X169718809Y-86740508D02*
X169960714Y-86740508D01*
X169960714Y-86740508D02*
X170081666Y-86680032D01*
X170081666Y-86680032D02*
X170142142Y-86619556D01*
X170142142Y-86619556D02*
X170202619Y-86498603D01*
D12*
X99157142Y-99859580D02*
X99109523Y-99907200D01*
X99109523Y-99907200D02*
X98966666Y-99954819D01*
X98966666Y-99954819D02*
X98871428Y-99954819D01*
X98871428Y-99954819D02*
X98728571Y-99907200D01*
X98728571Y-99907200D02*
X98633333Y-99811961D01*
X98633333Y-99811961D02*
X98585714Y-99716723D01*
X98585714Y-99716723D02*
X98538095Y-99526247D01*
X98538095Y-99526247D02*
X98538095Y-99383390D01*
X98538095Y-99383390D02*
X98585714Y-99192914D01*
X98585714Y-99192914D02*
X98633333Y-99097676D01*
X98633333Y-99097676D02*
X98728571Y-99002438D01*
X98728571Y-99002438D02*
X98871428Y-98954819D01*
X98871428Y-98954819D02*
X98966666Y-98954819D01*
X98966666Y-98954819D02*
X99109523Y-99002438D01*
X99109523Y-99002438D02*
X99157142Y-99050057D01*
X100109523Y-99954819D02*
X99538095Y-99954819D01*
X99823809Y-99954819D02*
X99823809Y-98954819D01*
X99823809Y-98954819D02*
X99728571Y-99097676D01*
X99728571Y-99097676D02*
X99633333Y-99192914D01*
X99633333Y-99192914D02*
X99538095Y-99240533D01*
X100966666Y-98954819D02*
X100776190Y-98954819D01*
X100776190Y-98954819D02*
X100680952Y-99002438D01*
X100680952Y-99002438D02*
X100633333Y-99050057D01*
X100633333Y-99050057D02*
X100538095Y-99192914D01*
X100538095Y-99192914D02*
X100490476Y-99383390D01*
X100490476Y-99383390D02*
X100490476Y-99764342D01*
X100490476Y-99764342D02*
X100538095Y-99859580D01*
X100538095Y-99859580D02*
X100585714Y-99907200D01*
X100585714Y-99907200D02*
X100680952Y-99954819D01*
X100680952Y-99954819D02*
X100871428Y-99954819D01*
X100871428Y-99954819D02*
X100966666Y-99907200D01*
X100966666Y-99907200D02*
X101014285Y-99859580D01*
X101014285Y-99859580D02*
X101061904Y-99764342D01*
X101061904Y-99764342D02*
X101061904Y-99526247D01*
X101061904Y-99526247D02*
X101014285Y-99431009D01*
X101014285Y-99431009D02*
X100966666Y-99383390D01*
X100966666Y-99383390D02*
X100871428Y-99335771D01*
X100871428Y-99335771D02*
X100680952Y-99335771D01*
X100680952Y-99335771D02*
X100585714Y-99383390D01*
X100585714Y-99383390D02*
X100538095Y-99431009D01*
X100538095Y-99431009D02*
X100490476Y-99526247D01*
X111200595Y-105604819D02*
X111200595Y-106414342D01*
X111200595Y-106414342D02*
X111248214Y-106509580D01*
X111248214Y-106509580D02*
X111295833Y-106557200D01*
X111295833Y-106557200D02*
X111391071Y-106604819D01*
X111391071Y-106604819D02*
X111581547Y-106604819D01*
X111581547Y-106604819D02*
X111676785Y-106557200D01*
X111676785Y-106557200D02*
X111724404Y-106509580D01*
X111724404Y-106509580D02*
X111772023Y-106414342D01*
X111772023Y-106414342D02*
X111772023Y-105604819D01*
X112152976Y-105604819D02*
X112772023Y-105604819D01*
X112772023Y-105604819D02*
X112438690Y-105985771D01*
X112438690Y-105985771D02*
X112581547Y-105985771D01*
X112581547Y-105985771D02*
X112676785Y-106033390D01*
X112676785Y-106033390D02*
X112724404Y-106081009D01*
X112724404Y-106081009D02*
X112772023Y-106176247D01*
X112772023Y-106176247D02*
X112772023Y-106414342D01*
X112772023Y-106414342D02*
X112724404Y-106509580D01*
X112724404Y-106509580D02*
X112676785Y-106557200D01*
X112676785Y-106557200D02*
X112581547Y-106604819D01*
X112581547Y-106604819D02*
X112295833Y-106604819D01*
X112295833Y-106604819D02*
X112200595Y-106557200D01*
X112200595Y-106557200D02*
X112152976Y-106509580D01*
X114333333Y-89439580D02*
X114285714Y-89487200D01*
X114285714Y-89487200D02*
X114142857Y-89534819D01*
X114142857Y-89534819D02*
X114047619Y-89534819D01*
X114047619Y-89534819D02*
X113904762Y-89487200D01*
X113904762Y-89487200D02*
X113809524Y-89391961D01*
X113809524Y-89391961D02*
X113761905Y-89296723D01*
X113761905Y-89296723D02*
X113714286Y-89106247D01*
X113714286Y-89106247D02*
X113714286Y-88963390D01*
X113714286Y-88963390D02*
X113761905Y-88772914D01*
X113761905Y-88772914D02*
X113809524Y-88677676D01*
X113809524Y-88677676D02*
X113904762Y-88582438D01*
X113904762Y-88582438D02*
X114047619Y-88534819D01*
X114047619Y-88534819D02*
X114142857Y-88534819D01*
X114142857Y-88534819D02*
X114285714Y-88582438D01*
X114285714Y-88582438D02*
X114333333Y-88630057D01*
X114904762Y-88963390D02*
X114809524Y-88915771D01*
X114809524Y-88915771D02*
X114761905Y-88868152D01*
X114761905Y-88868152D02*
X114714286Y-88772914D01*
X114714286Y-88772914D02*
X114714286Y-88725295D01*
X114714286Y-88725295D02*
X114761905Y-88630057D01*
X114761905Y-88630057D02*
X114809524Y-88582438D01*
X114809524Y-88582438D02*
X114904762Y-88534819D01*
X114904762Y-88534819D02*
X115095238Y-88534819D01*
X115095238Y-88534819D02*
X115190476Y-88582438D01*
X115190476Y-88582438D02*
X115238095Y-88630057D01*
X115238095Y-88630057D02*
X115285714Y-88725295D01*
X115285714Y-88725295D02*
X115285714Y-88772914D01*
X115285714Y-88772914D02*
X115238095Y-88868152D01*
X115238095Y-88868152D02*
X115190476Y-88915771D01*
X115190476Y-88915771D02*
X115095238Y-88963390D01*
X115095238Y-88963390D02*
X114904762Y-88963390D01*
X114904762Y-88963390D02*
X114809524Y-89011009D01*
X114809524Y-89011009D02*
X114761905Y-89058628D01*
X114761905Y-89058628D02*
X114714286Y-89153866D01*
X114714286Y-89153866D02*
X114714286Y-89344342D01*
X114714286Y-89344342D02*
X114761905Y-89439580D01*
X114761905Y-89439580D02*
X114809524Y-89487200D01*
X114809524Y-89487200D02*
X114904762Y-89534819D01*
X114904762Y-89534819D02*
X115095238Y-89534819D01*
X115095238Y-89534819D02*
X115190476Y-89487200D01*
X115190476Y-89487200D02*
X115238095Y-89439580D01*
X115238095Y-89439580D02*
X115285714Y-89344342D01*
X115285714Y-89344342D02*
X115285714Y-89153866D01*
X115285714Y-89153866D02*
X115238095Y-89058628D01*
X115238095Y-89058628D02*
X115190476Y-89011009D01*
X115190476Y-89011009D02*
X115095238Y-88963390D01*
X97833333Y-80859580D02*
X97785714Y-80907200D01*
X97785714Y-80907200D02*
X97642857Y-80954819D01*
X97642857Y-80954819D02*
X97547619Y-80954819D01*
X97547619Y-80954819D02*
X97404762Y-80907200D01*
X97404762Y-80907200D02*
X97309524Y-80811961D01*
X97309524Y-80811961D02*
X97261905Y-80716723D01*
X97261905Y-80716723D02*
X97214286Y-80526247D01*
X97214286Y-80526247D02*
X97214286Y-80383390D01*
X97214286Y-80383390D02*
X97261905Y-80192914D01*
X97261905Y-80192914D02*
X97309524Y-80097676D01*
X97309524Y-80097676D02*
X97404762Y-80002438D01*
X97404762Y-80002438D02*
X97547619Y-79954819D01*
X97547619Y-79954819D02*
X97642857Y-79954819D01*
X97642857Y-79954819D02*
X97785714Y-80002438D01*
X97785714Y-80002438D02*
X97833333Y-80050057D01*
X98690476Y-79954819D02*
X98500000Y-79954819D01*
X98500000Y-79954819D02*
X98404762Y-80002438D01*
X98404762Y-80002438D02*
X98357143Y-80050057D01*
X98357143Y-80050057D02*
X98261905Y-80192914D01*
X98261905Y-80192914D02*
X98214286Y-80383390D01*
X98214286Y-80383390D02*
X98214286Y-80764342D01*
X98214286Y-80764342D02*
X98261905Y-80859580D01*
X98261905Y-80859580D02*
X98309524Y-80907200D01*
X98309524Y-80907200D02*
X98404762Y-80954819D01*
X98404762Y-80954819D02*
X98595238Y-80954819D01*
X98595238Y-80954819D02*
X98690476Y-80907200D01*
X98690476Y-80907200D02*
X98738095Y-80859580D01*
X98738095Y-80859580D02*
X98785714Y-80764342D01*
X98785714Y-80764342D02*
X98785714Y-80526247D01*
X98785714Y-80526247D02*
X98738095Y-80431009D01*
X98738095Y-80431009D02*
X98690476Y-80383390D01*
X98690476Y-80383390D02*
X98595238Y-80335771D01*
X98595238Y-80335771D02*
X98404762Y-80335771D01*
X98404762Y-80335771D02*
X98309524Y-80383390D01*
X98309524Y-80383390D02*
X98261905Y-80431009D01*
X98261905Y-80431009D02*
X98214286Y-80526247D01*
X145833333Y-112254819D02*
X145500000Y-111778628D01*
X145261905Y-112254819D02*
X145261905Y-111254819D01*
X145261905Y-111254819D02*
X145642857Y-111254819D01*
X145642857Y-111254819D02*
X145738095Y-111302438D01*
X145738095Y-111302438D02*
X145785714Y-111350057D01*
X145785714Y-111350057D02*
X145833333Y-111445295D01*
X145833333Y-111445295D02*
X145833333Y-111588152D01*
X145833333Y-111588152D02*
X145785714Y-111683390D01*
X145785714Y-111683390D02*
X145738095Y-111731009D01*
X145738095Y-111731009D02*
X145642857Y-111778628D01*
X145642857Y-111778628D02*
X145261905Y-111778628D01*
X146166667Y-111254819D02*
X146785714Y-111254819D01*
X146785714Y-111254819D02*
X146452381Y-111635771D01*
X146452381Y-111635771D02*
X146595238Y-111635771D01*
X146595238Y-111635771D02*
X146690476Y-111683390D01*
X146690476Y-111683390D02*
X146738095Y-111731009D01*
X146738095Y-111731009D02*
X146785714Y-111826247D01*
X146785714Y-111826247D02*
X146785714Y-112064342D01*
X146785714Y-112064342D02*
X146738095Y-112159580D01*
X146738095Y-112159580D02*
X146690476Y-112207200D01*
X146690476Y-112207200D02*
X146595238Y-112254819D01*
X146595238Y-112254819D02*
X146309524Y-112254819D01*
X146309524Y-112254819D02*
X146214286Y-112207200D01*
X146214286Y-112207200D02*
X146166667Y-112159580D01*
X96595833Y-84659580D02*
X96548214Y-84707200D01*
X96548214Y-84707200D02*
X96405357Y-84754819D01*
X96405357Y-84754819D02*
X96310119Y-84754819D01*
X96310119Y-84754819D02*
X96167262Y-84707200D01*
X96167262Y-84707200D02*
X96072024Y-84611961D01*
X96072024Y-84611961D02*
X96024405Y-84516723D01*
X96024405Y-84516723D02*
X95976786Y-84326247D01*
X95976786Y-84326247D02*
X95976786Y-84183390D01*
X95976786Y-84183390D02*
X96024405Y-83992914D01*
X96024405Y-83992914D02*
X96072024Y-83897676D01*
X96072024Y-83897676D02*
X96167262Y-83802438D01*
X96167262Y-83802438D02*
X96310119Y-83754819D01*
X96310119Y-83754819D02*
X96405357Y-83754819D01*
X96405357Y-83754819D02*
X96548214Y-83802438D01*
X96548214Y-83802438D02*
X96595833Y-83850057D01*
X96929167Y-83754819D02*
X97548214Y-83754819D01*
X97548214Y-83754819D02*
X97214881Y-84135771D01*
X97214881Y-84135771D02*
X97357738Y-84135771D01*
X97357738Y-84135771D02*
X97452976Y-84183390D01*
X97452976Y-84183390D02*
X97500595Y-84231009D01*
X97500595Y-84231009D02*
X97548214Y-84326247D01*
X97548214Y-84326247D02*
X97548214Y-84564342D01*
X97548214Y-84564342D02*
X97500595Y-84659580D01*
X97500595Y-84659580D02*
X97452976Y-84707200D01*
X97452976Y-84707200D02*
X97357738Y-84754819D01*
X97357738Y-84754819D02*
X97072024Y-84754819D01*
X97072024Y-84754819D02*
X96976786Y-84707200D01*
X96976786Y-84707200D02*
X96929167Y-84659580D01*
D15*
X125516190Y-74921979D02*
X125516190Y-75436026D01*
X125516190Y-75436026D02*
X125546428Y-75496502D01*
X125546428Y-75496502D02*
X125576666Y-75526741D01*
X125576666Y-75526741D02*
X125637142Y-75556979D01*
X125637142Y-75556979D02*
X125758095Y-75556979D01*
X125758095Y-75556979D02*
X125818571Y-75526741D01*
X125818571Y-75526741D02*
X125848809Y-75496502D01*
X125848809Y-75496502D02*
X125879047Y-75436026D01*
X125879047Y-75436026D02*
X125879047Y-74921979D01*
X126514047Y-75556979D02*
X126151190Y-75556979D01*
X126332618Y-75556979D02*
X126332618Y-74921979D01*
X126332618Y-74921979D02*
X126272142Y-75012693D01*
X126272142Y-75012693D02*
X126211666Y-75073169D01*
X126211666Y-75073169D02*
X126151190Y-75103407D01*
D12*
X96395833Y-87259580D02*
X96348214Y-87307200D01*
X96348214Y-87307200D02*
X96205357Y-87354819D01*
X96205357Y-87354819D02*
X96110119Y-87354819D01*
X96110119Y-87354819D02*
X95967262Y-87307200D01*
X95967262Y-87307200D02*
X95872024Y-87211961D01*
X95872024Y-87211961D02*
X95824405Y-87116723D01*
X95824405Y-87116723D02*
X95776786Y-86926247D01*
X95776786Y-86926247D02*
X95776786Y-86783390D01*
X95776786Y-86783390D02*
X95824405Y-86592914D01*
X95824405Y-86592914D02*
X95872024Y-86497676D01*
X95872024Y-86497676D02*
X95967262Y-86402438D01*
X95967262Y-86402438D02*
X96110119Y-86354819D01*
X96110119Y-86354819D02*
X96205357Y-86354819D01*
X96205357Y-86354819D02*
X96348214Y-86402438D01*
X96348214Y-86402438D02*
X96395833Y-86450057D01*
X97252976Y-86688152D02*
X97252976Y-87354819D01*
X97014881Y-86307200D02*
X96776786Y-87021485D01*
X96776786Y-87021485D02*
X97395833Y-87021485D01*
X162011905Y-86104819D02*
X162011905Y-85104819D01*
X162011905Y-85104819D02*
X162250000Y-85104819D01*
X162250000Y-85104819D02*
X162392857Y-85152438D01*
X162392857Y-85152438D02*
X162488095Y-85247676D01*
X162488095Y-85247676D02*
X162535714Y-85342914D01*
X162535714Y-85342914D02*
X162583333Y-85533390D01*
X162583333Y-85533390D02*
X162583333Y-85676247D01*
X162583333Y-85676247D02*
X162535714Y-85866723D01*
X162535714Y-85866723D02*
X162488095Y-85961961D01*
X162488095Y-85961961D02*
X162392857Y-86057200D01*
X162392857Y-86057200D02*
X162250000Y-86104819D01*
X162250000Y-86104819D02*
X162011905Y-86104819D01*
X163535714Y-86104819D02*
X162964286Y-86104819D01*
X163250000Y-86104819D02*
X163250000Y-85104819D01*
X163250000Y-85104819D02*
X163154762Y-85247676D01*
X163154762Y-85247676D02*
X163059524Y-85342914D01*
X163059524Y-85342914D02*
X162964286Y-85390533D01*
X116695833Y-110054819D02*
X116362500Y-109578628D01*
X116124405Y-110054819D02*
X116124405Y-109054819D01*
X116124405Y-109054819D02*
X116505357Y-109054819D01*
X116505357Y-109054819D02*
X116600595Y-109102438D01*
X116600595Y-109102438D02*
X116648214Y-109150057D01*
X116648214Y-109150057D02*
X116695833Y-109245295D01*
X116695833Y-109245295D02*
X116695833Y-109388152D01*
X116695833Y-109388152D02*
X116648214Y-109483390D01*
X116648214Y-109483390D02*
X116600595Y-109531009D01*
X116600595Y-109531009D02*
X116505357Y-109578628D01*
X116505357Y-109578628D02*
X116124405Y-109578628D01*
X117029167Y-109054819D02*
X117695833Y-109054819D01*
X117695833Y-109054819D02*
X117267262Y-110054819D01*
X145883333Y-93304819D02*
X145550000Y-92828628D01*
X145311905Y-93304819D02*
X145311905Y-92304819D01*
X145311905Y-92304819D02*
X145692857Y-92304819D01*
X145692857Y-92304819D02*
X145788095Y-92352438D01*
X145788095Y-92352438D02*
X145835714Y-92400057D01*
X145835714Y-92400057D02*
X145883333Y-92495295D01*
X145883333Y-92495295D02*
X145883333Y-92638152D01*
X145883333Y-92638152D02*
X145835714Y-92733390D01*
X145835714Y-92733390D02*
X145788095Y-92781009D01*
X145788095Y-92781009D02*
X145692857Y-92828628D01*
X145692857Y-92828628D02*
X145311905Y-92828628D01*
X146359524Y-93304819D02*
X146550000Y-93304819D01*
X146550000Y-93304819D02*
X146645238Y-93257200D01*
X146645238Y-93257200D02*
X146692857Y-93209580D01*
X146692857Y-93209580D02*
X146788095Y-93066723D01*
X146788095Y-93066723D02*
X146835714Y-92876247D01*
X146835714Y-92876247D02*
X146835714Y-92495295D01*
X146835714Y-92495295D02*
X146788095Y-92400057D01*
X146788095Y-92400057D02*
X146740476Y-92352438D01*
X146740476Y-92352438D02*
X146645238Y-92304819D01*
X146645238Y-92304819D02*
X146454762Y-92304819D01*
X146454762Y-92304819D02*
X146359524Y-92352438D01*
X146359524Y-92352438D02*
X146311905Y-92400057D01*
X146311905Y-92400057D02*
X146264286Y-92495295D01*
X146264286Y-92495295D02*
X146264286Y-92733390D01*
X146264286Y-92733390D02*
X146311905Y-92828628D01*
X146311905Y-92828628D02*
X146359524Y-92876247D01*
X146359524Y-92876247D02*
X146454762Y-92923866D01*
X146454762Y-92923866D02*
X146645238Y-92923866D01*
X146645238Y-92923866D02*
X146740476Y-92876247D01*
X146740476Y-92876247D02*
X146788095Y-92828628D01*
X146788095Y-92828628D02*
X146835714Y-92733390D01*
D16*
%TO.C,J9*%
X94810000Y-104910000D02*
X94810000Y-103990000D01*
X94810000Y-103990000D02*
X93210000Y-103990000D01*
X94810000Y-99710000D02*
X94810000Y-98790000D01*
X94810000Y-98790000D02*
X86990000Y-98790000D01*
X93210000Y-104910000D02*
X93210000Y-103990000D01*
X93210000Y-103990000D02*
X93210000Y-103710000D01*
X93210000Y-99990000D02*
X94425000Y-99990000D01*
X93210000Y-99990000D02*
X93210000Y-99710000D01*
X93210000Y-99710000D02*
X94810000Y-99710000D01*
X93210000Y-98790000D02*
X93210000Y-99710000D01*
X91350000Y-102350000D02*
X86990000Y-102350000D01*
X91350000Y-101350000D02*
X91350000Y-102350000D01*
X90850000Y-104150000D02*
X89250000Y-104150000D01*
X90850000Y-103150000D02*
X90850000Y-104150000D01*
X90850000Y-100550000D02*
X90850000Y-99550000D01*
X90850000Y-99550000D02*
X89250000Y-99550000D01*
X89250000Y-104150000D02*
X89250000Y-103150000D01*
X89250000Y-103150000D02*
X90850000Y-103150000D01*
X89250000Y-100550000D02*
X90850000Y-100550000D01*
X89250000Y-100550000D02*
X86990000Y-100550000D01*
X89250000Y-100050000D02*
X86990000Y-100050000D01*
X89250000Y-99550000D02*
X89250000Y-100550000D01*
X86990000Y-104910000D02*
X94810000Y-104910000D01*
X86990000Y-101350000D02*
X91350000Y-101350000D01*
X86990000Y-98790000D02*
X86990000Y-104910000D01*
%TO.C,C2*%
X109611252Y-78515000D02*
X109088748Y-78515000D01*
X109611252Y-79985000D02*
X109088748Y-79985000D01*
%TO.C,C18*%
X149461252Y-87265000D02*
X148938748Y-87265000D01*
X149461252Y-88735000D02*
X148938748Y-88735000D01*
%TO.C,C20*%
X111288748Y-100165000D02*
X111811252Y-100165000D01*
X111288748Y-101635000D02*
X111811252Y-101635000D01*
%TO.C,C15*%
X152111252Y-83265000D02*
X151588748Y-83265000D01*
X152111252Y-84735000D02*
X151588748Y-84735000D01*
%TO.C,C1*%
X111938748Y-90215000D02*
X112461252Y-90215000D01*
X111938748Y-91685000D02*
X112461252Y-91685000D01*
%TO.C,C17*%
X158188748Y-95815000D02*
X158711252Y-95815000D01*
X158188748Y-97285000D02*
X158711252Y-97285000D01*
%TO.C,C11*%
X135515000Y-113011252D02*
X135515000Y-112488748D01*
X136985000Y-113011252D02*
X136985000Y-112488748D01*
D17*
%TO.C,IC1*%
X103350000Y-82850000D02*
X103350000Y-82850000D01*
X103450000Y-82850000D02*
X103450000Y-82850000D01*
X103350000Y-82850000D02*
G75*
G02*
X103450000Y-82850000I50000J0D01*
G01*
X103450000Y-82850000D02*
G75*
G02*
X103350000Y-82850000I-50000J0D01*
G01*
D16*
%TO.C,J12*%
X119120000Y-89820000D02*
X120500000Y-89820000D01*
X119120000Y-91200000D02*
X119120000Y-89820000D01*
X119120000Y-92470000D02*
X119120000Y-92580000D01*
X119120000Y-92470000D02*
X121880000Y-92470000D01*
X119120000Y-92580000D02*
X121880000Y-92580000D01*
X121880000Y-92470000D02*
X121880000Y-92580000D01*
D18*
%TO.C,L1*%
X157600000Y-82900000D02*
X157900000Y-82900000D01*
X157600000Y-85100000D02*
X157900000Y-85100000D01*
%TO.C,MK1*%
X152100000Y-103850000D02*
G75*
G02*
X146100000Y-103850000I-3000000J0D01*
G01*
X146100000Y-103850000D02*
G75*
G02*
X152100000Y-103850000I3000000J0D01*
G01*
D16*
%TO.C,R10*%
X158627064Y-92165000D02*
X158172936Y-92165000D01*
X158627064Y-93635000D02*
X158172936Y-93635000D01*
%TO.C,R8*%
X111572936Y-110965000D02*
X112027064Y-110965000D01*
X111572936Y-112435000D02*
X112027064Y-112435000D01*
%TO.C,J11*%
X119120000Y-86120000D02*
X120500000Y-86120000D01*
X119120000Y-87500000D02*
X119120000Y-86120000D01*
X119120000Y-88770000D02*
X119120000Y-88880000D01*
X119120000Y-88770000D02*
X121880000Y-88770000D01*
X119120000Y-88880000D02*
X121880000Y-88880000D01*
X121880000Y-88770000D02*
X121880000Y-88880000D01*
D19*
%TO.C,U2*%
X137474500Y-107909741D02*
X137474500Y-108290259D01*
X137474500Y-109306500D02*
X139125500Y-109306500D01*
X139125500Y-106893500D02*
X137474500Y-106893500D01*
D16*
%TO.C,R6*%
X153872936Y-92165000D02*
X154327064Y-92165000D01*
X153872936Y-93635000D02*
X154327064Y-93635000D01*
%TO.C,R4*%
X134477500Y-105945276D02*
X134477500Y-106454724D01*
X135522500Y-105945276D02*
X135522500Y-106454724D01*
%TO.C,C10*%
X99301248Y-88465000D02*
X99823752Y-88465000D01*
X99301248Y-89935000D02*
X99823752Y-89935000D01*
%TO.C,J5*%
X156870000Y-104870000D02*
X158200000Y-104870000D01*
X156870000Y-106200000D02*
X156870000Y-104870000D01*
X156870000Y-107470000D02*
X156870000Y-107530000D01*
X156870000Y-107470000D02*
X159530000Y-107470000D01*
X156870000Y-107530000D02*
X159530000Y-107530000D01*
X159530000Y-107470000D02*
X159530000Y-107530000D01*
%TO.C,J7*%
X109420000Y-113670000D02*
X110800000Y-113670000D01*
X109420000Y-115050000D02*
X109420000Y-113670000D01*
X109420000Y-116320000D02*
X109420000Y-116430000D01*
X109420000Y-116320000D02*
X112180000Y-116320000D01*
X109420000Y-116430000D02*
X112180000Y-116430000D01*
X112180000Y-116320000D02*
X112180000Y-116430000D01*
D20*
%TO.C,U5*%
X104074999Y-99650001D02*
X106049999Y-99650001D01*
X105300001Y-102749999D02*
X106075003Y-102749999D01*
D16*
%TO.C,C5*%
X105361252Y-92365000D02*
X104838748Y-92365000D01*
X105361252Y-93835000D02*
X104838748Y-93835000D01*
%TO.C,C12*%
X143461252Y-106565000D02*
X142938748Y-106565000D01*
X143461252Y-108035000D02*
X142938748Y-108035000D01*
%TO.C,J6*%
X120270000Y-106120000D02*
X121650000Y-106120000D01*
X120270000Y-107500000D02*
X120270000Y-106120000D01*
X120270000Y-108770000D02*
X120270000Y-108880000D01*
X120270000Y-108770000D02*
X123030000Y-108770000D01*
X120270000Y-108880000D02*
X123030000Y-108880000D01*
X123030000Y-108770000D02*
X123030000Y-108880000D01*
%TO.C,JP2*%
X117050000Y-100800000D02*
X117050000Y-100200000D01*
X117700000Y-99500000D02*
X120500000Y-99500000D01*
X120500000Y-101500000D02*
X117700000Y-101500000D01*
X121150000Y-100200000D02*
X121150000Y-100800000D01*
X117050000Y-100200000D02*
G75*
G02*
X117750000Y-99500000I700000J0D01*
G01*
X117750000Y-101500000D02*
G75*
G02*
X117050000Y-100800000I0J700000D01*
G01*
X120450000Y-99500000D02*
G75*
G02*
X121150000Y-100200000I1J-699999D01*
G01*
X121150000Y-100800000D02*
G75*
G02*
X120450000Y-101500000I-699999J-1D01*
G01*
%TO.C,R11*%
X149427064Y-89665000D02*
X148972936Y-89665000D01*
X149427064Y-91135000D02*
X148972936Y-91135000D01*
%TO.C,J8*%
X151590000Y-71540000D02*
X151590000Y-79360000D01*
X151590000Y-77760000D02*
X152510000Y-77760000D01*
X151590000Y-79360000D02*
X152510000Y-79360000D01*
X152350000Y-73800000D02*
X153350000Y-73800000D01*
X152350000Y-75400000D02*
X152350000Y-73800000D01*
X152510000Y-77760000D02*
X152790000Y-77760000D01*
X152510000Y-79360000D02*
X152510000Y-77760000D01*
X153350000Y-73800000D02*
X153350000Y-75400000D01*
X153350000Y-75400000D02*
X152350000Y-75400000D01*
X154150000Y-75900000D02*
X154150000Y-71540000D01*
X155150000Y-71540000D02*
X155150000Y-75900000D01*
X155150000Y-75900000D02*
X154150000Y-75900000D01*
X155950000Y-73800000D02*
X155950000Y-71540000D01*
X155950000Y-73800000D02*
X155950000Y-75400000D01*
X155950000Y-75400000D02*
X156950000Y-75400000D01*
X156450000Y-73800000D02*
X156450000Y-71540000D01*
X156510000Y-77760000D02*
X156510000Y-78975000D01*
X156510000Y-77760000D02*
X156790000Y-77760000D01*
X156790000Y-77760000D02*
X156790000Y-79360000D01*
X156790000Y-79360000D02*
X157710000Y-79360000D01*
X156950000Y-73800000D02*
X155950000Y-73800000D01*
X156950000Y-75400000D02*
X156950000Y-73800000D01*
X157710000Y-71540000D02*
X151590000Y-71540000D01*
X157710000Y-77760000D02*
X156790000Y-77760000D01*
X157710000Y-79360000D02*
X157710000Y-71540000D01*
%TO.C,C7*%
X104961252Y-79315000D02*
X104438748Y-79315000D01*
X104961252Y-80785000D02*
X104438748Y-80785000D01*
%TO.C,J2*%
X140370000Y-101180000D02*
X140370000Y-101120000D01*
X143030000Y-101120000D02*
X140370000Y-101120000D01*
X143030000Y-101180000D02*
X140370000Y-101180000D01*
X143030000Y-101180000D02*
X143030000Y-101120000D01*
X143030000Y-102450000D02*
X143030000Y-103780000D01*
X143030000Y-103780000D02*
X141700000Y-103780000D01*
D20*
%TO.C,VR1*%
X99235000Y-113730000D02*
X99235000Y-115330000D01*
X99235000Y-115330000D02*
X100255000Y-115330000D01*
X100255000Y-113330000D02*
X100255000Y-115800000D01*
X100255000Y-113730000D02*
X99235000Y-113730000D01*
X100255000Y-115800000D02*
X106965000Y-115800000D01*
X106855000Y-111300000D02*
X100255000Y-111300000D01*
X106965000Y-115800000D02*
X106965000Y-113330000D01*
D17*
X107455000Y-112330000D02*
X107455000Y-112330000D01*
X107455000Y-112430000D02*
X107455000Y-112430000D01*
X107455000Y-112330000D02*
G75*
G02*
X107455000Y-112430000I0J-50000D01*
G01*
X107455000Y-112430000D02*
G75*
G02*
X107455000Y-112330000I0J50000D01*
G01*
D16*
%TO.C,R1*%
X142527064Y-111015000D02*
X142072936Y-111015000D01*
X142527064Y-112485000D02*
X142072936Y-112485000D01*
%TO.C,R12*%
X125139564Y-99765000D02*
X124685436Y-99765000D01*
X125139564Y-101235000D02*
X124685436Y-101235000D01*
%TO.C,C13*%
X130190000Y-106911252D02*
X130190000Y-105488748D01*
X132910000Y-106911252D02*
X132910000Y-105488748D01*
%TO.C,R2*%
X138165000Y-112372936D02*
X138165000Y-112827064D01*
X139635000Y-112372936D02*
X139635000Y-112827064D01*
D19*
%TO.C,U4*%
X153673600Y-90676400D02*
X157026400Y-90676400D01*
X157026400Y-87323600D02*
X153673600Y-87323600D01*
D16*
%TO.C,R5*%
X106972936Y-107015000D02*
X107427064Y-107015000D01*
X106972936Y-108485000D02*
X107427064Y-108485000D01*
%TO.C,J4*%
X125520000Y-111020000D02*
X126850000Y-111020000D01*
X125520000Y-112350000D02*
X125520000Y-111020000D01*
X125520000Y-113620000D02*
X125520000Y-113680000D01*
X125520000Y-113620000D02*
X128180000Y-113620000D01*
X125520000Y-113680000D02*
X128180000Y-113680000D01*
X128180000Y-113620000D02*
X128180000Y-113680000D01*
%TO.C,J3*%
X120320000Y-110970000D02*
X121650000Y-110970000D01*
X120320000Y-112300000D02*
X120320000Y-110970000D01*
X120320000Y-113570000D02*
X120320000Y-113630000D01*
X120320000Y-113570000D02*
X122980000Y-113570000D01*
X120320000Y-113630000D02*
X122980000Y-113630000D01*
X122980000Y-113570000D02*
X122980000Y-113630000D01*
%TO.C,C9*%
X115161252Y-83215000D02*
X114638748Y-83215000D01*
X115161252Y-84685000D02*
X114638748Y-84685000D01*
D20*
%TO.C,C19*%
X161900000Y-91475000D02*
X161900000Y-97700000D01*
X170200000Y-88200000D02*
X170200000Y-97700000D01*
D16*
%TO.C,J1*%
X125470000Y-106280000D02*
X125470000Y-106220000D01*
X128130000Y-106220000D02*
X125470000Y-106220000D01*
X128130000Y-106280000D02*
X125470000Y-106280000D01*
X128130000Y-106280000D02*
X128130000Y-106220000D01*
X128130000Y-107550000D02*
X128130000Y-108880000D01*
X128130000Y-108880000D02*
X126800000Y-108880000D01*
%TO.C,J13*%
X119120000Y-93720000D02*
X120500000Y-93720000D01*
X119120000Y-95100000D02*
X119120000Y-93720000D01*
X119120000Y-96370000D02*
X119120000Y-96480000D01*
X119120000Y-96370000D02*
X121880000Y-96370000D01*
X119120000Y-96480000D02*
X121880000Y-96480000D01*
X121880000Y-96370000D02*
X121880000Y-96480000D01*
%TO.C,J14*%
X161570000Y-104920000D02*
X162950000Y-104920000D01*
X161570000Y-106300000D02*
X161570000Y-104920000D01*
X161570000Y-107570000D02*
X161570000Y-107680000D01*
X161570000Y-107570000D02*
X164330000Y-107570000D01*
X161570000Y-107680000D02*
X164330000Y-107680000D01*
X164330000Y-107570000D02*
X164330000Y-107680000D01*
%TO.C,C16*%
X100061252Y-100265000D02*
X99538748Y-100265000D01*
X100061252Y-101735000D02*
X99538748Y-101735000D01*
%TO.C,U3*%
X111962500Y-106990000D02*
X111162500Y-106990000D01*
X111962500Y-106990000D02*
X112762500Y-106990000D01*
X111962500Y-110110000D02*
X111162500Y-110110000D01*
X111962500Y-110110000D02*
X112762500Y-110110000D01*
X110662500Y-107040000D02*
X110422500Y-106710000D01*
X110902500Y-106710000D01*
X110662500Y-107040000D01*
G36*
X110662500Y-107040000D02*
G01*
X110422500Y-106710000D01*
X110902500Y-106710000D01*
X110662500Y-107040000D01*
G37*
%TO.C,C8*%
X115161252Y-86665000D02*
X114638748Y-86665000D01*
X115161252Y-88135000D02*
X114638748Y-88135000D01*
%TO.C,C6*%
X101011252Y-80015000D02*
X100488748Y-80015000D01*
X101011252Y-81485000D02*
X100488748Y-81485000D01*
%TO.C,R3*%
X146227064Y-109415000D02*
X145772936Y-109415000D01*
X146227064Y-110885000D02*
X145772936Y-110885000D01*
%TO.C,C3*%
X100073752Y-83415000D02*
X99551248Y-83415000D01*
X100073752Y-84885000D02*
X99551248Y-84885000D01*
%TO.C,J10*%
X119120000Y-82320000D02*
X120500000Y-82320000D01*
X119120000Y-83700000D02*
X119120000Y-82320000D01*
X119120000Y-84970000D02*
X119120000Y-85080000D01*
X119120000Y-84970000D02*
X121880000Y-84970000D01*
X119120000Y-85080000D02*
X121880000Y-85080000D01*
X121880000Y-84970000D02*
X121880000Y-85080000D01*
D18*
%TO.C,U1*%
X125110000Y-95777500D02*
X125110000Y-78632500D01*
X127015000Y-97682500D02*
X140985000Y-97682500D01*
X129505000Y-76727500D02*
X129508728Y-75717228D01*
X130008728Y-75217500D02*
X138004000Y-75217500D01*
X138504000Y-75717500D02*
X138504000Y-76727500D01*
D17*
X140985000Y-76727500D02*
X127015000Y-76727500D01*
D18*
X140985000Y-76727500D02*
X127015000Y-76727500D01*
X142890000Y-95777500D02*
X142890000Y-78632500D01*
X125110000Y-78632500D02*
G75*
G02*
X127015000Y-76727500I1905001J-1D01*
G01*
X127015000Y-97682500D02*
G75*
G02*
X125110000Y-95777500I1J1905001D01*
G01*
X129508728Y-75717228D02*
G75*
G02*
X130008728Y-75217501I500018J-291D01*
G01*
X138004000Y-75217500D02*
G75*
G02*
X138504000Y-75717500I0J-500000D01*
G01*
X140985000Y-76727500D02*
G75*
G02*
X142890000Y-78632500I0J-1905000D01*
G01*
X142890000Y-95777500D02*
G75*
G02*
X140985000Y-97682500I-1905000J0D01*
G01*
D21*
X125348000Y-76868500D02*
G75*
G02*
X124844000Y-76868500I-252000J0D01*
G01*
X124844000Y-76868500D02*
G75*
G02*
X125348000Y-76868500I252000J0D01*
G01*
X126491000Y-77748500D02*
G75*
G02*
X125987000Y-77748500I-252000J0D01*
G01*
X125987000Y-77748500D02*
G75*
G02*
X126491000Y-77748500I252000J0D01*
G01*
D16*
%TO.C,C4*%
X99973752Y-86015000D02*
X99451248Y-86015000D01*
X99973752Y-87485000D02*
X99451248Y-87485000D01*
%TO.C,D1*%
X161750000Y-84960000D02*
X164610000Y-84960000D01*
X164610000Y-83040000D02*
X161750000Y-83040000D01*
X164610000Y-84960000D02*
X164610000Y-83040000D01*
%TO.C,R7*%
X117089564Y-107215000D02*
X116635436Y-107215000D01*
X117089564Y-108685000D02*
X116635436Y-108685000D01*
%TO.C,R9*%
X149377064Y-92015000D02*
X148922936Y-92015000D01*
X149377064Y-93485000D02*
X148922936Y-93485000D01*
%TD*%
M02*
