%TF.GenerationSoftware,KiCad,Pcbnew,9.0.1-rc1*%
%TF.CreationDate,2025-04-01T12:09:21-07:00*%
%TF.ProjectId,ECE_442_PCB,4543455f-3434-4325-9f50-43422e6b6963,rev?*%
%TF.SameCoordinates,Original*%
%TF.FileFunction,Copper,L2,Bot*%
%TF.FilePolarity,Positive*%
%FSLAX46Y46*%
G04 Gerber Fmt 4.6, Leading zero omitted, Abs format (unit mm)*
G04 Created by KiCad (PCBNEW 9.0.1-rc1) date 2025-04-01 12:09:21*
%MOMM*%
%LPD*%
G01*
G04 APERTURE LIST*
G04 Aperture macros list*
%AMRoundRect*
0 Rectangle with rounded corners*
0 $1 Rounding radius*
0 $2 $3 $4 $5 $6 $7 $8 $9 X,Y pos of 4 corners*
0 Add a 4 corners polygon primitive as box body*
4,1,4,$2,$3,$4,$5,$6,$7,$8,$9,$2,$3,0*
0 Add four circle primitives for the rounded corners*
1,1,$1+$1,$2,$3*
1,1,$1+$1,$4,$5*
1,1,$1+$1,$6,$7*
1,1,$1+$1,$8,$9*
0 Add four rect primitives between the rounded corners*
20,1,$1+$1,$2,$3,$4,$5,0*
20,1,$1+$1,$4,$5,$6,$7,0*
20,1,$1+$1,$6,$7,$8,$9,0*
20,1,$1+$1,$8,$9,$2,$3,0*%
G04 Aperture macros list end*
%TA.AperFunction,ComponentPad*%
%ADD10O,1.750000X1.200000*%
%TD*%
%TA.AperFunction,ComponentPad*%
%ADD11RoundRect,0.250000X-0.625000X0.350000X-0.625000X-0.350000X0.625000X-0.350000X0.625000X0.350000X0*%
%TD*%
%TA.AperFunction,ComponentPad*%
%ADD12R,1.700000X1.700000*%
%TD*%
%TA.AperFunction,ComponentPad*%
%ADD13C,1.208000*%
%TD*%
%TA.AperFunction,ComponentPad*%
%ADD14RoundRect,0.250000X0.350000X0.625000X-0.350000X0.625000X-0.350000X-0.625000X0.350000X-0.625000X0*%
%TD*%
%TA.AperFunction,ComponentPad*%
%ADD15O,1.200000X1.750000*%
%TD*%
%TA.AperFunction,ComponentPad*%
%ADD16R,1.210000X1.210000*%
%TD*%
%TA.AperFunction,ComponentPad*%
%ADD17C,1.210000*%
%TD*%
%TA.AperFunction,ComponentPad*%
%ADD18C,1.524000*%
%TD*%
%TA.AperFunction,ViaPad*%
%ADD19C,0.600000*%
%TD*%
%TA.AperFunction,Conductor*%
%ADD20C,0.203200*%
%TD*%
%TA.AperFunction,Conductor*%
%ADD21C,0.200000*%
%TD*%
G04 APERTURE END LIST*
D10*
%TO.P,J9,2,Pin_2*%
%TO.N,GND*%
X93350000Y-102850000D03*
D11*
%TO.P,J9,1,Pin_1*%
%TO.N,Net-(J9-Pin_1)*%
X93350000Y-100850000D03*
%TD*%
D12*
%TO.P,J12,1,Pin_1*%
%TO.N,BCLK*%
X120500000Y-91200000D03*
%TD*%
D13*
%TO.P,MK1,GND*%
%TO.N,GND*%
X148100000Y-104800000D03*
%TO.P,MK1,OUT*%
%TO.N,/MIC*%
X148100000Y-102900000D03*
%TD*%
D12*
%TO.P,J11,1,Pin_1*%
%TO.N,FSYNC*%
X120500000Y-87500000D03*
%TD*%
%TO.P,J5,1,Pin_1*%
%TO.N,PS_5V_0.5A*%
X158200000Y-106200000D03*
%TD*%
%TO.P,J7,1,Pin_1*%
%TO.N,VA*%
X110800000Y-115050000D03*
%TD*%
%TO.P,J6,1,Pin_1*%
%TO.N,INT*%
X121650000Y-107500000D03*
%TD*%
D14*
%TO.P,J8,1,Pin_1*%
%TO.N,Net-(J8-Pin_1)*%
X155650000Y-77900000D03*
D15*
%TO.P,J8,2,Pin_2*%
%TO.N,GND*%
X153650000Y-77900000D03*
%TD*%
D12*
%TO.P,J2,1,Pin_1*%
%TO.N,MIC_IN*%
X141700000Y-102450000D03*
%TD*%
D16*
%TO.P,VR1,1,CCW*%
%TO.N,VA*%
X106095000Y-112320000D03*
D17*
%TO.P,VR1,2,WIPER*%
%TO.N,GND*%
X103555000Y-114860000D03*
%TO.P,VR1,3,CW*%
%TO.N,unconnected-(VR1-CW-Pad3)*%
X101015000Y-112320000D03*
%TD*%
D12*
%TO.P,J4,1,Pin_1*%
%TO.N,GND*%
X126850000Y-112350000D03*
%TD*%
%TO.P,J3,1,Pin_1*%
%TO.N,PS_3.3V*%
X121650000Y-112300000D03*
%TD*%
%TO.P,J1,1,Pin_1*%
%TO.N,MIC1_OUT*%
X126800000Y-107550000D03*
%TD*%
%TO.P,J13,1,Pin_1*%
%TO.N,SDOUT*%
X120500000Y-95100000D03*
%TD*%
%TO.P,J14,1,Pin_1*%
%TO.N,GND*%
X162950000Y-106300000D03*
%TD*%
%TO.P,J10,1,Pin_1*%
%TO.N,SHDNZ*%
X120500000Y-83700000D03*
%TD*%
D18*
%TO.P,U1,1,PA02_A0_D0*%
%TO.N,unconnected-(U1-PA02_A0_D0-Pad1)*%
X126380000Y-79648500D03*
%TO.P,U1,2,PA4_A1_D1*%
%TO.N,unconnected-(U1-PA4_A1_D1-Pad2)*%
X126380000Y-82188500D03*
%TO.P,U1,3,PA10_A2_D2*%
%TO.N,OUT1*%
X126380000Y-84728500D03*
%TO.P,U1,4,PA11_A3_D3*%
%TO.N,SHDNZ*%
X126380000Y-87268500D03*
%TO.P,U1,5,PA8_A4_D4_SDA*%
%TO.N,FSYNC*%
X126380000Y-89808500D03*
%TO.P,U1,6,PA9_A5_D5_SCL*%
%TO.N,BCLK*%
X126380000Y-92348500D03*
%TO.P,U1,7,PB08_A6_TX*%
%TO.N,SDOUT*%
X126380000Y-94888500D03*
%TO.P,U1,8,PB09_D7_RX*%
%TO.N,unconnected-(U1-PB09_D7_RX-Pad8)*%
X141620000Y-94888500D03*
%TO.P,U1,9,PA7_A8_D8_SCK*%
%TO.N,unconnected-(U1-PA7_A8_D8_SCK-Pad9)*%
X141620000Y-92348500D03*
%TO.P,U1,10,PA5_A9_D9_MISO*%
%TO.N,unconnected-(U1-PA5_A9_D9_MISO-Pad10)*%
X141620000Y-89808500D03*
%TO.P,U1,11,PA6_A10_D10_MOSI*%
%TO.N,INT*%
X141620000Y-87268500D03*
%TO.P,U1,12,3V3*%
%TO.N,unconnected-(U1-3V3-Pad12)*%
X141620000Y-84728500D03*
%TO.P,U1,13,GND*%
%TO.N,GND*%
X141620000Y-82188500D03*
%TO.P,U1,14,5V*%
%TO.N,PS_5V_0.5A*%
X141620000Y-79648500D03*
%TD*%
D19*
%TO.N,GND*%
X165900000Y-99800000D03*
X104550000Y-89000000D03*
X160700000Y-96600000D03*
X116950000Y-83950000D03*
X106900000Y-79200000D03*
X107150000Y-91250000D03*
X111475000Y-88075000D03*
X127100000Y-100200000D03*
X137750000Y-114800000D03*
X108950000Y-81954800D03*
X112650000Y-108550000D03*
X149700000Y-84000000D03*
X98500000Y-102800000D03*
X109950000Y-91000000D03*
X95500000Y-104300000D03*
X111700000Y-85650000D03*
X99000000Y-82450000D03*
X108065199Y-87342351D03*
X140269572Y-108118878D03*
X111650000Y-79350000D03*
X153032250Y-87132250D03*
X105700000Y-101400000D03*
X97750000Y-88000000D03*
X102600000Y-84600000D03*
X109600000Y-84050000D03*
X114100000Y-100900000D03*
X116850000Y-87350000D03*
X148100000Y-94200000D03*
X158400000Y-90800000D03*
X102550000Y-86650000D03*
%TO.N,SHDNZ*%
X111750000Y-87300000D03*
%TO.N,PS_3.3V*%
X110600000Y-82850000D03*
X112100000Y-84350000D03*
%TD*%
D20*
%TO.N,SHDNZ*%
X111750000Y-87300000D02*
X116000000Y-87300000D01*
X119600000Y-83700000D02*
X120500000Y-83700000D01*
X116000000Y-87300000D02*
X119600000Y-83700000D01*
X120500000Y-83700000D02*
X122811500Y-83700000D01*
X122811500Y-83700000D02*
X126380000Y-87268500D01*
D21*
%TO.N,INT*%
X121650000Y-107500000D02*
X121650000Y-107238500D01*
X121650000Y-107238500D02*
X141620000Y-87268500D01*
D20*
%TO.N,unconnected-(U1-PA02_A0_D0-Pad1)*%
X126241500Y-79510000D02*
X126380000Y-79648500D01*
%TD*%
%TA.AperFunction,Conductor*%
%TO.N,GND*%
G36*
X170542411Y-75020870D02*
G01*
X170588231Y-75073618D01*
X170599500Y-75125268D01*
X170599500Y-117275500D01*
X170579815Y-117342539D01*
X170527011Y-117388294D01*
X170475500Y-117399500D01*
X90424500Y-117399500D01*
X90357461Y-117379815D01*
X90311706Y-117327011D01*
X90300500Y-117275500D01*
X90300500Y-114643713D01*
X91999500Y-114643713D01*
X91999500Y-114856286D01*
X92015338Y-114956287D01*
X92032754Y-115066243D01*
X92080618Y-115213554D01*
X92098444Y-115268414D01*
X92194951Y-115457820D01*
X92319890Y-115629786D01*
X92470213Y-115780109D01*
X92642179Y-115905048D01*
X92642181Y-115905049D01*
X92642184Y-115905051D01*
X92831588Y-116001557D01*
X93033757Y-116067246D01*
X93243713Y-116100500D01*
X93243714Y-116100500D01*
X93456286Y-116100500D01*
X93456287Y-116100500D01*
X93666243Y-116067246D01*
X93868412Y-116001557D01*
X94057816Y-115905051D01*
X94079789Y-115889086D01*
X94202588Y-115799869D01*
X102968683Y-115799869D01*
X102975854Y-115805081D01*
X103130826Y-115884044D01*
X103130829Y-115884045D01*
X103296243Y-115937790D01*
X103468036Y-115965000D01*
X103641964Y-115965000D01*
X103813756Y-115937790D01*
X103979170Y-115884045D01*
X103979173Y-115884044D01*
X104134145Y-115805080D01*
X104141316Y-115799869D01*
X103555001Y-115213554D01*
X103555000Y-115213554D01*
X102968683Y-115799869D01*
X94202588Y-115799869D01*
X94229786Y-115780109D01*
X94229788Y-115780106D01*
X94229792Y-115780104D01*
X94380104Y-115629792D01*
X94380106Y-115629788D01*
X94380109Y-115629786D01*
X94505048Y-115457820D01*
X94505047Y-115457820D01*
X94505051Y-115457816D01*
X94601557Y-115268412D01*
X94667246Y-115066243D01*
X94700500Y-114856287D01*
X94700500Y-114773035D01*
X102450000Y-114773035D01*
X102450000Y-114946964D01*
X102477209Y-115118756D01*
X102530954Y-115284170D01*
X102530955Y-115284173D01*
X102609919Y-115439146D01*
X102615129Y-115446316D01*
X103201446Y-114860000D01*
X103201446Y-114859999D01*
X103158002Y-114816555D01*
X103225000Y-114816555D01*
X103225000Y-114903445D01*
X103247489Y-114987375D01*
X103290934Y-115062625D01*
X103352375Y-115124066D01*
X103427625Y-115167511D01*
X103511555Y-115190000D01*
X103598445Y-115190000D01*
X103682375Y-115167511D01*
X103757625Y-115124066D01*
X103819066Y-115062625D01*
X103862511Y-114987375D01*
X103885000Y-114903445D01*
X103885000Y-114859999D01*
X103908554Y-114859999D01*
X103908554Y-114860001D01*
X104494869Y-115446316D01*
X104500080Y-115439145D01*
X104579044Y-115284173D01*
X104579045Y-115284170D01*
X104632790Y-115118756D01*
X104660000Y-114946964D01*
X104660000Y-114773035D01*
X104632790Y-114601243D01*
X104579045Y-114435829D01*
X104579044Y-114435826D01*
X104500081Y-114280854D01*
X104494869Y-114273683D01*
X103908554Y-114859999D01*
X103885000Y-114859999D01*
X103885000Y-114816555D01*
X103862511Y-114732625D01*
X103819066Y-114657375D01*
X103757625Y-114595934D01*
X103682375Y-114552489D01*
X103598445Y-114530000D01*
X103511555Y-114530000D01*
X103427625Y-114552489D01*
X103352375Y-114595934D01*
X103290934Y-114657375D01*
X103247489Y-114732625D01*
X103225000Y-114816555D01*
X103158002Y-114816555D01*
X102615129Y-114273682D01*
X102609918Y-114280854D01*
X102530955Y-114435826D01*
X102530954Y-114435829D01*
X102477209Y-114601243D01*
X102450000Y-114773035D01*
X94700500Y-114773035D01*
X94700500Y-114643713D01*
X94667246Y-114433757D01*
X94601557Y-114231588D01*
X94505051Y-114042184D01*
X94504881Y-114041950D01*
X94503664Y-114040274D01*
X94416375Y-113920129D01*
X102968682Y-113920129D01*
X103555000Y-114506446D01*
X103555001Y-114506446D01*
X103881199Y-114180247D01*
X109749500Y-114180247D01*
X109749500Y-115919752D01*
X109761131Y-115978229D01*
X109761132Y-115978230D01*
X109805447Y-116044552D01*
X109871769Y-116088867D01*
X109871770Y-116088868D01*
X109930247Y-116100499D01*
X109930250Y-116100500D01*
X109930252Y-116100500D01*
X111669750Y-116100500D01*
X111669751Y-116100499D01*
X111684568Y-116097552D01*
X111728229Y-116088868D01*
X111728229Y-116088867D01*
X111728231Y-116088867D01*
X111794552Y-116044552D01*
X111838867Y-115978231D01*
X111838867Y-115978229D01*
X111838868Y-115978229D01*
X111850499Y-115919752D01*
X111850500Y-115919750D01*
X111850500Y-114743713D01*
X166699500Y-114743713D01*
X166699500Y-114956286D01*
X166725232Y-115118756D01*
X166732754Y-115166243D01*
X166748126Y-115213554D01*
X166798444Y-115368414D01*
X166894951Y-115557820D01*
X167019890Y-115729786D01*
X167170213Y-115880109D01*
X167342179Y-116005048D01*
X167342181Y-116005049D01*
X167342184Y-116005051D01*
X167531588Y-116101557D01*
X167733757Y-116167246D01*
X167943713Y-116200500D01*
X167943714Y-116200500D01*
X168156286Y-116200500D01*
X168156287Y-116200500D01*
X168366243Y-116167246D01*
X168568412Y-116101557D01*
X168757816Y-116005051D01*
X168812942Y-115965000D01*
X168929786Y-115880109D01*
X168929788Y-115880106D01*
X168929792Y-115880104D01*
X169080104Y-115729792D01*
X169080106Y-115729788D01*
X169080109Y-115729786D01*
X169205048Y-115557820D01*
X169205047Y-115557820D01*
X169205051Y-115557816D01*
X169301557Y-115368412D01*
X169367246Y-115166243D01*
X169400500Y-114956287D01*
X169400500Y-114743713D01*
X169367246Y-114533757D01*
X169301557Y-114331588D01*
X169205051Y-114142184D01*
X169205049Y-114142181D01*
X169205048Y-114142179D01*
X169080109Y-113970213D01*
X168929786Y-113819890D01*
X168757820Y-113694951D01*
X168568414Y-113598444D01*
X168568413Y-113598443D01*
X168568412Y-113598443D01*
X168366243Y-113532754D01*
X168366241Y-113532753D01*
X168366240Y-113532753D01*
X168204957Y-113507208D01*
X168156287Y-113499500D01*
X167943713Y-113499500D01*
X167895042Y-113507208D01*
X167733760Y-113532753D01*
X167531585Y-113598444D01*
X167342179Y-113694951D01*
X167170213Y-113819890D01*
X167019890Y-113970213D01*
X166894951Y-114142179D01*
X166798444Y-114331585D01*
X166732753Y-114533760D01*
X166699500Y-114743713D01*
X111850500Y-114743713D01*
X111850500Y-114180249D01*
X111850499Y-114180247D01*
X111838868Y-114121770D01*
X111838867Y-114121769D01*
X111794552Y-114055447D01*
X111728230Y-114011132D01*
X111728229Y-114011131D01*
X111669752Y-113999500D01*
X111669748Y-113999500D01*
X109930252Y-113999500D01*
X109930247Y-113999500D01*
X109871770Y-114011131D01*
X109871769Y-114011132D01*
X109805447Y-114055447D01*
X109761132Y-114121769D01*
X109761131Y-114121770D01*
X109749500Y-114180247D01*
X103881199Y-114180247D01*
X104141316Y-113920129D01*
X104134146Y-113914919D01*
X103979173Y-113835955D01*
X103979170Y-113835954D01*
X103813756Y-113782209D01*
X103641964Y-113755000D01*
X103468036Y-113755000D01*
X103296243Y-113782209D01*
X103130829Y-113835954D01*
X103130826Y-113835955D01*
X102975854Y-113914918D01*
X102968682Y-113920129D01*
X94416375Y-113920129D01*
X94380109Y-113870213D01*
X94229786Y-113719890D01*
X94057820Y-113594951D01*
X93868414Y-113498444D01*
X93868413Y-113498443D01*
X93868412Y-113498443D01*
X93666243Y-113432754D01*
X93666241Y-113432753D01*
X93666240Y-113432753D01*
X93504957Y-113407208D01*
X93456287Y-113399500D01*
X93243713Y-113399500D01*
X93195042Y-113407208D01*
X93033760Y-113432753D01*
X92831585Y-113498444D01*
X92642179Y-113594951D01*
X92470213Y-113719890D01*
X92319890Y-113870213D01*
X92194951Y-114042179D01*
X92098444Y-114231585D01*
X92032753Y-114433760D01*
X91999500Y-114643713D01*
X90300500Y-114643713D01*
X90300500Y-112240660D01*
X100209500Y-112240660D01*
X100209500Y-112399339D01*
X100240453Y-112554948D01*
X100240455Y-112554956D01*
X100301174Y-112701543D01*
X100301179Y-112701553D01*
X100389327Y-112833475D01*
X100389330Y-112833479D01*
X100501520Y-112945669D01*
X100501524Y-112945672D01*
X100633446Y-113033820D01*
X100633450Y-113033822D01*
X100633453Y-113033824D01*
X100780044Y-113094545D01*
X100935660Y-113125499D01*
X100935663Y-113125500D01*
X100935665Y-113125500D01*
X101094337Y-113125500D01*
X101094338Y-113125499D01*
X101249956Y-113094545D01*
X101396547Y-113033824D01*
X101528476Y-112945672D01*
X101640672Y-112833476D01*
X101728824Y-112701547D01*
X101789545Y-112554956D01*
X101820500Y-112399335D01*
X101820500Y-112240665D01*
X101820500Y-112240662D01*
X101820499Y-112240660D01*
X101789546Y-112085051D01*
X101789545Y-112085044D01*
X101728824Y-111938453D01*
X101728822Y-111938450D01*
X101728820Y-111938446D01*
X101640672Y-111806524D01*
X101640669Y-111806520D01*
X101529396Y-111695247D01*
X105289500Y-111695247D01*
X105289500Y-112944752D01*
X105301131Y-113003229D01*
X105301132Y-113003230D01*
X105345447Y-113069552D01*
X105411769Y-113113867D01*
X105411770Y-113113868D01*
X105470247Y-113125499D01*
X105470250Y-113125500D01*
X105470252Y-113125500D01*
X106719750Y-113125500D01*
X106719751Y-113125499D01*
X106734568Y-113122552D01*
X106778229Y-113113868D01*
X106778229Y-113113867D01*
X106778231Y-113113867D01*
X106844552Y-113069552D01*
X106888867Y-113003231D01*
X106888867Y-113003229D01*
X106888868Y-113003229D01*
X106900499Y-112944752D01*
X106900500Y-112944750D01*
X106900500Y-111695249D01*
X106900499Y-111695247D01*
X106888868Y-111636770D01*
X106888867Y-111636769D01*
X106844552Y-111570447D01*
X106779921Y-111527262D01*
X106778230Y-111526132D01*
X106778229Y-111526131D01*
X106719752Y-111514500D01*
X106719748Y-111514500D01*
X105470252Y-111514500D01*
X105470247Y-111514500D01*
X105411770Y-111526131D01*
X105411769Y-111526132D01*
X105345447Y-111570447D01*
X105301132Y-111636769D01*
X105301131Y-111636770D01*
X105289500Y-111695247D01*
X101529396Y-111695247D01*
X101528479Y-111694330D01*
X101528475Y-111694327D01*
X101396553Y-111606179D01*
X101396543Y-111606174D01*
X101249956Y-111545455D01*
X101249948Y-111545453D01*
X101094338Y-111514500D01*
X101094335Y-111514500D01*
X100935665Y-111514500D01*
X100935662Y-111514500D01*
X100780051Y-111545453D01*
X100780043Y-111545455D01*
X100633456Y-111606174D01*
X100633446Y-111606179D01*
X100501524Y-111694327D01*
X100501520Y-111694330D01*
X100389330Y-111806520D01*
X100389327Y-111806524D01*
X100301179Y-111938446D01*
X100301174Y-111938456D01*
X100240455Y-112085043D01*
X100240453Y-112085051D01*
X100209500Y-112240660D01*
X90300500Y-112240660D01*
X90300500Y-111430247D01*
X120599500Y-111430247D01*
X120599500Y-113169752D01*
X120611131Y-113228229D01*
X120611132Y-113228230D01*
X120655447Y-113294552D01*
X120721769Y-113338867D01*
X120721770Y-113338868D01*
X120780247Y-113350499D01*
X120780250Y-113350500D01*
X120780252Y-113350500D01*
X122519750Y-113350500D01*
X122519751Y-113350499D01*
X122534568Y-113347552D01*
X122578229Y-113338868D01*
X122578229Y-113338867D01*
X122578231Y-113338867D01*
X122644552Y-113294552D01*
X122688867Y-113228231D01*
X122688867Y-113228229D01*
X122688868Y-113228229D01*
X122700499Y-113169752D01*
X122700500Y-113169750D01*
X122700500Y-111452155D01*
X125500000Y-111452155D01*
X125500000Y-112100000D01*
X126416988Y-112100000D01*
X126384075Y-112157007D01*
X126350000Y-112284174D01*
X126350000Y-112415826D01*
X126384075Y-112542993D01*
X126416988Y-112600000D01*
X125500000Y-112600000D01*
X125500000Y-113247844D01*
X125506401Y-113307372D01*
X125506403Y-113307379D01*
X125556645Y-113442086D01*
X125556649Y-113442093D01*
X125642809Y-113557187D01*
X125642812Y-113557190D01*
X125757906Y-113643350D01*
X125757913Y-113643354D01*
X125892620Y-113693596D01*
X125892627Y-113693598D01*
X125952155Y-113699999D01*
X125952172Y-113700000D01*
X126600000Y-113700000D01*
X126600000Y-112783012D01*
X126657007Y-112815925D01*
X126784174Y-112850000D01*
X126915826Y-112850000D01*
X127042993Y-112815925D01*
X127100000Y-112783012D01*
X127100000Y-113700000D01*
X127747828Y-113700000D01*
X127747844Y-113699999D01*
X127807372Y-113693598D01*
X127807379Y-113693596D01*
X127942086Y-113643354D01*
X127942093Y-113643350D01*
X128057187Y-113557190D01*
X128057190Y-113557187D01*
X128143350Y-113442093D01*
X128143354Y-113442086D01*
X128193596Y-113307379D01*
X128193598Y-113307372D01*
X128199999Y-113247844D01*
X128200000Y-113247827D01*
X128200000Y-112600000D01*
X127283012Y-112600000D01*
X127315925Y-112542993D01*
X127350000Y-112415826D01*
X127350000Y-112284174D01*
X127315925Y-112157007D01*
X127283012Y-112100000D01*
X128200000Y-112100000D01*
X128200000Y-111452172D01*
X128199999Y-111452155D01*
X128193598Y-111392627D01*
X128193596Y-111392620D01*
X128143354Y-111257913D01*
X128143350Y-111257906D01*
X128057190Y-111142812D01*
X128057187Y-111142809D01*
X127942093Y-111056649D01*
X127942086Y-111056645D01*
X127807379Y-111006403D01*
X127807372Y-111006401D01*
X127747844Y-111000000D01*
X127100000Y-111000000D01*
X127100000Y-111916988D01*
X127042993Y-111884075D01*
X126915826Y-111850000D01*
X126784174Y-111850000D01*
X126657007Y-111884075D01*
X126600000Y-111916988D01*
X126600000Y-111000000D01*
X125952155Y-111000000D01*
X125892627Y-111006401D01*
X125892620Y-111006403D01*
X125757913Y-111056645D01*
X125757906Y-111056649D01*
X125642812Y-111142809D01*
X125642809Y-111142812D01*
X125556649Y-111257906D01*
X125556645Y-111257913D01*
X125506403Y-111392620D01*
X125506401Y-111392627D01*
X125500000Y-111452155D01*
X122700500Y-111452155D01*
X122700500Y-111430249D01*
X122700499Y-111430247D01*
X122688868Y-111371770D01*
X122688867Y-111371769D01*
X122644552Y-111305447D01*
X122578230Y-111261132D01*
X122578229Y-111261131D01*
X122519752Y-111249500D01*
X122519748Y-111249500D01*
X120780252Y-111249500D01*
X120780247Y-111249500D01*
X120721770Y-111261131D01*
X120721769Y-111261132D01*
X120655447Y-111305447D01*
X120611132Y-111371769D01*
X120611131Y-111371770D01*
X120599500Y-111430247D01*
X90300500Y-111430247D01*
X90300500Y-106630247D01*
X120599500Y-106630247D01*
X120599500Y-108369752D01*
X120611131Y-108428229D01*
X120611132Y-108428230D01*
X120655447Y-108494552D01*
X120721769Y-108538867D01*
X120721770Y-108538868D01*
X120780247Y-108550499D01*
X120780250Y-108550500D01*
X120780252Y-108550500D01*
X122519750Y-108550500D01*
X122519751Y-108550499D01*
X122534568Y-108547552D01*
X122578229Y-108538868D01*
X122578229Y-108538867D01*
X122578231Y-108538867D01*
X122644552Y-108494552D01*
X122688867Y-108428231D01*
X122688867Y-108428229D01*
X122688868Y-108428229D01*
X122700499Y-108369752D01*
X122700500Y-108369750D01*
X122700500Y-106680247D01*
X125749500Y-106680247D01*
X125749500Y-108419752D01*
X125761131Y-108478229D01*
X125761132Y-108478230D01*
X125805447Y-108544552D01*
X125871769Y-108588867D01*
X125871770Y-108588868D01*
X125930247Y-108600499D01*
X125930250Y-108600500D01*
X125930252Y-108600500D01*
X127669750Y-108600500D01*
X127669751Y-108600499D01*
X127684568Y-108597552D01*
X127728229Y-108588868D01*
X127728229Y-108588867D01*
X127728231Y-108588867D01*
X127794552Y-108544552D01*
X127838867Y-108478231D01*
X127838867Y-108478229D01*
X127838868Y-108478229D01*
X127850499Y-108419752D01*
X127850500Y-108419750D01*
X127850500Y-106680249D01*
X127850499Y-106680247D01*
X127838868Y-106621770D01*
X127838867Y-106621769D01*
X127794552Y-106555447D01*
X127728230Y-106511132D01*
X127728229Y-106511131D01*
X127669752Y-106499500D01*
X127669748Y-106499500D01*
X125930252Y-106499500D01*
X125930247Y-106499500D01*
X125871770Y-106511131D01*
X125871769Y-106511132D01*
X125805447Y-106555447D01*
X125761132Y-106621769D01*
X125761131Y-106621770D01*
X125749500Y-106680247D01*
X122700500Y-106680247D01*
X122700500Y-106664332D01*
X122720185Y-106597293D01*
X122736819Y-106576651D01*
X123574317Y-105739153D01*
X147514398Y-105739153D01*
X147521382Y-105744228D01*
X147676206Y-105823115D01*
X147841478Y-105876816D01*
X148013108Y-105904000D01*
X148186892Y-105904000D01*
X148358521Y-105876816D01*
X148523793Y-105823115D01*
X148678624Y-105744224D01*
X148685600Y-105739153D01*
X148100001Y-105153553D01*
X148100000Y-105153553D01*
X147514398Y-105739153D01*
X123574317Y-105739153D01*
X124600363Y-104713107D01*
X146996000Y-104713107D01*
X146996000Y-104886892D01*
X147023183Y-105058521D01*
X147076884Y-105223793D01*
X147155776Y-105378624D01*
X147155777Y-105378626D01*
X147160844Y-105385600D01*
X147160846Y-105385601D01*
X147746446Y-104800001D01*
X147746446Y-104799999D01*
X147700369Y-104753922D01*
X147750000Y-104753922D01*
X147750000Y-104846078D01*
X147773852Y-104935095D01*
X147819930Y-105014905D01*
X147885095Y-105080070D01*
X147964905Y-105126148D01*
X148053922Y-105150000D01*
X148146078Y-105150000D01*
X148235095Y-105126148D01*
X148314905Y-105080070D01*
X148380070Y-105014905D01*
X148426148Y-104935095D01*
X148450000Y-104846078D01*
X148450000Y-104799999D01*
X148453553Y-104799999D01*
X148453553Y-104800000D01*
X149039153Y-105385600D01*
X149044224Y-105378624D01*
X149068874Y-105330247D01*
X157149500Y-105330247D01*
X157149500Y-107069752D01*
X157161131Y-107128229D01*
X157161132Y-107128230D01*
X157205447Y-107194552D01*
X157271769Y-107238867D01*
X157271770Y-107238868D01*
X157330247Y-107250499D01*
X157330250Y-107250500D01*
X157330252Y-107250500D01*
X159069750Y-107250500D01*
X159069751Y-107250499D01*
X159084568Y-107247552D01*
X159128229Y-107238868D01*
X159128229Y-107238867D01*
X159128231Y-107238867D01*
X159194552Y-107194552D01*
X159238867Y-107128231D01*
X159238867Y-107128229D01*
X159238868Y-107128229D01*
X159250499Y-107069752D01*
X159250500Y-107069750D01*
X159250500Y-105402155D01*
X161600000Y-105402155D01*
X161600000Y-106050000D01*
X162516988Y-106050000D01*
X162484075Y-106107007D01*
X162450000Y-106234174D01*
X162450000Y-106365826D01*
X162484075Y-106492993D01*
X162516988Y-106550000D01*
X161600000Y-106550000D01*
X161600000Y-107197844D01*
X161606401Y-107257372D01*
X161606403Y-107257379D01*
X161656645Y-107392086D01*
X161656649Y-107392093D01*
X161742809Y-107507187D01*
X161742812Y-107507190D01*
X161857906Y-107593350D01*
X161857913Y-107593354D01*
X161992620Y-107643596D01*
X161992627Y-107643598D01*
X162052155Y-107649999D01*
X162052172Y-107650000D01*
X162700000Y-107650000D01*
X162700000Y-106733012D01*
X162757007Y-106765925D01*
X162884174Y-106800000D01*
X163015826Y-106800000D01*
X163142993Y-106765925D01*
X163200000Y-106733012D01*
X163200000Y-107650000D01*
X163847828Y-107650000D01*
X163847844Y-107649999D01*
X163907372Y-107643598D01*
X163907379Y-107643596D01*
X164042086Y-107593354D01*
X164042093Y-107593350D01*
X164157187Y-107507190D01*
X164157190Y-107507187D01*
X164243350Y-107392093D01*
X164243354Y-107392086D01*
X164293596Y-107257379D01*
X164293598Y-107257372D01*
X164299999Y-107197844D01*
X164300000Y-107197827D01*
X164300000Y-106550000D01*
X163383012Y-106550000D01*
X163415925Y-106492993D01*
X163450000Y-106365826D01*
X163450000Y-106234174D01*
X163415925Y-106107007D01*
X163383012Y-106050000D01*
X164300000Y-106050000D01*
X164300000Y-105402172D01*
X164299999Y-105402155D01*
X164293598Y-105342627D01*
X164293596Y-105342620D01*
X164243354Y-105207913D01*
X164243350Y-105207906D01*
X164157190Y-105092812D01*
X164157187Y-105092809D01*
X164042093Y-105006649D01*
X164042086Y-105006645D01*
X163907379Y-104956403D01*
X163907372Y-104956401D01*
X163847844Y-104950000D01*
X163200000Y-104950000D01*
X163200000Y-105866988D01*
X163142993Y-105834075D01*
X163015826Y-105800000D01*
X162884174Y-105800000D01*
X162757007Y-105834075D01*
X162700000Y-105866988D01*
X162700000Y-104950000D01*
X162052155Y-104950000D01*
X161992627Y-104956401D01*
X161992620Y-104956403D01*
X161857913Y-105006645D01*
X161857906Y-105006649D01*
X161742812Y-105092809D01*
X161742809Y-105092812D01*
X161656649Y-105207906D01*
X161656645Y-105207913D01*
X161606403Y-105342620D01*
X161606401Y-105342627D01*
X161600000Y-105402155D01*
X159250500Y-105402155D01*
X159250500Y-105330249D01*
X159250499Y-105330247D01*
X159238868Y-105271770D01*
X159238867Y-105271769D01*
X159194552Y-105205447D01*
X159128230Y-105161132D01*
X159128229Y-105161131D01*
X159069752Y-105149500D01*
X159069748Y-105149500D01*
X157330252Y-105149500D01*
X157330247Y-105149500D01*
X157271770Y-105161131D01*
X157271769Y-105161132D01*
X157205447Y-105205447D01*
X157161132Y-105271769D01*
X157161131Y-105271770D01*
X157149500Y-105330247D01*
X149068874Y-105330247D01*
X149100659Y-105267865D01*
X149123115Y-105223793D01*
X149176816Y-105058521D01*
X149204000Y-104886892D01*
X149204000Y-104713107D01*
X149176816Y-104541478D01*
X149123115Y-104376206D01*
X149044228Y-104221382D01*
X149039153Y-104214398D01*
X148453553Y-104799999D01*
X148450000Y-104799999D01*
X148450000Y-104753922D01*
X148426148Y-104664905D01*
X148380070Y-104585095D01*
X148314905Y-104519930D01*
X148235095Y-104473852D01*
X148146078Y-104450000D01*
X148053922Y-104450000D01*
X147964905Y-104473852D01*
X147885095Y-104519930D01*
X147819930Y-104585095D01*
X147773852Y-104664905D01*
X147750000Y-104753922D01*
X147700369Y-104753922D01*
X147160845Y-104214398D01*
X147160844Y-104214398D01*
X147155775Y-104221375D01*
X147076884Y-104376206D01*
X147023183Y-104541478D01*
X146996000Y-104713107D01*
X124600363Y-104713107D01*
X127733223Y-101580247D01*
X140649500Y-101580247D01*
X140649500Y-103319752D01*
X140661131Y-103378229D01*
X140661132Y-103378230D01*
X140705447Y-103444552D01*
X140771769Y-103488867D01*
X140771770Y-103488868D01*
X140830247Y-103500499D01*
X140830250Y-103500500D01*
X140830252Y-103500500D01*
X142569750Y-103500500D01*
X142569751Y-103500499D01*
X142584568Y-103497552D01*
X142628229Y-103488868D01*
X142628229Y-103488867D01*
X142628231Y-103488867D01*
X142694552Y-103444552D01*
X142738867Y-103378231D01*
X142738867Y-103378229D01*
X142738868Y-103378229D01*
X142750499Y-103319752D01*
X142750500Y-103319750D01*
X142750500Y-102820759D01*
X147295500Y-102820759D01*
X147295500Y-102979240D01*
X147326414Y-103134656D01*
X147326416Y-103134664D01*
X147387059Y-103281071D01*
X147387064Y-103281080D01*
X147475103Y-103412838D01*
X147475106Y-103412842D01*
X147587160Y-103524896D01*
X147649578Y-103566602D01*
X147663740Y-103576065D01*
X147663742Y-103576066D01*
X147708547Y-103629678D01*
X147717254Y-103699003D01*
X147687100Y-103762030D01*
X147651147Y-103789652D01*
X147521378Y-103855774D01*
X147514398Y-103860844D01*
X147514398Y-103860845D01*
X148100000Y-104446446D01*
X148100001Y-104446446D01*
X148685601Y-103860846D01*
X148685600Y-103860844D01*
X148678626Y-103855777D01*
X148678615Y-103855770D01*
X148548853Y-103789652D01*
X148498057Y-103741678D01*
X148481262Y-103673857D01*
X148503800Y-103607722D01*
X148536254Y-103576068D01*
X148612839Y-103524896D01*
X148724896Y-103412839D01*
X148812939Y-103281074D01*
X148873584Y-103134664D01*
X148904500Y-102979236D01*
X148904500Y-102820764D01*
X148873584Y-102665336D01*
X148812939Y-102518926D01*
X148812938Y-102518925D01*
X148812935Y-102518919D01*
X148724896Y-102387161D01*
X148724893Y-102387157D01*
X148612842Y-102275106D01*
X148612838Y-102275103D01*
X148481080Y-102187064D01*
X148481071Y-102187059D01*
X148334664Y-102126416D01*
X148334656Y-102126414D01*
X148179240Y-102095500D01*
X148179236Y-102095500D01*
X148020764Y-102095500D01*
X148020759Y-102095500D01*
X147865343Y-102126414D01*
X147865335Y-102126416D01*
X147718928Y-102187059D01*
X147718919Y-102187064D01*
X147587161Y-102275103D01*
X147587157Y-102275106D01*
X147475106Y-102387157D01*
X147475103Y-102387161D01*
X147387064Y-102518919D01*
X147387059Y-102518928D01*
X147326416Y-102665335D01*
X147326414Y-102665343D01*
X147295500Y-102820759D01*
X142750500Y-102820759D01*
X142750500Y-101580249D01*
X142750499Y-101580247D01*
X142738868Y-101521770D01*
X142738867Y-101521769D01*
X142694552Y-101455447D01*
X142628230Y-101411132D01*
X142628229Y-101411131D01*
X142569752Y-101399500D01*
X142569748Y-101399500D01*
X140830252Y-101399500D01*
X140830247Y-101399500D01*
X140771770Y-101411131D01*
X140771769Y-101411132D01*
X140705447Y-101455447D01*
X140661132Y-101521769D01*
X140661131Y-101521770D01*
X140649500Y-101580247D01*
X127733223Y-101580247D01*
X127826991Y-101486479D01*
X129263970Y-100049500D01*
X134519772Y-94793697D01*
X140657500Y-94793697D01*
X140657500Y-94983302D01*
X140694486Y-95169243D01*
X140694488Y-95169251D01*
X140767042Y-95344412D01*
X140872377Y-95502058D01*
X141006441Y-95636122D01*
X141111300Y-95706186D01*
X141164085Y-95741456D01*
X141339249Y-95814012D01*
X141525197Y-95850999D01*
X141525201Y-95851000D01*
X141525202Y-95851000D01*
X141714799Y-95851000D01*
X141714800Y-95850999D01*
X141900751Y-95814012D01*
X142075915Y-95741456D01*
X142233558Y-95636122D01*
X142367622Y-95502058D01*
X142472956Y-95344415D01*
X142545512Y-95169251D01*
X142582500Y-94983298D01*
X142582500Y-94793702D01*
X142545512Y-94607749D01*
X142472956Y-94432585D01*
X142437686Y-94379800D01*
X142367622Y-94274941D01*
X142233558Y-94140877D01*
X142075912Y-94035542D01*
X141900751Y-93962988D01*
X141900743Y-93962986D01*
X141714802Y-93926000D01*
X141714798Y-93926000D01*
X141525202Y-93926000D01*
X141525197Y-93926000D01*
X141339256Y-93962986D01*
X141339248Y-93962988D01*
X141164087Y-94035542D01*
X141006441Y-94140877D01*
X140872377Y-94274941D01*
X140767042Y-94432587D01*
X140694488Y-94607748D01*
X140694486Y-94607756D01*
X140657500Y-94793697D01*
X134519772Y-94793697D01*
X137059772Y-92253697D01*
X140657500Y-92253697D01*
X140657500Y-92443302D01*
X140694486Y-92629243D01*
X140694488Y-92629251D01*
X140767042Y-92804412D01*
X140872377Y-92962058D01*
X141006441Y-93096122D01*
X141111300Y-93166186D01*
X141164085Y-93201456D01*
X141339249Y-93274012D01*
X141525197Y-93310999D01*
X141525201Y-93311000D01*
X141525202Y-93311000D01*
X141714799Y-93311000D01*
X141714800Y-93310999D01*
X141900751Y-93274012D01*
X142075915Y-93201456D01*
X142233558Y-93096122D01*
X142367622Y-92962058D01*
X142472956Y-92804415D01*
X142545512Y-92629251D01*
X142582500Y-92443298D01*
X142582500Y-92253702D01*
X142545512Y-92067749D01*
X142472956Y-91892585D01*
X142437686Y-91839800D01*
X142367622Y-91734941D01*
X142233558Y-91600877D01*
X142075912Y-91495542D01*
X141900751Y-91422988D01*
X141900743Y-91422986D01*
X141714802Y-91386000D01*
X141714798Y-91386000D01*
X141525202Y-91386000D01*
X141525197Y-91386000D01*
X141339256Y-91422986D01*
X141339248Y-91422988D01*
X141164087Y-91495542D01*
X141006441Y-91600877D01*
X140872377Y-91734941D01*
X140767042Y-91892587D01*
X140694488Y-92067748D01*
X140694486Y-92067756D01*
X140657500Y-92253697D01*
X137059772Y-92253697D01*
X139599772Y-89713697D01*
X140657500Y-89713697D01*
X140657500Y-89903302D01*
X140694486Y-90089243D01*
X140694488Y-90089251D01*
X140767042Y-90264412D01*
X140872377Y-90422058D01*
X141006441Y-90556122D01*
X141111300Y-90626186D01*
X141164085Y-90661456D01*
X141339249Y-90734012D01*
X141525197Y-90770999D01*
X141525201Y-90771000D01*
X141525202Y-90771000D01*
X141714799Y-90771000D01*
X141714800Y-90770999D01*
X141900751Y-90734012D01*
X142075915Y-90661456D01*
X142233558Y-90556122D01*
X142367622Y-90422058D01*
X142472956Y-90264415D01*
X142545512Y-90089251D01*
X142582500Y-89903298D01*
X142582500Y-89713702D01*
X142545512Y-89527749D01*
X142472956Y-89352585D01*
X142437686Y-89299800D01*
X142367622Y-89194941D01*
X142233558Y-89060877D01*
X142075912Y-88955542D01*
X141900751Y-88882988D01*
X141900743Y-88882986D01*
X141714802Y-88846000D01*
X141714798Y-88846000D01*
X141525202Y-88846000D01*
X141525197Y-88846000D01*
X141339256Y-88882986D01*
X141339248Y-88882988D01*
X141164087Y-88955542D01*
X141006441Y-89060877D01*
X140872377Y-89194941D01*
X140767042Y-89352587D01*
X140694488Y-89527748D01*
X140694486Y-89527756D01*
X140657500Y-89713697D01*
X139599772Y-89713697D01*
X141125248Y-88188221D01*
X141186569Y-88154738D01*
X141256261Y-88159722D01*
X141260380Y-88161343D01*
X141339249Y-88194012D01*
X141525197Y-88230999D01*
X141525201Y-88231000D01*
X141525202Y-88231000D01*
X141714799Y-88231000D01*
X141714800Y-88230999D01*
X141900751Y-88194012D01*
X142075915Y-88121456D01*
X142233558Y-88016122D01*
X142367622Y-87882058D01*
X142472956Y-87724415D01*
X142545512Y-87549251D01*
X142582500Y-87363298D01*
X142582500Y-87173702D01*
X142545512Y-86987749D01*
X142472956Y-86812585D01*
X142437686Y-86759800D01*
X142367622Y-86654941D01*
X142233558Y-86520877D01*
X142075912Y-86415542D01*
X141900751Y-86342988D01*
X141900743Y-86342986D01*
X141714802Y-86306000D01*
X141714798Y-86306000D01*
X141525202Y-86306000D01*
X141525197Y-86306000D01*
X141339256Y-86342986D01*
X141339248Y-86342988D01*
X141164087Y-86415542D01*
X141006441Y-86520877D01*
X140872377Y-86654941D01*
X140767042Y-86812587D01*
X140694488Y-86987748D01*
X140694486Y-86987756D01*
X140657500Y-87173697D01*
X140657500Y-87363302D01*
X140692994Y-87541740D01*
X140694488Y-87549251D01*
X140718539Y-87607316D01*
X140727156Y-87628117D01*
X140734625Y-87697586D01*
X140703350Y-87760065D01*
X140700276Y-87763251D01*
X122050348Y-106413181D01*
X121989025Y-106446666D01*
X121962667Y-106449500D01*
X120780247Y-106449500D01*
X120721770Y-106461131D01*
X120721769Y-106461132D01*
X120655447Y-106505447D01*
X120611132Y-106571769D01*
X120611131Y-106571770D01*
X120599500Y-106630247D01*
X90300500Y-106630247D01*
X90300500Y-102599999D01*
X92000884Y-102599999D01*
X92000885Y-102600000D01*
X93069670Y-102600000D01*
X93049925Y-102619745D01*
X93000556Y-102705255D01*
X92975000Y-102800630D01*
X92975000Y-102899370D01*
X93000556Y-102994745D01*
X93049925Y-103080255D01*
X93069670Y-103100000D01*
X92000885Y-103100000D01*
X92002085Y-103107584D01*
X92055591Y-103272255D01*
X92134195Y-103426524D01*
X92235967Y-103566602D01*
X92358397Y-103689032D01*
X92498475Y-103790804D01*
X92652742Y-103869408D01*
X92817415Y-103922914D01*
X92988429Y-103950000D01*
X93100000Y-103950000D01*
X93100000Y-103130330D01*
X93119745Y-103150075D01*
X93205255Y-103199444D01*
X93300630Y-103225000D01*
X93399370Y-103225000D01*
X93494745Y-103199444D01*
X93580255Y-103150075D01*
X93600000Y-103130330D01*
X93600000Y-103950000D01*
X93711571Y-103950000D01*
X93882584Y-103922914D01*
X94047257Y-103869408D01*
X94201524Y-103790804D01*
X94341602Y-103689032D01*
X94464032Y-103566602D01*
X94565804Y-103426524D01*
X94644408Y-103272255D01*
X94697914Y-103107584D01*
X94699115Y-103100000D01*
X93630330Y-103100000D01*
X93650075Y-103080255D01*
X93699444Y-102994745D01*
X93725000Y-102899370D01*
X93725000Y-102800630D01*
X93699444Y-102705255D01*
X93650075Y-102619745D01*
X93630330Y-102600000D01*
X94699115Y-102600000D01*
X94699115Y-102599999D01*
X94697914Y-102592415D01*
X94644408Y-102427744D01*
X94565804Y-102273475D01*
X94464032Y-102133397D01*
X94341602Y-102010967D01*
X94201521Y-101909194D01*
X94097947Y-101856419D01*
X94047152Y-101808445D01*
X94030357Y-101740624D01*
X94052895Y-101674489D01*
X94107610Y-101631038D01*
X94113248Y-101628908D01*
X94187882Y-101602793D01*
X94297150Y-101522150D01*
X94377793Y-101412882D01*
X94400219Y-101348790D01*
X94422646Y-101284701D01*
X94422646Y-101284699D01*
X94425500Y-101254269D01*
X94425500Y-100445730D01*
X94422646Y-100415300D01*
X94422646Y-100415298D01*
X94377793Y-100287119D01*
X94377792Y-100287117D01*
X94297150Y-100177850D01*
X94187882Y-100097207D01*
X94187880Y-100097206D01*
X94059700Y-100052353D01*
X94029270Y-100049500D01*
X94029266Y-100049500D01*
X92670734Y-100049500D01*
X92670730Y-100049500D01*
X92640300Y-100052353D01*
X92640298Y-100052353D01*
X92512119Y-100097206D01*
X92512117Y-100097207D01*
X92402850Y-100177850D01*
X92322207Y-100287117D01*
X92322206Y-100287119D01*
X92277353Y-100415298D01*
X92277353Y-100415300D01*
X92274500Y-100445730D01*
X92274500Y-101254269D01*
X92277353Y-101284699D01*
X92277353Y-101284701D01*
X92321595Y-101411133D01*
X92322207Y-101412882D01*
X92402850Y-101522150D01*
X92512118Y-101602793D01*
X92586714Y-101628895D01*
X92643487Y-101669615D01*
X92669234Y-101734568D01*
X92655778Y-101803130D01*
X92607390Y-101853532D01*
X92602052Y-101856419D01*
X92498478Y-101909194D01*
X92358397Y-102010967D01*
X92235967Y-102133397D01*
X92134195Y-102273475D01*
X92055591Y-102427744D01*
X92002085Y-102592415D01*
X92000884Y-102599999D01*
X90300500Y-102599999D01*
X90300500Y-94230247D01*
X119449500Y-94230247D01*
X119449500Y-95969752D01*
X119461131Y-96028229D01*
X119461132Y-96028230D01*
X119505447Y-96094552D01*
X119571769Y-96138867D01*
X119571770Y-96138868D01*
X119630247Y-96150499D01*
X119630250Y-96150500D01*
X119630252Y-96150500D01*
X121369750Y-96150500D01*
X121369751Y-96150499D01*
X121384568Y-96147552D01*
X121428229Y-96138868D01*
X121428229Y-96138867D01*
X121428231Y-96138867D01*
X121494552Y-96094552D01*
X121538867Y-96028231D01*
X121538867Y-96028229D01*
X121538868Y-96028229D01*
X121550499Y-95969752D01*
X121550500Y-95969750D01*
X121550500Y-94793697D01*
X125417500Y-94793697D01*
X125417500Y-94983302D01*
X125454486Y-95169243D01*
X125454488Y-95169251D01*
X125527042Y-95344412D01*
X125632377Y-95502058D01*
X125766441Y-95636122D01*
X125871300Y-95706186D01*
X125924085Y-95741456D01*
X126099249Y-95814012D01*
X126285197Y-95850999D01*
X126285201Y-95851000D01*
X126285202Y-95851000D01*
X126474799Y-95851000D01*
X126474800Y-95850999D01*
X126660751Y-95814012D01*
X126835915Y-95741456D01*
X126993558Y-95636122D01*
X127127622Y-95502058D01*
X127232956Y-95344415D01*
X127305512Y-95169251D01*
X127342500Y-94983298D01*
X127342500Y-94793702D01*
X127305512Y-94607749D01*
X127232956Y-94432585D01*
X127197686Y-94379800D01*
X127127622Y-94274941D01*
X126993558Y-94140877D01*
X126835912Y-94035542D01*
X126660751Y-93962988D01*
X126660743Y-93962986D01*
X126474802Y-93926000D01*
X126474798Y-93926000D01*
X126285202Y-93926000D01*
X126285197Y-93926000D01*
X126099256Y-93962986D01*
X126099248Y-93962988D01*
X125924087Y-94035542D01*
X125766441Y-94140877D01*
X125632377Y-94274941D01*
X125527042Y-94432587D01*
X125454488Y-94607748D01*
X125454486Y-94607756D01*
X125417500Y-94793697D01*
X121550500Y-94793697D01*
X121550500Y-94230249D01*
X121550499Y-94230247D01*
X121538868Y-94171770D01*
X121538867Y-94171769D01*
X121494552Y-94105447D01*
X121428230Y-94061132D01*
X121428229Y-94061131D01*
X121369752Y-94049500D01*
X121369748Y-94049500D01*
X119630252Y-94049500D01*
X119630247Y-94049500D01*
X119571770Y-94061131D01*
X119571769Y-94061132D01*
X119505447Y-94105447D01*
X119461132Y-94171769D01*
X119461131Y-94171770D01*
X119449500Y-94230247D01*
X90300500Y-94230247D01*
X90300500Y-92253697D01*
X125417500Y-92253697D01*
X125417500Y-92443302D01*
X125454486Y-92629243D01*
X125454488Y-92629251D01*
X125527042Y-92804412D01*
X125632377Y-92962058D01*
X125766441Y-93096122D01*
X125871300Y-93166186D01*
X125924085Y-93201456D01*
X126099249Y-93274012D01*
X126285197Y-93310999D01*
X126285201Y-93311000D01*
X126285202Y-93311000D01*
X126474799Y-93311000D01*
X126474800Y-93310999D01*
X126660751Y-93274012D01*
X126835915Y-93201456D01*
X126993558Y-93096122D01*
X127127622Y-92962058D01*
X127232956Y-92804415D01*
X127305512Y-92629251D01*
X127342500Y-92443298D01*
X127342500Y-92253702D01*
X127305512Y-92067749D01*
X127232956Y-91892585D01*
X127197686Y-91839800D01*
X127127622Y-91734941D01*
X126993558Y-91600877D01*
X126835912Y-91495542D01*
X126660751Y-91422988D01*
X126660743Y-91422986D01*
X126474802Y-91386000D01*
X126474798Y-91386000D01*
X126285202Y-91386000D01*
X126285197Y-91386000D01*
X126099256Y-91422986D01*
X126099248Y-91422988D01*
X125924087Y-91495542D01*
X125766441Y-91600877D01*
X125632377Y-91734941D01*
X125527042Y-91892587D01*
X125454488Y-92067748D01*
X125454486Y-92067756D01*
X125417500Y-92253697D01*
X90300500Y-92253697D01*
X90300500Y-90330247D01*
X119449500Y-90330247D01*
X119449500Y-92069752D01*
X119461131Y-92128229D01*
X119461132Y-92128230D01*
X119505447Y-92194552D01*
X119571769Y-92238867D01*
X119571770Y-92238868D01*
X119630247Y-92250499D01*
X119630250Y-92250500D01*
X119630252Y-92250500D01*
X121369750Y-92250500D01*
X121369751Y-92250499D01*
X121384568Y-92247552D01*
X121428229Y-92238868D01*
X121428229Y-92238867D01*
X121428231Y-92238867D01*
X121494552Y-92194552D01*
X121538867Y-92128231D01*
X121538867Y-92128229D01*
X121538868Y-92128229D01*
X121550499Y-92069752D01*
X121550500Y-92069750D01*
X121550500Y-90330249D01*
X121550499Y-90330247D01*
X121538868Y-90271770D01*
X121538867Y-90271769D01*
X121494552Y-90205447D01*
X121428230Y-90161132D01*
X121428229Y-90161131D01*
X121369752Y-90149500D01*
X121369748Y-90149500D01*
X119630252Y-90149500D01*
X119630247Y-90149500D01*
X119571770Y-90161131D01*
X119571769Y-90161132D01*
X119505447Y-90205447D01*
X119461132Y-90271769D01*
X119461131Y-90271770D01*
X119449500Y-90330247D01*
X90300500Y-90330247D01*
X90300500Y-89713697D01*
X125417500Y-89713697D01*
X125417500Y-89903302D01*
X125454486Y-90089243D01*
X125454488Y-90089251D01*
X125527042Y-90264412D01*
X125632377Y-90422058D01*
X125766441Y-90556122D01*
X125871300Y-90626186D01*
X125924085Y-90661456D01*
X126099249Y-90734012D01*
X126285197Y-90770999D01*
X126285201Y-90771000D01*
X126285202Y-90771000D01*
X126474799Y-90771000D01*
X126474800Y-90770999D01*
X126660751Y-90734012D01*
X126835915Y-90661456D01*
X126993558Y-90556122D01*
X127127622Y-90422058D01*
X127232956Y-90264415D01*
X127305512Y-90089251D01*
X127342500Y-89903298D01*
X127342500Y-89713702D01*
X127305512Y-89527749D01*
X127232956Y-89352585D01*
X127197686Y-89299800D01*
X127127622Y-89194941D01*
X126993558Y-89060877D01*
X126835912Y-88955542D01*
X126660751Y-88882988D01*
X126660743Y-88882986D01*
X126474802Y-88846000D01*
X126474798Y-88846000D01*
X126285202Y-88846000D01*
X126285197Y-88846000D01*
X126099256Y-88882986D01*
X126099248Y-88882988D01*
X125924087Y-88955542D01*
X125766441Y-89060877D01*
X125632377Y-89194941D01*
X125527042Y-89352587D01*
X125454488Y-89527748D01*
X125454486Y-89527756D01*
X125417500Y-89713697D01*
X90300500Y-89713697D01*
X90300500Y-87234108D01*
X111249500Y-87234108D01*
X111249500Y-87365891D01*
X111283608Y-87493187D01*
X111311641Y-87541740D01*
X111349500Y-87607314D01*
X111442686Y-87700500D01*
X111541521Y-87757563D01*
X111551373Y-87763251D01*
X111556814Y-87766392D01*
X111684108Y-87800500D01*
X111684110Y-87800500D01*
X111815890Y-87800500D01*
X111815892Y-87800500D01*
X111943186Y-87766392D01*
X112057314Y-87700500D01*
X112119395Y-87638419D01*
X112180718Y-87604934D01*
X112207076Y-87602100D01*
X116039769Y-87602100D01*
X116039772Y-87602100D01*
X116062602Y-87595982D01*
X116116605Y-87581514D01*
X116116607Y-87581513D01*
X116185494Y-87541740D01*
X117096987Y-86630247D01*
X119449500Y-86630247D01*
X119449500Y-88369752D01*
X119461131Y-88428229D01*
X119461132Y-88428230D01*
X119505447Y-88494552D01*
X119571769Y-88538867D01*
X119571770Y-88538868D01*
X119630247Y-88550499D01*
X119630250Y-88550500D01*
X119630252Y-88550500D01*
X121369750Y-88550500D01*
X121369751Y-88550499D01*
X121384568Y-88547552D01*
X121428229Y-88538868D01*
X121428229Y-88538867D01*
X121428231Y-88538867D01*
X121494552Y-88494552D01*
X121538867Y-88428231D01*
X121538867Y-88428229D01*
X121538868Y-88428229D01*
X121550499Y-88369752D01*
X121550500Y-88369750D01*
X121550500Y-86630249D01*
X121550499Y-86630247D01*
X121538868Y-86571770D01*
X121538867Y-86571769D01*
X121494552Y-86505447D01*
X121428230Y-86461132D01*
X121428229Y-86461131D01*
X121369752Y-86449500D01*
X121369748Y-86449500D01*
X119630252Y-86449500D01*
X119630247Y-86449500D01*
X119571770Y-86461131D01*
X119571769Y-86461132D01*
X119505447Y-86505447D01*
X119461132Y-86571769D01*
X119461131Y-86571770D01*
X119449500Y-86630247D01*
X117096987Y-86630247D01*
X119237933Y-84489300D01*
X119299254Y-84455817D01*
X119368946Y-84460801D01*
X119424879Y-84502673D01*
X119449015Y-84564825D01*
X119449500Y-84569755D01*
X119461131Y-84628229D01*
X119461132Y-84628230D01*
X119505447Y-84694552D01*
X119571769Y-84738867D01*
X119571770Y-84738868D01*
X119630247Y-84750499D01*
X119630250Y-84750500D01*
X119630252Y-84750500D01*
X121369750Y-84750500D01*
X121369751Y-84750499D01*
X121384568Y-84747552D01*
X121428229Y-84738868D01*
X121428229Y-84738867D01*
X121428231Y-84738867D01*
X121494552Y-84694552D01*
X121538867Y-84628231D01*
X121538867Y-84628229D01*
X121538868Y-84628229D01*
X121547552Y-84584568D01*
X121550500Y-84569748D01*
X121550500Y-84126100D01*
X121570185Y-84059061D01*
X121622989Y-84013306D01*
X121674500Y-84002100D01*
X122635004Y-84002100D01*
X122702043Y-84021785D01*
X122722685Y-84038419D01*
X125459613Y-86775347D01*
X125493098Y-86836670D01*
X125488114Y-86906362D01*
X125486493Y-86910480D01*
X125454489Y-86987744D01*
X125454486Y-86987756D01*
X125417500Y-87173697D01*
X125417500Y-87363302D01*
X125454486Y-87549243D01*
X125454488Y-87549251D01*
X125527042Y-87724412D01*
X125632377Y-87882058D01*
X125766441Y-88016122D01*
X125871300Y-88086186D01*
X125924085Y-88121456D01*
X126099249Y-88194012D01*
X126285197Y-88230999D01*
X126285201Y-88231000D01*
X126285202Y-88231000D01*
X126474799Y-88231000D01*
X126474800Y-88230999D01*
X126660751Y-88194012D01*
X126835915Y-88121456D01*
X126993558Y-88016122D01*
X127127622Y-87882058D01*
X127232956Y-87724415D01*
X127305512Y-87549251D01*
X127342500Y-87363298D01*
X127342500Y-87173702D01*
X127305512Y-86987749D01*
X127232956Y-86812585D01*
X127197686Y-86759800D01*
X127127622Y-86654941D01*
X126993558Y-86520877D01*
X126835912Y-86415542D01*
X126660751Y-86342988D01*
X126660743Y-86342986D01*
X126474802Y-86306000D01*
X126474798Y-86306000D01*
X126285202Y-86306000D01*
X126285197Y-86306000D01*
X126099256Y-86342986D01*
X126099244Y-86342989D01*
X126021980Y-86374993D01*
X125952511Y-86382462D01*
X125890032Y-86351186D01*
X125886847Y-86348113D01*
X124254026Y-84715291D01*
X124172432Y-84633697D01*
X125417500Y-84633697D01*
X125417500Y-84823302D01*
X125454486Y-85009243D01*
X125454488Y-85009251D01*
X125527042Y-85184412D01*
X125632377Y-85342058D01*
X125766441Y-85476122D01*
X125871300Y-85546186D01*
X125924085Y-85581456D01*
X126099249Y-85654012D01*
X126285197Y-85690999D01*
X126285201Y-85691000D01*
X126285202Y-85691000D01*
X126474799Y-85691000D01*
X126474800Y-85690999D01*
X126660751Y-85654012D01*
X126835915Y-85581456D01*
X126993558Y-85476122D01*
X127127622Y-85342058D01*
X127232956Y-85184415D01*
X127305512Y-85009251D01*
X127342500Y-84823298D01*
X127342500Y-84633702D01*
X127342499Y-84633697D01*
X140657500Y-84633697D01*
X140657500Y-84823302D01*
X140694486Y-85009243D01*
X140694488Y-85009251D01*
X140767042Y-85184412D01*
X140872377Y-85342058D01*
X141006441Y-85476122D01*
X141111300Y-85546186D01*
X141164085Y-85581456D01*
X141339249Y-85654012D01*
X141525197Y-85690999D01*
X141525201Y-85691000D01*
X141525202Y-85691000D01*
X141714799Y-85691000D01*
X141714800Y-85690999D01*
X141900751Y-85654012D01*
X142075915Y-85581456D01*
X142233558Y-85476122D01*
X142367622Y-85342058D01*
X142472956Y-85184415D01*
X142545512Y-85009251D01*
X142582500Y-84823298D01*
X142582500Y-84633702D01*
X142545512Y-84447749D01*
X142472956Y-84272585D01*
X142375078Y-84126100D01*
X142367622Y-84114941D01*
X142233558Y-83980877D01*
X142075912Y-83875542D01*
X141900751Y-83802988D01*
X141900743Y-83802986D01*
X141714802Y-83766000D01*
X141714798Y-83766000D01*
X141525202Y-83766000D01*
X141525197Y-83766000D01*
X141339256Y-83802986D01*
X141339248Y-83802988D01*
X141164087Y-83875542D01*
X141006441Y-83980877D01*
X140872377Y-84114941D01*
X140767042Y-84272587D01*
X140694488Y-84447748D01*
X140694486Y-84447756D01*
X140657500Y-84633697D01*
X127342499Y-84633697D01*
X127305512Y-84447749D01*
X127232956Y-84272585D01*
X127135078Y-84126100D01*
X127127622Y-84114941D01*
X126993558Y-83980877D01*
X126835912Y-83875542D01*
X126660751Y-83802988D01*
X126660743Y-83802986D01*
X126474802Y-83766000D01*
X126474798Y-83766000D01*
X126285202Y-83766000D01*
X126285197Y-83766000D01*
X126099256Y-83802986D01*
X126099248Y-83802988D01*
X125924087Y-83875542D01*
X125766441Y-83980877D01*
X125632377Y-84114941D01*
X125527042Y-84272587D01*
X125454488Y-84447748D01*
X125454486Y-84447756D01*
X125417500Y-84633697D01*
X124172432Y-84633697D01*
X122996996Y-83458261D01*
X122928105Y-83418485D01*
X122851275Y-83397900D01*
X122851272Y-83397900D01*
X121674500Y-83397900D01*
X121607461Y-83378215D01*
X121561706Y-83325411D01*
X121550500Y-83273900D01*
X121550500Y-82830249D01*
X121550499Y-82830247D01*
X121538868Y-82771770D01*
X121538867Y-82771769D01*
X121494552Y-82705447D01*
X121428230Y-82661132D01*
X121428229Y-82661131D01*
X121369752Y-82649500D01*
X121369748Y-82649500D01*
X119630252Y-82649500D01*
X119630247Y-82649500D01*
X119571770Y-82661131D01*
X119571769Y-82661132D01*
X119505447Y-82705447D01*
X119461132Y-82771769D01*
X119461131Y-82771770D01*
X119449500Y-82830247D01*
X119449500Y-83371903D01*
X119429815Y-83438942D01*
X119413181Y-83459584D01*
X115911185Y-86961581D01*
X115849862Y-86995066D01*
X115823504Y-86997900D01*
X112207076Y-86997900D01*
X112140037Y-86978215D01*
X112119395Y-86961581D01*
X112057316Y-86899502D01*
X112057314Y-86899500D01*
X111948490Y-86836670D01*
X111943187Y-86833608D01*
X111864726Y-86812585D01*
X111815892Y-86799500D01*
X111684108Y-86799500D01*
X111556812Y-86833608D01*
X111442686Y-86899500D01*
X111442683Y-86899502D01*
X111349502Y-86992683D01*
X111349500Y-86992686D01*
X111283608Y-87106812D01*
X111249500Y-87234108D01*
X90300500Y-87234108D01*
X90300500Y-84284108D01*
X111599500Y-84284108D01*
X111599500Y-84415891D01*
X111633608Y-84543187D01*
X111666554Y-84600250D01*
X111699500Y-84657314D01*
X111792686Y-84750500D01*
X111906814Y-84816392D01*
X112034108Y-84850500D01*
X112034110Y-84850500D01*
X112165890Y-84850500D01*
X112165892Y-84850500D01*
X112293186Y-84816392D01*
X112407314Y-84750500D01*
X112500500Y-84657314D01*
X112566392Y-84543186D01*
X112600500Y-84415892D01*
X112600500Y-84284108D01*
X112566392Y-84156814D01*
X112500500Y-84042686D01*
X112407314Y-83949500D01*
X112350250Y-83916554D01*
X112293187Y-83883608D01*
X112229539Y-83866554D01*
X112165892Y-83849500D01*
X112034108Y-83849500D01*
X111906812Y-83883608D01*
X111792686Y-83949500D01*
X111792683Y-83949502D01*
X111699502Y-84042683D01*
X111699500Y-84042686D01*
X111633608Y-84156812D01*
X111599500Y-84284108D01*
X90300500Y-84284108D01*
X90300500Y-82784108D01*
X110099500Y-82784108D01*
X110099500Y-82915891D01*
X110133608Y-83043187D01*
X110154255Y-83078948D01*
X110199500Y-83157314D01*
X110292686Y-83250500D01*
X110406814Y-83316392D01*
X110534108Y-83350500D01*
X110534110Y-83350500D01*
X110665890Y-83350500D01*
X110665892Y-83350500D01*
X110793186Y-83316392D01*
X110907314Y-83250500D01*
X111000500Y-83157314D01*
X111066392Y-83043186D01*
X111100500Y-82915892D01*
X111100500Y-82784108D01*
X111066392Y-82656814D01*
X111000500Y-82542686D01*
X110907314Y-82449500D01*
X110850250Y-82416554D01*
X110793187Y-82383608D01*
X110705344Y-82360071D01*
X110665892Y-82349500D01*
X110534108Y-82349500D01*
X110406812Y-82383608D01*
X110292686Y-82449500D01*
X110292683Y-82449502D01*
X110199502Y-82542683D01*
X110199500Y-82542686D01*
X110133608Y-82656812D01*
X110099500Y-82784108D01*
X90300500Y-82784108D01*
X90300500Y-82093697D01*
X125417500Y-82093697D01*
X125417500Y-82283302D01*
X125454486Y-82469243D01*
X125454488Y-82469251D01*
X125527042Y-82644412D01*
X125632377Y-82802058D01*
X125766441Y-82936122D01*
X125871300Y-83006186D01*
X125924085Y-83041456D01*
X125924086Y-83041456D01*
X125924087Y-83041457D01*
X125928264Y-83043187D01*
X126099249Y-83114012D01*
X126285197Y-83150999D01*
X126285201Y-83151000D01*
X126285202Y-83151000D01*
X126474799Y-83151000D01*
X126474800Y-83150999D01*
X126660751Y-83114012D01*
X126835915Y-83041456D01*
X126993558Y-82936122D01*
X127127622Y-82802058D01*
X127232956Y-82644415D01*
X127305512Y-82469251D01*
X127342500Y-82283298D01*
X127342500Y-82093702D01*
X127342500Y-82093699D01*
X127341601Y-82089178D01*
X140358000Y-82089178D01*
X140358000Y-82287821D01*
X140389075Y-82484020D01*
X140389075Y-82484023D01*
X140450457Y-82672937D01*
X140540641Y-82849932D01*
X140567730Y-82887215D01*
X140567731Y-82887216D01*
X141182352Y-82272594D01*
X141205792Y-82360071D01*
X141264311Y-82461430D01*
X141347070Y-82544189D01*
X141448429Y-82602708D01*
X141535905Y-82626147D01*
X140921283Y-83240768D01*
X140921283Y-83240769D01*
X140958567Y-83267858D01*
X141135562Y-83358042D01*
X141324477Y-83419424D01*
X141520679Y-83450500D01*
X141719321Y-83450500D01*
X141915520Y-83419424D01*
X141915523Y-83419424D01*
X142104437Y-83358042D01*
X142281425Y-83267862D01*
X142318716Y-83240768D01*
X141704095Y-82626147D01*
X141791571Y-82602708D01*
X141892930Y-82544189D01*
X141975689Y-82461430D01*
X142034208Y-82360071D01*
X142057647Y-82272594D01*
X142672268Y-82887215D01*
X142699362Y-82849925D01*
X142789542Y-82672937D01*
X142850924Y-82484023D01*
X142850924Y-82484020D01*
X142882000Y-82287821D01*
X142882000Y-82089178D01*
X142850924Y-81892979D01*
X142850924Y-81892976D01*
X142789542Y-81704062D01*
X142699358Y-81527067D01*
X142672268Y-81489783D01*
X142057647Y-82104404D01*
X142034208Y-82016929D01*
X141975689Y-81915570D01*
X141892930Y-81832811D01*
X141791571Y-81774292D01*
X141704094Y-81750852D01*
X142318716Y-81136231D01*
X142318715Y-81136230D01*
X142281432Y-81109141D01*
X142104437Y-81018957D01*
X141915522Y-80957575D01*
X141719321Y-80926500D01*
X141520679Y-80926500D01*
X141324479Y-80957575D01*
X141324476Y-80957575D01*
X141135562Y-81018957D01*
X140958564Y-81109143D01*
X140921283Y-81136229D01*
X140921282Y-81136230D01*
X141535906Y-81750852D01*
X141448429Y-81774292D01*
X141347070Y-81832811D01*
X141264311Y-81915570D01*
X141205792Y-82016929D01*
X141182352Y-82104405D01*
X140567730Y-81489782D01*
X140567729Y-81489783D01*
X140540643Y-81527064D01*
X140450457Y-81704062D01*
X140389075Y-81892976D01*
X140389075Y-81892979D01*
X140358000Y-82089178D01*
X127341601Y-82089178D01*
X127320185Y-81981518D01*
X127305512Y-81907749D01*
X127232956Y-81732585D01*
X127197686Y-81679800D01*
X127127622Y-81574941D01*
X126993558Y-81440877D01*
X126835912Y-81335542D01*
X126745400Y-81298051D01*
X126660751Y-81262988D01*
X126660743Y-81262986D01*
X126474802Y-81226000D01*
X126474798Y-81226000D01*
X126285202Y-81226000D01*
X126285197Y-81226000D01*
X126099256Y-81262986D01*
X126099248Y-81262988D01*
X125924087Y-81335542D01*
X125766441Y-81440877D01*
X125632377Y-81574941D01*
X125527042Y-81732587D01*
X125454488Y-81907748D01*
X125454486Y-81907756D01*
X125417500Y-82093697D01*
X90300500Y-82093697D01*
X90300500Y-79553697D01*
X125417500Y-79553697D01*
X125417500Y-79743302D01*
X125454486Y-79929243D01*
X125454488Y-79929251D01*
X125527042Y-80104412D01*
X125632377Y-80262058D01*
X125766441Y-80396122D01*
X125871300Y-80466186D01*
X125924085Y-80501456D01*
X126099249Y-80574012D01*
X126285197Y-80610999D01*
X126285201Y-80611000D01*
X126285202Y-80611000D01*
X126474799Y-80611000D01*
X126474800Y-80610999D01*
X126660751Y-80574012D01*
X126835915Y-80501456D01*
X126993558Y-80396122D01*
X127127622Y-80262058D01*
X127232956Y-80104415D01*
X127305512Y-79929251D01*
X127342500Y-79743298D01*
X127342500Y-79553702D01*
X127342499Y-79553697D01*
X140657500Y-79553697D01*
X140657500Y-79743302D01*
X140694486Y-79929243D01*
X140694488Y-79929251D01*
X140767042Y-80104412D01*
X140872377Y-80262058D01*
X141006441Y-80396122D01*
X141111300Y-80466186D01*
X141164085Y-80501456D01*
X141339249Y-80574012D01*
X141525197Y-80610999D01*
X141525201Y-80611000D01*
X141525202Y-80611000D01*
X141714799Y-80611000D01*
X141714800Y-80610999D01*
X141900751Y-80574012D01*
X142075915Y-80501456D01*
X142233558Y-80396122D01*
X142367622Y-80262058D01*
X142472956Y-80104415D01*
X142545512Y-79929251D01*
X142582500Y-79743298D01*
X142582500Y-79553702D01*
X142545512Y-79367749D01*
X142472956Y-79192585D01*
X142437686Y-79139800D01*
X142367622Y-79034941D01*
X142233558Y-78900877D01*
X142075912Y-78795542D01*
X141900751Y-78722988D01*
X141900743Y-78722986D01*
X141714802Y-78686000D01*
X141714798Y-78686000D01*
X141525202Y-78686000D01*
X141525197Y-78686000D01*
X141339256Y-78722986D01*
X141339248Y-78722988D01*
X141164087Y-78795542D01*
X141006441Y-78900877D01*
X140872377Y-79034941D01*
X140767042Y-79192587D01*
X140694488Y-79367748D01*
X140694486Y-79367756D01*
X140657500Y-79553697D01*
X127342499Y-79553697D01*
X127305512Y-79367749D01*
X127232956Y-79192585D01*
X127197686Y-79139800D01*
X127127622Y-79034941D01*
X126993558Y-78900877D01*
X126835912Y-78795542D01*
X126660751Y-78722988D01*
X126660743Y-78722986D01*
X126474802Y-78686000D01*
X126474798Y-78686000D01*
X126285202Y-78686000D01*
X126285197Y-78686000D01*
X126099256Y-78722986D01*
X126099248Y-78722988D01*
X125924087Y-78795542D01*
X125766441Y-78900877D01*
X125632377Y-79034941D01*
X125527042Y-79192587D01*
X125454488Y-79367748D01*
X125454486Y-79367756D01*
X125417500Y-79553697D01*
X90300500Y-79553697D01*
X90300500Y-77893713D01*
X91849500Y-77893713D01*
X91849500Y-78106286D01*
X91882753Y-78316239D01*
X91948444Y-78518414D01*
X92044951Y-78707820D01*
X92169890Y-78879786D01*
X92320213Y-79030109D01*
X92492179Y-79155048D01*
X92492181Y-79155049D01*
X92492184Y-79155051D01*
X92681588Y-79251557D01*
X92883757Y-79317246D01*
X93093713Y-79350500D01*
X93093714Y-79350500D01*
X93306286Y-79350500D01*
X93306287Y-79350500D01*
X93516243Y-79317246D01*
X93718412Y-79251557D01*
X93907816Y-79155051D01*
X93976640Y-79105048D01*
X94079786Y-79030109D01*
X94079788Y-79030106D01*
X94079792Y-79030104D01*
X94230104Y-78879792D01*
X94230106Y-78879788D01*
X94230109Y-78879786D01*
X94355048Y-78707820D01*
X94355047Y-78707820D01*
X94355051Y-78707816D01*
X94451557Y-78518412D01*
X94517246Y-78316243D01*
X94550500Y-78106287D01*
X94550500Y-77893713D01*
X94517246Y-77683757D01*
X94470026Y-77538428D01*
X152550000Y-77538428D01*
X152550000Y-77650000D01*
X153369670Y-77650000D01*
X153349925Y-77669745D01*
X153300556Y-77755255D01*
X153275000Y-77850630D01*
X153275000Y-77949370D01*
X153300556Y-78044745D01*
X153349925Y-78130255D01*
X153369670Y-78150000D01*
X152550000Y-78150000D01*
X152550000Y-78261571D01*
X152577085Y-78432584D01*
X152630591Y-78597257D01*
X152709195Y-78751524D01*
X152810967Y-78891602D01*
X152933397Y-79014032D01*
X153073475Y-79115804D01*
X153227744Y-79194408D01*
X153392415Y-79247914D01*
X153392414Y-79247914D01*
X153399999Y-79249115D01*
X153400000Y-79249114D01*
X153400000Y-78180330D01*
X153419745Y-78200075D01*
X153505255Y-78249444D01*
X153600630Y-78275000D01*
X153699370Y-78275000D01*
X153794745Y-78249444D01*
X153880255Y-78200075D01*
X153900000Y-78180330D01*
X153900000Y-79249115D01*
X153907584Y-79247914D01*
X154072255Y-79194408D01*
X154226524Y-79115804D01*
X154366602Y-79014032D01*
X154489032Y-78891602D01*
X154590804Y-78751524D01*
X154643579Y-78647948D01*
X154691554Y-78597152D01*
X154759375Y-78580357D01*
X154825509Y-78602894D01*
X154868961Y-78657609D01*
X154871105Y-78663288D01*
X154891995Y-78722988D01*
X154897207Y-78737882D01*
X154977850Y-78847150D01*
X155087118Y-78927793D01*
X155129845Y-78942744D01*
X155215299Y-78972646D01*
X155245730Y-78975500D01*
X155245734Y-78975500D01*
X156054270Y-78975500D01*
X156084699Y-78972646D01*
X156084701Y-78972646D01*
X156148790Y-78950219D01*
X156212882Y-78927793D01*
X156322150Y-78847150D01*
X156402793Y-78737882D01*
X156425219Y-78673790D01*
X156447646Y-78609701D01*
X156447646Y-78609699D01*
X156450500Y-78579269D01*
X156450500Y-77843713D01*
X166499500Y-77843713D01*
X166499500Y-78056287D01*
X166532754Y-78266243D01*
X166535599Y-78275000D01*
X166598444Y-78468414D01*
X166694951Y-78657820D01*
X166819890Y-78829786D01*
X166970213Y-78980109D01*
X167142179Y-79105048D01*
X167142181Y-79105049D01*
X167142184Y-79105051D01*
X167331588Y-79201557D01*
X167533757Y-79267246D01*
X167743713Y-79300500D01*
X167743714Y-79300500D01*
X167956286Y-79300500D01*
X167956287Y-79300500D01*
X168166243Y-79267246D01*
X168368412Y-79201557D01*
X168557816Y-79105051D01*
X168579789Y-79089086D01*
X168729786Y-78980109D01*
X168729788Y-78980106D01*
X168729792Y-78980104D01*
X168880104Y-78829792D01*
X168880106Y-78829788D01*
X168880109Y-78829786D01*
X169005048Y-78657820D01*
X169005047Y-78657820D01*
X169005051Y-78657816D01*
X169101557Y-78468412D01*
X169167246Y-78266243D01*
X169200500Y-78056287D01*
X169200500Y-77843713D01*
X169167246Y-77633757D01*
X169101557Y-77431588D01*
X169005051Y-77242184D01*
X169005049Y-77242181D01*
X169005048Y-77242179D01*
X168880109Y-77070213D01*
X168729786Y-76919890D01*
X168557820Y-76794951D01*
X168368414Y-76698444D01*
X168368413Y-76698443D01*
X168368412Y-76698443D01*
X168166243Y-76632754D01*
X168166241Y-76632753D01*
X168166240Y-76632753D01*
X167994744Y-76605591D01*
X167956287Y-76599500D01*
X167743713Y-76599500D01*
X167705256Y-76605591D01*
X167533760Y-76632753D01*
X167331585Y-76698444D01*
X167142179Y-76794951D01*
X166970213Y-76919890D01*
X166819890Y-77070213D01*
X166694951Y-77242179D01*
X166598444Y-77431585D01*
X166532753Y-77633760D01*
X166524834Y-77683759D01*
X166499500Y-77843713D01*
X156450500Y-77843713D01*
X156450500Y-77220730D01*
X156447646Y-77190300D01*
X156447646Y-77190298D01*
X156414006Y-77094163D01*
X156402793Y-77062118D01*
X156322150Y-76952850D01*
X156212882Y-76872207D01*
X156212880Y-76872206D01*
X156084700Y-76827353D01*
X156054270Y-76824500D01*
X156054266Y-76824500D01*
X155245734Y-76824500D01*
X155245730Y-76824500D01*
X155215300Y-76827353D01*
X155215298Y-76827353D01*
X155087119Y-76872206D01*
X155087117Y-76872207D01*
X154977850Y-76952850D01*
X154897207Y-77062117D01*
X154871105Y-77136712D01*
X154830383Y-77193487D01*
X154765430Y-77219234D01*
X154696868Y-77205777D01*
X154646466Y-77157389D01*
X154643579Y-77152051D01*
X154590804Y-77048475D01*
X154489032Y-76908397D01*
X154366602Y-76785967D01*
X154226524Y-76684195D01*
X154072257Y-76605591D01*
X153907589Y-76552087D01*
X153907581Y-76552085D01*
X153900000Y-76550884D01*
X153900000Y-77619670D01*
X153880255Y-77599925D01*
X153794745Y-77550556D01*
X153699370Y-77525000D01*
X153600630Y-77525000D01*
X153505255Y-77550556D01*
X153419745Y-77599925D01*
X153400000Y-77619670D01*
X153400000Y-76550884D01*
X153399999Y-76550884D01*
X153392418Y-76552085D01*
X153392410Y-76552087D01*
X153227742Y-76605591D01*
X153073475Y-76684195D01*
X152933397Y-76785967D01*
X152810967Y-76908397D01*
X152709195Y-77048475D01*
X152630591Y-77202742D01*
X152577085Y-77367415D01*
X152550000Y-77538428D01*
X94470026Y-77538428D01*
X94451557Y-77481588D01*
X94451555Y-77481585D01*
X94451555Y-77481583D01*
X94355048Y-77292179D01*
X94230109Y-77120213D01*
X94079786Y-76969890D01*
X93907820Y-76844951D01*
X93718414Y-76748444D01*
X93718413Y-76748443D01*
X93718412Y-76748443D01*
X93516243Y-76682754D01*
X93516241Y-76682753D01*
X93516240Y-76682753D01*
X93354957Y-76657208D01*
X93306287Y-76649500D01*
X93093713Y-76649500D01*
X93045042Y-76657208D01*
X92883760Y-76682753D01*
X92681585Y-76748444D01*
X92492179Y-76844951D01*
X92320213Y-76969890D01*
X92169890Y-77120213D01*
X92044951Y-77292179D01*
X91948444Y-77481585D01*
X91882753Y-77683760D01*
X91849500Y-77893713D01*
X90300500Y-77893713D01*
X90300500Y-75223732D01*
X90320185Y-75156693D01*
X90372989Y-75110938D01*
X90424343Y-75099732D01*
X170475349Y-75001268D01*
X170542411Y-75020870D01*
G37*
%TD.AperFunction*%
%TD*%
M02*
